<svg width="16" height="18" viewBox="0 0 16 18" fill="none" xmlns="http://www.w3.org/2000/svg">
<path d="M1.23852 11.8117C1.63734 13.3002 2.51616 14.6154 3.73867 15.5535C4.96118 16.4915 6.45906 17 8 17C9.54094 17 11.0388 16.4915 12.2613 15.5535C13.4838 14.6154 14.3627 13.3002 14.7615 11.8117" stroke="#26304F"/>
<path d="M8 1L7.68765 0.609565L8 0.359687L8.31235 0.609565L8 1ZM8.5 10C8.5 10.2761 8.27614 10.5 8 10.5C7.72386 10.5 7.5 10.2761 7.5 10L8.5 10ZM2.68765 4.60957L7.68765 0.609565L8.31235 1.39043L3.31235 5.39043L2.68765 4.60957ZM8.31235 0.609565L13.3123 4.60957L12.6877 5.39043L7.68765 1.39043L8.31235 0.609565ZM8.5 1L8.5 10L7.5 10L7.5 1L8.5 1Z" fill="#26304F"/>
</svg>
