<svg width="16" height="19" viewBox="0 0 16 19" xmlns="http://www.w3.org/2000/svg">
<path d="M10.2041 7.49316C9.93924 7.49316 9.72461 7.68486 9.72461 7.92139V16.0148C9.72461 16.2511 9.93924 16.443 10.2041 16.443C10.4689 16.443 10.6835 16.2511 10.6835 16.0148V7.92139C10.6835 7.68486 10.4689 7.49316 10.2041 7.49316Z" />
<path d="M5.40914 7.49316C5.14432 7.49316 4.92969 7.68486 4.92969 7.92139V16.0148C4.92969 16.2511 5.14432 16.443 5.40914 16.443C5.67397 16.443 5.8886 16.2511 5.8886 16.0148V7.92139C5.8886 7.68486 5.67397 7.49316 5.40914 7.49316Z" />
<path d="M1.65921 6.20482V16.7173C1.65921 17.3387 1.8856 17.9222 2.28109 18.3409C2.67474 18.7607 3.22259 18.9991 3.79594 19.0001H11.8175C12.391 18.9991 12.9389 18.7607 13.3324 18.3409C13.7279 17.9222 13.9542 17.3387 13.9542 16.7173V6.20482C14.7404 5.99482 15.2498 5.23046 15.1447 4.4186C15.0393 3.60691 14.3522 2.99972 13.5387 2.99956H11.368V2.46621C11.3705 2.01769 11.1943 1.58701 10.8788 1.27017C10.5633 0.95349 10.1347 0.777151 9.68907 0.780818H5.92438C5.47872 0.777151 5.05012 0.95349 4.73463 1.27017C4.41914 1.58701 4.24292 2.01769 4.24541 2.46621V2.99956H2.07473C1.26125 2.99972 0.574123 3.60691 0.468794 4.4186C0.36363 5.23046 0.873052 5.99482 1.65921 6.20482ZM11.8175 18.1467H3.79594C3.07105 18.1467 2.50715 17.52 2.50715 16.7173V6.24233H13.1063V16.7173C13.1063 17.52 12.5424 18.1467 11.8175 18.1467ZM5.09334 2.46621C5.09053 2.24403 5.17731 2.03019 5.33398 1.87335C5.49048 1.71651 5.70346 1.63034 5.92438 1.63418H9.68907C9.91 1.63034 10.123 1.71651 10.2795 1.87335C10.4361 2.03002 10.5229 2.24403 10.5201 2.46621V2.99956H5.09334V2.46621ZM2.07473 3.85292H13.5387C13.9602 3.85292 14.3019 4.19676 14.3019 4.62094C14.3019 5.04512 13.9602 5.38897 13.5387 5.38897H2.07473C1.65325 5.38897 1.31159 5.04512 1.31159 4.62094C1.31159 4.19676 1.65325 3.85292 2.07473 3.85292Z" />
<path d="M7.96578 7.49316C7.70096 7.49316 7.48633 7.68486 7.48633 7.92139V16.0148C7.48633 16.2511 7.70096 16.443 7.96578 16.443C8.23061 16.443 8.44524 16.2511 8.44524 16.0148V7.92139C8.44524 7.68486 8.23061 7.49316 7.96578 7.49316Z" />
</svg>
