<svg width="13" height="16" viewBox="0 0 13 16" fill="none" xmlns="http://www.w3.org/2000/svg">
<path d="M7.95979 6.0968C7.74358 6.0968 7.56836 6.2533 7.56836 6.4464V13.0538C7.56836 13.2468 7.74358 13.4034 7.95979 13.4034C8.17599 13.4034 8.35121 13.2468 8.35121 13.0538V6.4464C8.35121 6.2533 8.17599 6.0968 7.95979 6.0968Z" fill="white"/>
<path d="M4.04377 6.0968C3.82757 6.0968 3.65234 6.2533 3.65234 6.4464V13.0538C3.65234 13.2468 3.82757 13.4034 4.04377 13.4034C4.25997 13.4034 4.4352 13.2468 4.4352 13.0538V6.4464C4.4352 6.2533 4.25997 6.0968 4.04377 6.0968Z" fill="white"/>
<path d="M0.983052 5.04513V13.6275C0.983052 14.1348 1.16788 14.6112 1.49075 14.953C1.81213 15.2957 2.25939 15.4903 2.72747 15.4911H9.27627C9.74448 15.4903 10.1917 15.2957 10.513 14.953C10.8359 14.6112 11.0207 14.1348 11.0207 13.6275V5.04513C11.6625 4.87369 12.0784 4.24967 11.9925 3.58687C11.9065 2.9242 11.3456 2.4285 10.6815 2.42836H8.90932V1.99293C8.91135 1.62677 8.76749 1.27516 8.50992 1.01649C8.25236 0.757958 7.90245 0.613996 7.53861 0.616989H4.46513C4.10129 0.613996 3.75138 0.757958 3.49381 1.01649C3.23625 1.27516 3.09239 1.62677 3.09442 1.99293V2.42836H1.32228C0.658154 2.4285 0.0971879 2.9242 0.0111973 3.58687C-0.0746579 4.24967 0.341233 4.87369 0.983052 5.04513ZM9.27627 14.7945H2.72747C2.13568 14.7945 1.6753 14.2828 1.6753 13.6275V5.07575H10.3284V13.6275C10.3284 14.2828 9.86806 14.7945 9.27627 14.7945ZM3.78667 1.99293C3.78437 1.81155 3.85522 1.63697 3.98312 1.50893C4.11089 1.38089 4.28476 1.31054 4.46513 1.31367H7.53861C7.71897 1.31054 7.89285 1.38089 8.02062 1.50893C8.14852 1.63684 8.21937 1.81155 8.21707 1.99293V2.42836H3.78667V1.99293ZM1.32228 3.12504H10.6815C11.0256 3.12504 11.3045 3.40576 11.3045 3.75206C11.3045 4.09836 11.0256 4.37907 10.6815 4.37907H1.32228C0.978185 4.37907 0.699256 4.09836 0.699256 3.75206C0.699256 3.40576 0.978185 3.12504 1.32228 3.12504Z" fill="white"/>
<path d="M6.13166 6.0968C5.91546 6.0968 5.74023 6.2533 5.74023 6.4464V13.0538C5.74023 13.2468 5.91546 13.4034 6.13166 13.4034C6.34786 13.4034 6.52309 13.2468 6.52309 13.0538V6.4464C6.52309 6.2533 6.34786 6.0968 6.13166 6.0968Z" fill="white"/>
</svg>
