<svg width="21" height="21" viewBox="0 0 21 21" fill="none" xmlns="http://www.w3.org/2000/svg">
<g clip-path="url(#clip0)">
<path d="M10.1248 20.9875C8.51887 20.7594 7.11109 19.0833 6.22522 16.6081C7.50583 16.3213 8.81263 16.1674 10.1248 16.149V20.9875Z" fill="white"/>
<path d="M7.55906 20.5939C7.46413 20.5664 7.36957 20.5388 7.27574 20.5083C7.19657 20.4829 7.11851 20.4554 7.04044 20.4281C6.94808 20.3962 6.85608 20.3634 6.76446 20.3286C6.68639 20.2989 6.60905 20.2674 6.53154 20.2358C6.44211 20.1983 6.35286 20.1609 6.26453 20.1233C6.18738 20.0894 6.11078 20.0539 6.03418 20.0181C5.9475 19.9773 5.86118 19.9357 5.7756 19.8924C5.70047 19.8541 5.62552 19.8151 5.55038 19.7749C5.46627 19.7299 5.3827 19.6839 5.29969 19.6366C5.22455 19.5941 5.15216 19.5514 5.07905 19.5074C4.99768 19.4574 4.91668 19.4073 4.83623 19.3573C4.76421 19.3115 4.69237 19.2649 4.62145 19.2169C4.54229 19.1636 4.46422 19.1081 4.38652 19.0525C4.3167 19.0025 4.24724 18.9527 4.17907 18.9025C4.10394 18.8446 4.02697 18.7846 3.95165 18.7245C3.88476 18.6712 3.81806 18.6182 3.75227 18.5634C3.67732 18.5011 3.60548 18.4366 3.53273 18.3721C3.46895 18.3155 3.40481 18.2594 3.34251 18.2013C3.27085 18.1344 3.20103 18.0652 3.13121 17.9964C3.07074 17.9367 3.00953 17.8779 2.95034 17.8167C2.93934 17.8053 2.9289 17.793 2.91753 17.7813C3.73614 17.3585 4.59836 17.0267 5.48917 16.7917C5.95245 18.2691 6.77692 19.608 7.88782 20.6866C7.8574 20.6788 7.82698 20.6723 7.79656 20.6645C7.71629 20.6419 7.63749 20.6172 7.55906 20.5939Z" fill="white"/>
<path d="M-0.000138283 10.8839H4.49992C4.51697 12.641 4.77188 14.3876 5.25769 16.0763C4.267 16.3409 3.31095 16.7213 2.40933 17.2097C0.928975 15.4255 0.0815945 13.201 -0.000138283 10.8839Z" fill="white"/>
<path d="M10.1248 10.1333H5.25067C5.26973 8.43836 5.51841 6.75387 5.98956 5.12564C7.34676 5.43516 8.73292 5.60046 10.1248 5.61878V10.1333Z" fill="white"/>
<path d="M10.1248 0.0296631V4.86817C8.81263 4.84966 7.50583 4.69591 6.22522 4.40911C7.11109 1.93388 8.51887 0.257817 10.1248 0.0296631Z" fill="white"/>
<path d="M10.1248 15.3984C8.73292 15.4169 7.34676 15.5822 5.98956 15.8918C5.51841 14.2635 5.26973 12.5789 5.25067 10.8839H10.1248V15.3984Z" fill="white"/>
<path d="M2.40933 3.8075C3.31095 4.29587 4.267 4.67631 5.25769 4.94093C4.77188 6.62964 4.51697 8.37625 4.49992 10.1333H-0.000138283C0.0817776 7.8164 0.929158 5.59186 2.40933 3.8075Z" fill="white"/>
<path d="M2.91655 3.23813C2.92755 3.22696 2.93799 3.21486 2.9488 3.20332C3.00818 3.14211 3.06975 3.0831 3.13023 3.02354C3.19986 2.95482 3.26932 2.88537 3.34116 2.81866C3.40328 2.76075 3.4676 2.70596 3.53138 2.64823C3.60413 2.58373 3.67688 2.51867 3.75165 2.45636C3.81652 2.40157 3.88305 2.34916 3.94902 2.29656C4.02415 2.23572 4.10112 2.17525 4.17846 2.11716C4.24626 2.06603 4.31498 2.01655 4.38407 1.96707C4.4625 1.91063 4.5413 1.85437 4.6212 1.80067C4.69139 1.75339 4.76268 1.70721 4.83396 1.66195C4.91515 1.60972 4.99615 1.55859 5.0788 1.50911C5.15118 1.46568 5.2243 1.4228 5.2976 1.3812C5.38154 1.33319 5.46565 1.28664 5.5505 1.24119C5.62563 1.20363 5.70059 1.16276 5.77572 1.12519C5.86203 1.08158 5.94908 1.03961 6.03833 0.998379C6.11346 0.962644 6.1897 0.927826 6.26703 0.893923C6.35591 0.854523 6.44571 0.818972 6.53532 0.781404C6.61265 0.749884 6.68962 0.718731 6.76769 0.689043C6.85877 0.654224 6.95113 0.621605 7.04349 0.589718C7.12156 0.56223 7.19963 0.534925 7.27879 0.509269C7.37262 0.478848 7.46645 0.451177 7.56284 0.423322C7.64091 0.400415 7.71934 0.377141 7.79833 0.35625C7.82856 0.348004 7.85935 0.34159 7.88977 0.33371C6.77887 1.41235 5.95458 2.75104 5.49112 4.22863C4.5994 3.9937 3.73589 3.66164 2.91655 3.23813Z" fill="white"/>
<path d="M21 10.1333H16.5C16.4829 8.37625 16.228 6.62964 15.7424 4.94093C16.7329 4.6765 17.6889 4.29606 18.5906 3.8075C20.0709 5.59168 20.9183 7.8164 21 10.1333Z" fill="white"/>
<path d="M10.8753 20.9875V16.149C12.1874 16.1676 13.4942 16.3213 14.7748 16.6081C13.8891 19.0833 12.4811 20.7594 10.8753 20.9875Z" fill="white"/>
<path d="M10.8753 10.8839H15.7494C15.7303 12.5789 15.4818 14.2635 15.0105 15.8918C13.6533 15.5821 12.2673 15.4168 10.8753 15.3984V10.8839Z" fill="white"/>
<path d="M10.8753 0.0296631C12.4811 0.257817 13.8891 1.93388 14.7748 4.40911C13.4942 4.69609 12.1874 4.84985 10.8753 4.86817V0.0296631Z" fill="white"/>
<path d="M10.8753 5.61878C12.2672 5.60046 13.6533 5.43516 15.0105 5.12564C15.4818 6.75387 15.7303 8.43836 15.7494 10.1333H10.8753V5.61878Z" fill="white"/>
<path d="M13.1132 0.333313C13.1436 0.341193 13.1741 0.347607 13.2045 0.355487C13.284 0.376745 13.3624 0.400385 13.4416 0.423292C13.5358 0.45078 13.6293 0.478452 13.7238 0.508506C13.8035 0.534345 13.882 0.561833 13.9604 0.589138C14.0522 0.621575 14.1442 0.653828 14.2351 0.68828C14.3135 0.718334 14.3909 0.749487 14.4686 0.781374C14.5578 0.818941 14.6473 0.856509 14.7354 0.893893C14.8127 0.927796 14.8892 0.963347 14.9658 0.999082C15.0524 1.03995 15.1388 1.08155 15.2243 1.1248C15.2995 1.1631 15.3746 1.20231 15.4496 1.24226C15.5337 1.28734 15.6171 1.33352 15.6999 1.3808C15.775 1.42277 15.8489 1.46584 15.9213 1.50982C16.0028 1.55893 16.0834 1.60969 16.1637 1.6599C16.2359 1.70608 16.3076 1.75263 16.3785 1.80064C16.4576 1.85397 16.5357 1.9095 16.6134 1.96502C16.6832 2.01505 16.7527 2.0649 16.821 2.11529C16.8978 2.17302 16.9711 2.23313 17.0485 2.29305C17.1152 2.34638 17.1824 2.39934 17.2477 2.4545C17.3228 2.51644 17.3941 2.58058 17.4665 2.64472C17.5306 2.7019 17.5953 2.75742 17.658 2.81662C17.7293 2.88314 17.7987 2.95222 17.8684 3.02076C17.9288 3.0805 17.9904 3.13951 18.0498 3.2009C18.0606 3.21227 18.071 3.22473 18.0824 3.23627C17.264 3.65923 16.4016 3.9911 15.5108 4.22604C15.0475 2.74936 14.2236 1.41141 13.1132 0.333313Z" fill="white"/>
<path d="M17.87 17.9937C17.8002 18.0624 17.7307 18.1319 17.6591 18.1988C17.5968 18.2565 17.5326 18.3113 17.4687 18.369C17.3959 18.4337 17.3232 18.4986 17.2484 18.5609C17.1835 18.6153 17.1174 18.6679 17.051 18.7207C16.9759 18.7815 16.9009 18.842 16.8214 18.9005C16.7538 18.9512 16.6851 19.0003 16.6164 19.0507C16.5379 19.107 16.4588 19.1632 16.3789 19.2173C16.3087 19.2646 16.2374 19.3108 16.1661 19.3562C16.0849 19.4083 16.0039 19.4594 15.9213 19.5089C15.8489 19.5525 15.7758 19.5952 15.7025 19.637C15.6185 19.685 15.5344 19.7315 15.4496 19.7768C15.3746 19.8144 15.2995 19.8552 15.2243 19.8928C15.138 19.9364 15.051 19.9784 14.9617 20.0198C14.8866 20.0552 14.8104 20.09 14.733 20.1241C14.6442 20.1635 14.5545 20.199 14.4647 20.2366C14.3874 20.2681 14.3104 20.2993 14.2324 20.3289C14.1413 20.3639 14.0489 20.3966 13.9566 20.4285C13.8785 20.4558 13.8004 20.4832 13.7213 20.5087C13.6274 20.5391 13.5336 20.567 13.4372 20.5947C13.3592 20.6176 13.2807 20.6408 13.2019 20.6619C13.1715 20.6702 13.1407 20.6766 13.1103 20.6845C14.2212 19.6056 15.0455 18.2669 15.5089 16.7893C16.3997 17.0245 17.2621 17.3563 18.0806 17.7795C18.0696 17.7907 18.0591 17.8027 18.0481 17.8143C17.9919 17.8751 17.9312 17.9341 17.87 17.9937Z" fill="white"/>
<path d="M18.5906 17.2097C17.6889 16.7213 16.7329 16.3409 15.7424 16.0763C16.228 14.3876 16.4829 12.641 16.5 10.8839H21C20.9181 13.2008 20.0709 15.4254 18.5906 17.2097Z" fill="white"/>
</g>
<defs>
<clipPath id="clip0">
<rect width="21" height="21" fill="white" transform="matrix(-1 0 0 1 21 0)"/>
</clipPath>
</defs>
</svg>
