<svg width="72" height="72" viewBox="0 0 72 72" fill="none" xmlns="http://www.w3.org/2000/svg">
<g clip-path="url(#clip0)">
<path d="M36 72C55.8494 72 72 55.8508 72 36C72 32.5737 71.5217 29.1973 70.5747 25.9636C70.1082 24.3735 68.4478 23.4602 66.8533 23.9268C65.2617 24.3918 64.3513 26.0581 64.8164 27.6482C65.6008 30.3347 66 33.1458 66 36C66 52.5417 52.5417 66 36 66C19.4583 66 6 52.5417 6 36C6 19.4583 19.4583 6 36 6C42.0117 6 47.7957 7.75781 52.7263 11.0823C54.0989 12.0088 55.9651 11.6448 56.8901 10.2722C57.8159 8.89819 57.4548 7.03345 56.0808 6.10767C50.1555 2.1123 43.2122 0 36 0C16.1506 0 0 16.1492 0 36C0 55.8508 16.1506 72 36 72Z" fill="#20CAEB"/>
<path d="M66.8788 6.87891L35.9999 37.7563L26.121 27.8789C24.9492 26.7078 23.0507 26.7078 21.8788 27.8789C20.7077 29.0508 20.7077 30.9492 21.8788 32.1211L33.8788 44.1211C34.4655 44.7078 35.2316 45 35.9999 45C36.7682 45 37.5344 44.7078 38.121 44.1211L71.121 11.1211C72.2922 9.94922 72.2922 8.05078 71.121 6.87891C69.9492 5.70776 68.0507 5.70776 66.8788 6.87891Z" fill="#20CAEB"/>
</g>
<defs>
<clipPath id="clip0">
<rect width="72" height="72" fill="white"/>
</clipPath>
</defs>
</svg>
