<svg width="6" height="8" viewBox="0 0 6 8" fill="none" xmlns="http://www.w3.org/2000/svg">
<path d="M3 6.83301L3.16005 7.02506L3 7.15843L2.83995 7.02506L3 6.83301ZM5.16005 5.3584L3.16005 7.02506L2.83995 6.64095L4.83995 4.97429L5.16005 5.3584ZM2.83995 7.02506L0.839954 5.3584L1.16005 4.97429L3.16005 6.64095L2.83995 7.02506Z" fill="#85879A"/>
<path d="M3 1L2.83995 0.807945L3 0.674573L3.16005 0.807945L3 1ZM0.839954 2.47461L2.83995 0.807945L3.16005 1.19206L1.16005 2.85872L0.839954 2.47461ZM3.16005 0.807945L5.16005 2.47461L4.83995 2.85872L2.83995 1.19206L3.16005 0.807945Z" fill="#85879A"/>
</svg>
