<svg width="16" height="14" viewBox="0 0 16 14" fill="none" xmlns="http://www.w3.org/2000/svg">
<path d="M13.3541 7.66292C13.3157 7.64354 13.2772 7.63387 13.2384 7.63387C13.1549 7.63387 13.0813 7.66592 13.0172 7.73015L12.4014 8.34585C12.3439 8.40364 12.315 8.4741 12.315 8.55757V11.0011C12.315 11.4246 12.1646 11.7868 11.8629 12.0884C11.5615 12.3898 11.199 12.5405 10.7756 12.5405H2.77088C2.34749 12.5405 1.98507 12.3898 1.68364 12.0884C1.38214 11.7868 1.23147 11.4246 1.23147 11.0011V2.99654C1.23147 2.57322 1.38214 2.21083 1.68364 1.9093C1.98507 1.60783 2.34749 1.45713 2.77088 1.45713H10.7757C10.9168 1.45713 11.0611 1.47638 11.2086 1.51489C11.2472 1.52763 11.276 1.53413 11.295 1.53413C11.3785 1.53413 11.4523 1.50215 11.5164 1.43803L11.9878 0.966587C12.0647 0.889721 12.0937 0.796646 12.0743 0.687699C12.0551 0.585054 11.9973 0.511255 11.9011 0.466402C11.5549 0.306268 11.1795 0.22583 10.7754 0.22583H2.77088C2.00761 0.22583 1.35494 0.496832 0.812938 1.03884C0.271002 1.58091 0 2.23348 0 2.99678V11.0016C0 11.7647 0.271002 12.4174 0.812972 12.9594C1.35498 13.5015 2.00765 13.7725 2.77091 13.7725H10.7756C11.5388 13.7725 12.1915 13.5015 12.7336 12.9594C13.2756 12.4174 13.5468 11.7648 13.5468 11.0016V7.94187C13.5468 7.80728 13.4823 7.71434 13.3541 7.66292Z" fill="#20CAEB"/>
<path d="M15.7692 2.14074L14.7108 1.08231C14.5568 0.928407 14.3739 0.85144 14.1622 0.85144C13.9507 0.85144 13.7677 0.928407 13.6139 1.08231L7.38894 7.30723L4.85873 4.77686C4.70477 4.62286 4.52192 4.54599 4.31033 4.54599C4.0987 4.54599 3.91592 4.62286 3.76192 4.77686L2.70362 5.83515C2.54969 5.98909 2.47266 6.17193 2.47266 6.38366C2.47266 6.59529 2.54969 6.77807 2.70362 6.93207L6.84067 11.0691C6.99464 11.2231 7.17748 11.3 7.38907 11.3C7.60067 11.3 7.78348 11.2232 7.93748 11.0691L15.7691 3.23752C15.9229 3.08362 16.0001 2.90074 16.0001 2.68911C16.0001 2.47749 15.9231 2.29464 15.7692 2.14074Z" fill="#20CAEB"/>
</svg>
