<svg width="24" height="24" viewBox="0 0 24 24" fill="none" xmlns="http://www.w3.org/2000/svg">
<g clip-path="url(#clip0)">
<path d="M15.3336 6.32613C15.5277 6.32613 15.685 6.16878 15.685 5.97471C15.685 5.7806 15.5276 5.62329 15.3336 5.62329H8.66783C8.47372 5.62329 8.31641 5.78065 8.31641 5.97471C8.31641 6.16882 8.47377 6.32613 8.66783 6.32613H15.3336Z" fill="#20CAEB"/>
<path d="M6.40039 9.38438V10.2987C6.40039 10.7297 6.75102 11.0803 7.18198 11.0803H16.8182C17.2492 11.0803 17.5998 10.7297 17.5998 10.2987V9.38438C17.5998 8.95341 17.2492 8.60278 16.8182 8.60278H7.18198C6.75102 8.60278 6.40039 8.95341 6.40039 9.38438ZM16.8969 9.38438V10.2987C16.8969 10.3421 16.8616 10.3774 16.8182 10.3774H7.18198C7.13858 10.3774 7.10328 10.3421 7.10328 10.2987V9.38438C7.10328 9.34097 7.13858 9.30567 7.18198 9.30567H16.8182C16.8616 9.30567 16.8969 9.34097 16.8969 9.38438Z" fill="#20CAEB"/>
<path d="M6.40039 14.2754C6.40039 14.7063 6.75102 15.057 7.18198 15.057H16.8182C17.2492 15.057 17.5998 14.7063 17.5998 14.2754V13.3611C17.5998 12.9301 17.2492 12.5795 16.8182 12.5795H7.18198C6.75102 12.5795 6.40039 12.9301 6.40039 13.3611V14.2754ZM7.10328 13.3611C7.10328 13.3177 7.13858 13.2824 7.18198 13.2824H16.8182C16.8616 13.2824 16.8969 13.3177 16.8969 13.3611V14.2754C16.8969 14.3188 16.8616 14.3541 16.8182 14.3541H7.18198C7.13858 14.3541 7.10328 14.3188 7.10328 14.2754V13.3611Z" fill="#20CAEB"/>
<path d="M12.8187 16.811H11.1838C10.5192 16.811 9.97852 17.3517 9.97852 18.0163V18.0641C9.97852 18.7287 10.5192 19.2694 11.1838 19.2694H12.8187C13.4833 19.2694 14.024 18.7287 14.024 18.0641V18.0163C14.024 17.3517 13.4833 16.811 12.8187 16.811ZM13.3211 18.0641C13.3211 18.3412 13.0957 18.5666 12.8187 18.5666H11.1838C10.9068 18.5666 10.6814 18.3412 10.6814 18.0641V18.0164C10.6814 17.7393 10.9068 17.514 11.1838 17.514H12.8187C13.0957 17.514 13.3211 17.7393 13.3211 18.0164V18.0641Z" fill="#20CAEB"/>
<path d="M13.6704 21.5365H4.62838C4.26772 21.5365 3.97433 21.2431 3.97433 20.8825V6.67564C3.97433 6.48153 3.81697 6.32422 3.62291 6.32422C3.4288 6.32422 3.27148 6.48158 3.27148 6.67564V20.8825C3.27148 21.6307 3.8802 22.2394 4.62842 22.2394H13.6704C13.8645 22.2394 14.0218 22.082 14.0218 21.888C14.0218 21.6939 13.8645 21.5365 13.6704 21.5365Z" fill="#20CAEB"/>
<path d="M19.757 0.0648279C19.3013 -0.070969 19.4377 0.0574685 4.62842 0.00857788C3.88025 0.00857788 3.27148 0.617297 3.27148 1.36552V5.27072C3.27148 5.46483 3.42884 5.62214 3.62291 5.62214C3.81702 5.62214 3.97433 5.46478 3.97433 5.27072V4.26394H20.0239V20.8833C20.0239 21.1468 19.8671 21.3834 19.6243 21.4861C19.2727 21.6348 19.3799 22.1613 19.7614 22.1613C20.0586 22.1613 20.7268 21.6712 20.7268 20.8832V1.36552C20.7268 0.750843 20.3163 0.231515 19.757 0.0648279ZM20.0239 3.56105H3.97438V1.36552C3.97438 1.03758 4.21766 0.762703 4.53706 0.717797C4.62313 0.705703 3.82611 0.713718 19.3699 0.711422C19.7312 0.711422 20.0239 1.00556 20.0239 1.36547V3.56105Z" fill="#20CAEB"/>
<path d="M5.85452 1.06287C5.26164 1.06287 4.7793 1.54516 4.7793 2.13804C4.7793 2.73091 5.26164 3.21325 5.85452 3.21325C6.44739 3.21325 6.92969 2.73091 6.92969 2.13804C6.92969 1.54516 6.44734 1.06287 5.85452 1.06287ZM5.85452 2.51036C5.64925 2.51036 5.48219 2.34335 5.48219 2.13804C5.48219 1.93272 5.6492 1.76576 5.85452 1.76576C6.05978 1.76576 6.2268 1.93277 6.2268 2.13804C6.2268 2.3433 6.05978 2.51036 5.85452 2.51036Z" fill="#20CAEB"/>
<path d="M8.66697 1.06287C8.07409 1.06287 7.5918 1.54516 7.5918 2.13804C7.5918 2.73091 8.07409 3.21325 8.66697 3.21325C9.25984 3.21325 9.74219 2.73091 9.74219 2.13804C9.74219 1.54516 9.25984 1.06287 8.66697 1.06287ZM8.66697 2.51036C8.4617 2.51036 8.29469 2.34335 8.29469 2.13804C8.29469 1.93272 8.4617 1.76576 8.66697 1.76576C8.87223 1.76576 9.0393 1.93277 9.0393 2.13804C9.0393 2.3433 8.87228 2.51036 8.66697 2.51036Z" fill="#20CAEB"/>
<path d="M11.4795 1.06287C10.8866 1.06287 10.4043 1.54516 10.4043 2.13804C10.4043 2.73091 10.8866 3.21325 11.4795 3.21325C12.0724 3.21325 12.5547 2.73091 12.5547 2.13804C12.5547 1.54516 12.0724 1.06287 11.4795 1.06287ZM11.4795 2.51036C11.2743 2.51036 11.1072 2.34335 11.1072 2.13804C11.1072 1.93272 11.2742 1.76576 11.4795 1.76576C11.6848 1.76576 11.8518 1.93277 11.8518 2.13804C11.8518 2.3433 11.6848 2.51036 11.4795 2.51036Z" fill="#20CAEB"/>
<path d="M19.5908 20.3951C19.5908 20.1785 19.4788 19.9845 19.2912 19.8762L15.6449 17.7711C15.4573 17.6627 15.2333 17.6627 15.0457 17.7711C14.8581 17.8794 14.7461 18.0734 14.7461 18.29V22.5003C14.7461 22.7169 14.8581 22.911 15.0457 23.0193C15.2334 23.1276 15.4573 23.1276 15.6449 23.0193L16.5301 22.5082L17.2106 23.6869C17.327 23.8884 17.5389 24.0012 17.7564 24.0012C17.863 24.0012 17.971 23.9741 18.0698 23.917L18.8563 23.4629C19.1566 23.2895 19.2599 22.9041 19.0865 22.6038L18.406 21.4251L19.2911 20.914C19.4788 20.8058 19.5908 20.6118 19.5908 20.3951ZM18.0005 20.8477C17.8523 20.9333 17.7464 21.0713 17.7021 21.2366C17.6578 21.4018 17.6805 21.5744 17.7661 21.7226L18.4408 22.8913L17.7824 23.2714L17.1076 22.1027C16.9891 21.8975 16.7734 21.7826 16.552 21.7826C16.4434 21.7826 16.3334 21.8102 16.2328 21.8683L15.449 22.3208V18.4695L18.7843 20.3952L18.0005 20.8477Z" fill="#20CAEB"/>
</g>
<defs>
<clipPath id="clip0">
<rect width="24" height="24" fill="white"/>
</clipPath>
</defs>
</svg>
