<svg width="20" height="20" viewBox="0 0 20 20" fill="none" xmlns="http://www.w3.org/2000/svg">
<path d="M17.7479 5.23649C18.0045 4.71912 18.1656 4.15965 18.2235 3.58502C18.2243 3.08918 18.0878 2.6028 17.829 2.17984C17.5702 1.75688 17.1993 1.41387 16.7575 1.18886C16.3156 0.963854 15.8201 0.865643 15.3258 0.905124C14.8316 0.944605 14.3579 1.12023 13.9574 1.41253C12.0029 0.357673 9.73447 0.0401502 7.56548 0.517821C5.39648 0.995492 3.47131 2.23656 2.14077 4.01486C0.810235 5.79317 0.16291 7.99033 0.316758 10.206C0.470605 12.4216 1.41538 14.5082 2.97893 16.0855C4.54247 17.6629 6.6207 18.626 8.8349 18.7993C11.0491 18.9726 13.2519 18.3446 15.0418 17.0298C16.8317 15.7149 18.0897 13.8007 18.5864 11.636C19.0831 9.47128 18.7855 7.20016 17.7479 5.23649ZM0.903614 9.8587H2.38988C2.38988 10.6716 3.16274 12.2305 3.84209 13.4437H1.81897C1.25742 12.3292 0.945073 11.1059 0.903614 9.8587ZM9.85855 1.11647C11.0574 1.83792 12.0897 2.8052 12.8876 3.95457C12.9732 4.34028 13.096 4.71677 13.2544 5.07875H9.85855V1.11647ZM12.9129 2.99678C12.2893 2.22565 11.5599 1.54656 10.7461 0.979644C11.703 1.11194 12.631 1.40346 13.4916 1.84213C13.2075 2.17408 13.0088 2.57048 12.9129 2.99678ZM9.26106 5.07875H5.5566C6.39539 3.43648 7.67906 2.06315 9.26106 1.11557V5.07875ZM9.26106 5.67625V9.26121H7.69802C7.56221 8.6678 7.22927 8.13794 6.75353 7.75813C6.27779 7.37832 5.68736 7.17099 5.0786 7.16998C4.97615 7.17035 4.87381 7.17664 4.77209 7.1888C4.90014 6.67177 5.06979 6.16594 5.27936 5.67625H9.26106ZM7.76733 9.8587H9.26106V13.4437H6.31512C6.99447 12.2305 7.76733 10.6716 7.76733 9.8587ZM4.12261 7.34923C3.70983 7.50711 3.34221 7.76407 3.05214 8.09749C2.76206 8.43091 2.55843 8.83055 2.45919 9.26121H0.903614C0.945073 8.01397 1.25742 6.79069 1.81897 5.67625H4.63437C4.41743 6.21866 4.24625 6.77827 4.12261 7.34923ZM2.98737 9.8587C2.98737 9.30408 3.2077 8.77216 3.59988 8.37998C3.99206 7.9878 4.52397 7.76747 5.0786 7.76747C5.63323 7.76747 6.16514 7.9878 6.55732 8.37998C6.94951 8.77216 7.16983 9.30408 7.16983 9.8587C7.16983 10.7573 5.83324 13.1342 5.0786 14.3698C4.32397 13.1342 2.98737 10.7573 2.98737 9.8587ZM5.97275 14.0412H9.26106V18.0011C7.80176 17.125 6.59481 15.8852 5.75825 14.4029C5.82547 14.2915 5.89717 14.1705 5.97275 14.0412ZM9.85855 14.0412H13.5579C12.7193 15.6812 11.4377 17.0533 9.85855 18.0016V14.0412ZM9.85855 13.4437V9.8587H14.6283C14.5923 11.0926 14.3245 12.3088 13.8388 13.4437H9.85855ZM15.2258 9.8587H18.216C18.1745 11.1059 17.8622 12.3292 17.3006 13.4437H14.482C14.9395 12.3019 15.1914 11.0882 15.2258 9.8587ZM18.2133 9.26121H9.85855V5.67625H13.5212C14.0504 6.75706 14.6388 7.80786 15.2838 8.82384C15.3108 8.86629 15.348 8.90124 15.3921 8.92545C15.4362 8.94966 15.4857 8.96236 15.5359 8.96236C15.5862 8.96236 15.6357 8.94966 15.6798 8.92545C15.7239 8.90124 15.7611 8.86629 15.7881 8.82384C15.9375 8.58992 16.774 7.25722 17.4276 5.92988C17.9083 6.97711 18.1756 8.10958 18.2139 9.26121H18.2133ZM17.626 3.58502C17.626 4.48395 16.2894 6.86048 15.5347 8.09759C14.7801 6.86078 13.4435 4.48425 13.4435 3.58502C13.4435 3.03039 13.6638 2.49848 14.056 2.10629C14.4482 1.71411 14.9801 1.49379 15.5347 1.49379C16.0894 1.49379 16.6213 1.71411 17.0135 2.10629C17.4057 2.49848 17.626 3.03039 17.626 3.58502ZM8.3684 0.980242C6.8725 2.01946 5.67508 3.43257 4.89547 5.07875H2.147C2.81472 3.9766 3.71948 3.03695 4.79559 2.32803C5.87171 1.61911 7.09218 1.15871 8.3684 0.980242ZM2.1476 14.0412H4.18445C4.49903 14.5789 4.75207 14.9789 4.82646 15.0972C4.85343 15.1397 4.89068 15.1746 4.93476 15.1988C4.97884 15.2231 5.02831 15.2357 5.0786 15.2357C5.12889 15.2357 5.17837 15.2231 5.22245 15.1988C5.26652 15.1746 5.30377 15.1397 5.33075 15.0972L5.40483 14.9798C6.16312 16.2303 7.17599 17.3073 8.37767 18.1409C7.0998 17.9635 5.87755 17.5035 4.79985 16.7943C3.72214 16.0851 2.81608 15.1446 2.1476 14.0412ZM10.7422 18.1409C12.2393 17.101 13.4383 15.6877 14.2203 14.0412H16.972C16.3035 15.1445 15.3975 16.085 14.3199 16.7942C13.2422 17.5033 12.02 17.9634 10.7422 18.1409Z" fill="#20CAEB"/>
<path d="M6.57243 9.8587C6.57243 9.56326 6.48483 9.27446 6.32069 9.02882C6.15656 8.78318 5.92327 8.59172 5.65032 8.47866C5.37738 8.36561 5.07704 8.33603 4.78728 8.39366C4.49753 8.4513 4.23137 8.59356 4.02247 8.80247C3.81356 9.01137 3.6713 9.27753 3.61366 9.56728C3.55603 9.85704 3.58561 10.1574 3.69867 10.4303C3.81172 10.7033 4.00318 10.9366 4.24882 11.1007C4.49447 11.2648 4.78326 11.3524 5.0787 11.3524C5.47471 11.352 5.85438 11.1944 6.1344 10.9144C6.41443 10.6344 6.57196 10.2547 6.57243 9.8587ZM4.18246 9.8587C4.18246 9.68144 4.23502 9.50816 4.3335 9.36077C4.43198 9.21338 4.57195 9.09851 4.73572 9.03068C4.89949 8.96284 5.07969 8.94509 5.25354 8.97968C5.4274 9.01426 5.58709 9.09962 5.71243 9.22496C5.83778 9.3503 5.92313 9.50999 5.95772 9.68385C5.9923 9.8577 5.97455 10.0379 5.90672 10.2017C5.83888 10.3654 5.72401 10.5054 5.57662 10.6039C5.42923 10.7024 5.25596 10.7549 5.0787 10.7549C4.841 10.7549 4.61304 10.6605 4.44496 10.4924C4.27688 10.3244 4.18246 10.0964 4.18246 9.8587Z" fill="#20CAEB"/>
<path d="M15.5348 5.07872C15.8303 5.07872 16.1191 4.99111 16.3647 4.82698C16.6104 4.66284 16.8018 4.42955 16.9149 4.15661C17.0279 3.88367 17.0575 3.58333 16.9999 3.29357C16.9422 3.00381 16.8 2.73766 16.5911 2.52875C16.3822 2.31985 16.116 2.17759 15.8263 2.11995C15.5365 2.06231 15.2362 2.09189 14.9632 2.20495C14.6903 2.31801 14.457 2.50947 14.2928 2.75511C14.1287 3.00075 14.0411 3.28955 14.0411 3.58498C14.0416 3.981 14.1991 4.36066 14.4791 4.64069C14.7592 4.92072 15.1388 5.07824 15.5348 5.07872ZM15.5348 2.68874C15.7121 2.68874 15.8854 2.74131 16.0328 2.83979C16.1802 2.93827 16.295 3.07824 16.3629 3.24201C16.4307 3.40577 16.4484 3.58598 16.4139 3.75983C16.3793 3.93368 16.2939 4.09338 16.1686 4.21872C16.0432 4.34406 15.8835 4.42942 15.7097 4.464C15.5358 4.49858 15.3556 4.48084 15.1919 4.413C15.0281 4.34517 14.8881 4.23029 14.7896 4.08291C14.6912 3.93552 14.6386 3.76224 14.6386 3.58498C14.6386 3.34729 14.733 3.11932 14.9011 2.95124C15.0692 2.78317 15.2971 2.68874 15.5348 2.68874Z" fill="#20CAEB"/>
</svg>
