<svg width="14" height="15" viewBox="0 0 14 15" xmlns="http://www.w3.org/2000/svg">
<mask id="mask0" mask-type="alpha" maskUnits="userSpaceOnUse" x="0" y="0" width="14" height="15">
<path fill-rule="evenodd" clip-rule="evenodd" d="M0.333984 0.333618H13.1906V14.1476H0.333984V0.333618Z" />
</mask>
<g mask="url(#mask0)">
<path fill-rule="evenodd" clip-rule="evenodd" d="M3.80216 10.627C3.95483 10.627 4.1075 10.6463 4.25683 10.6863C4.7075 10.8076 5.09883 11.109 5.33083 11.5136C5.4815 11.7676 5.56483 12.0643 5.5675 12.367C5.5675 12.8003 5.9155 13.1476 6.3435 13.1476H7.17883C7.60483 13.1476 7.95283 12.8023 7.95483 12.3763C7.95216 11.9056 8.13616 11.4583 8.47283 11.1216C8.80483 10.7896 9.26883 10.5903 9.73283 10.6036C10.0368 10.611 10.3295 10.693 10.5875 10.8396C10.9588 11.0523 11.4328 10.9256 11.6475 10.559L12.0902 9.82095C12.1888 9.65095 12.2175 9.43762 12.1648 9.24095C12.1128 9.04429 11.9822 8.87362 11.8062 8.77295C11.3942 8.53562 11.1002 8.15295 10.9782 7.69429C10.8575 7.24429 10.9235 6.75295 11.1588 6.34829C11.3122 6.08162 11.5368 5.85695 11.8062 5.70228C12.1675 5.49095 12.2942 5.01828 12.0842 4.65028C12.0755 4.63562 12.0675 4.62029 12.0608 4.60428L11.6702 3.92695C11.4575 3.55695 10.9842 3.42962 10.6128 3.64095C10.2115 3.87828 9.73416 3.94628 9.2755 3.82562C8.8175 3.70695 8.4335 3.41695 8.19416 3.00762C8.04083 2.75162 7.9575 2.45362 7.95483 2.15028C7.96083 1.92228 7.88083 1.71762 7.7355 1.56762C7.59083 1.41828 7.3875 1.33362 7.17883 1.33362H6.3435C6.13683 1.33362 5.9435 1.41428 5.7975 1.55962C5.65216 1.70562 5.57283 1.89962 5.57416 2.10628C5.56016 3.08095 4.7635 3.86562 3.79883 3.86562C3.4895 3.86228 3.1915 3.77895 2.93283 3.62428C2.5695 3.41762 2.09483 3.54495 1.88216 3.91495L1.43083 4.65695C1.22416 5.01562 1.35083 5.48962 1.71883 5.70362C2.26483 6.01962 2.6055 6.60895 2.6055 7.24095C2.6055 7.87295 2.26483 8.46162 1.7175 8.77829C1.3515 8.99028 1.22483 9.46162 1.43683 9.82829L1.8575 10.5536C1.9615 10.741 2.1315 10.8763 2.32816 10.9316C2.52416 10.9863 2.74016 10.963 2.92016 10.863C3.18483 10.7076 3.49283 10.627 3.80216 10.627ZM7.17886 14.1476H6.34353C5.3642 14.1476 4.56753 13.3516 4.56753 12.3723C4.5662 12.2516 4.53153 12.1263 4.46686 12.0176C4.3622 11.835 4.19286 11.7043 3.99753 11.6523C3.80353 11.6003 3.59086 11.629 3.4162 11.7303C2.99753 11.9636 2.50486 12.0203 2.0542 11.8936C1.6042 11.7663 1.21553 11.457 0.987531 11.047L0.570864 10.329C0.0835309 9.48362 0.373531 8.40028 1.21753 7.91228C1.45686 7.77428 1.60553 7.51695 1.60553 7.24095C1.60553 6.96495 1.45686 6.70695 1.21753 6.56895C0.372864 6.07828 0.0835309 4.99228 0.570198 4.14695L1.0222 3.40495C1.50286 2.56895 2.58953 2.27428 3.43686 2.76095C3.5522 2.82962 3.67753 2.86428 3.80486 2.86562C4.2202 2.86562 4.56753 2.52295 4.5742 2.10162C4.57153 1.63695 4.75486 1.19095 5.08886 0.854285C5.4242 0.518285 5.86953 0.333618 6.34353 0.333618H7.17886C7.6562 0.333618 8.1202 0.529618 8.45286 0.870285C8.78486 1.21295 8.9682 1.68295 8.9542 2.15962C8.95553 2.26695 8.99086 2.39095 9.05486 2.49962C9.16086 2.67962 9.3282 2.80628 9.52686 2.85828C9.72553 2.90762 9.93353 2.88095 10.1102 2.77628C10.9635 2.28895 12.0495 2.58095 12.5369 3.42762L12.9522 4.14695C12.9629 4.16628 12.9722 4.18495 12.9802 4.20429C13.4215 5.03829 13.1269 6.08828 12.3069 6.56762C12.1875 6.63628 12.0909 6.73229 12.0242 6.84829C11.9209 7.02762 11.8922 7.24095 11.9442 7.43695C11.9975 7.63695 12.1249 7.80295 12.3042 7.90562C12.7089 8.13829 13.0109 8.53028 13.1315 8.98295C13.2522 9.43495 13.1862 9.92562 12.9509 10.3303L12.5082 11.0676C12.0209 11.905 10.9349 12.195 10.0902 11.707C9.97753 11.6423 9.84753 11.607 9.7182 11.6036H9.7142C9.52153 11.6036 9.32353 11.6856 9.17953 11.829C9.03353 11.975 8.95353 12.1696 8.95486 12.3763C8.9502 13.3556 8.15353 14.1476 7.17886 14.1476Z"/>
</g>
<path fill-rule="evenodd" clip-rule="evenodd" d="M6.76319 5.98315C6.06986 5.98315 5.50586 6.54782 5.50586 7.24115C5.50586 7.93449 6.06986 8.49782 6.76319 8.49782C7.45653 8.49782 8.02053 7.93449 8.02053 7.24115C8.02053 6.54782 7.45653 5.98315 6.76319 5.98315ZM6.76319 9.49782C5.51853 9.49782 4.50586 8.48582 4.50586 7.24115C4.50586 5.99649 5.51853 4.98315 6.76319 4.98315C8.00786 4.98315 9.02053 5.99649 9.02053 7.24115C9.02053 8.48582 8.00786 9.49782 6.76319 9.49782Z"/>
</svg>
