<svg width="15" height="13" viewBox="0 0 15 13" fill="none" xmlns="http://www.w3.org/2000/svg">
<path d="M14.7684 0.347443C14.5852 0.123367 14.3107 0 13.9956 0C13.8243 0 13.6428 0.0360489 13.4562 0.107346L0.758996 4.95426C0.0851676 5.21141 -0.00558406 5.59731 0.000252424 5.80444C0.0060889 6.01158 0.118584 6.39175 0.805916 6.61045C0.810036 6.61171 0.814156 6.61297 0.818276 6.61411L3.45202 7.36782L4.87635 11.4408C5.07056 11.996 5.50646 12.341 6.01412 12.341C6.33421 12.341 6.64904 12.2068 6.92461 11.9532L8.55368 10.4533L10.9165 12.3558C10.9168 12.3561 10.9171 12.3562 10.9173 12.3564L10.9398 12.3745C10.9418 12.3761 10.944 12.3778 10.9461 12.3794C11.2087 12.5831 11.4954 12.6907 11.7754 12.6908H11.7755C12.3227 12.6908 12.7584 12.2858 12.8853 11.6591L14.9657 1.38645C15.0492 0.974121 14.9792 0.605164 14.7684 0.347443ZM4.3331 7.22466L9.41439 4.62879L6.25044 7.99072C6.1986 8.04577 6.16187 8.11317 6.14378 8.18653L5.5337 10.6578L4.3331 7.22466ZM6.32918 11.3066C6.30812 11.326 6.28695 11.3433 6.26578 11.3592L6.8318 9.0667L7.86143 9.89582L6.32918 11.3066ZM14.1043 1.21193L12.0239 11.4847C12.0038 11.583 11.9399 11.8118 11.7754 11.8118C11.6942 11.8118 11.5921 11.7675 11.4876 11.687L8.81014 9.53121C8.8098 9.53087 8.80934 9.53053 8.80888 9.5303L7.21575 8.24741L11.7912 3.38562C11.9377 3.22998 11.951 2.9916 11.8227 2.82063C11.6943 2.64965 11.4616 2.59586 11.2713 2.69314L3.7459 6.53767L1.07634 5.77389L13.7697 0.928459C13.8769 0.887489 13.9517 0.878906 13.9956 0.878906C14.0225 0.878906 14.0703 0.882111 14.088 0.903969C14.1114 0.932465 14.1411 1.02962 14.1043 1.21193Z" fill="white"/>
</svg>
