<svg width="24" height="24" viewBox="0 0 24 24" fill="none" xmlns="http://www.w3.org/2000/svg">
<path d="M3.375 23.25H17.25C18.442 23.2501 19.5985 22.8446 20.5294 22.1001C21.4602 21.3556 22.11 20.3164 22.3719 19.1536C22.6337 17.9907 22.492 16.7733 21.97 15.7017C21.4481 14.6301 20.577 13.768 19.5 13.2572V5.625C19.5 5.57575 19.4903 5.52699 19.4715 5.48149C19.4526 5.43599 19.425 5.39465 19.3902 5.35983L14.8902 0.859828C14.8554 0.825007 14.814 0.797385 14.7685 0.778541C14.723 0.759696 14.6742 0.749998 14.625 0.75H3.375C2.87789 0.750558 2.4013 0.948282 2.04979 1.29979C1.69828 1.6513 1.50056 2.12789 1.5 2.625V21.375C1.50056 21.8721 1.69828 22.3487 2.04979 22.7002C2.4013 23.0517 2.87789 23.2494 3.375 23.25ZM21.75 18C21.75 18.89 21.4861 19.76 20.9916 20.5001C20.4971 21.2401 19.7943 21.8169 18.9721 22.1575C18.1498 22.4981 17.245 22.5872 16.3721 22.4135C15.4992 22.2399 14.6974 21.8113 14.068 21.182C13.4387 20.5526 13.0101 19.7508 12.8365 18.8779C12.6628 18.005 12.7519 17.1002 13.0925 16.2779C13.4331 15.4557 14.0099 14.7529 14.7499 14.2584C15.49 13.7639 16.36 13.5 17.25 13.5C18.4431 13.5013 19.5869 13.9759 20.4305 14.8195C21.2741 15.6631 21.7487 16.8069 21.75 18ZM15 2.0303L18.2197 5.25H16.125C15.8267 5.24966 15.5408 5.13103 15.3299 4.92013C15.119 4.70922 15.0003 4.42327 15 4.125V2.0303ZM2.25 2.625C2.25035 2.32674 2.36899 2.04079 2.57989 1.82989C2.79079 1.61899 3.07674 1.50035 3.375 1.5H14.25V4.125C14.2506 4.62211 14.4483 5.0987 14.7998 5.45021C15.1513 5.80172 15.6279 5.99944 16.125 6H18.75V12.9687C17.5247 12.6031 16.2082 12.6973 15.0474 13.2336C13.8867 13.7699 12.9616 14.7115 12.4459 15.8815C11.9301 17.0515 11.8592 18.3695 12.2463 19.5881C12.6335 20.8068 13.4521 21.8422 14.5485 22.5H3.375C3.07674 22.4997 2.79079 22.381 2.57989 22.1701C2.36899 21.9592 2.25035 21.6733 2.25 21.375V2.625Z" fill="#20CAEB"/>
<path d="M7.5 7.875C7.5 7.97446 7.53951 8.06984 7.60983 8.14017C7.68016 8.21049 7.77554 8.25 7.875 8.25H16.875C16.9745 8.25 17.0698 8.21049 17.1402 8.14017C17.2105 8.06984 17.25 7.97446 17.25 7.875C17.25 7.77554 17.2105 7.68016 17.1402 7.60983C17.0698 7.53951 16.9745 7.5 16.875 7.5H7.875C7.77554 7.5 7.68016 7.53951 7.60983 7.60983C7.53951 7.68016 7.5 7.77554 7.5 7.875Z" fill="#20CAEB"/>
<path d="M4.125 10.5H11.625C11.7245 10.5 11.8198 10.4605 11.8902 10.3902C11.9605 10.3198 12 10.2245 12 10.125C12 10.0255 11.9605 9.93016 11.8902 9.85983C11.8198 9.78951 11.7245 9.75 11.625 9.75H4.125C4.02554 9.75 3.93016 9.78951 3.85984 9.85983C3.78951 9.93016 3.75 10.0255 3.75 10.125C3.75 10.2245 3.78951 10.3198 3.85984 10.3902C3.93016 10.4605 4.02554 10.5 4.125 10.5Z" fill="#20CAEB"/>
<path d="M13.125 12H10.125C10.0255 12 9.93016 12.0395 9.85983 12.1098C9.78951 12.1802 9.75 12.2755 9.75 12.375C9.75 12.4745 9.78951 12.5698 9.85983 12.6402C9.93016 12.7105 10.0255 12.75 10.125 12.75H13.125C13.2245 12.75 13.3198 12.7105 13.3902 12.6402C13.4605 12.5698 13.5 12.4745 13.5 12.375C13.5 12.2755 13.4605 12.1802 13.3902 12.1098C13.3198 12.0395 13.2245 12 13.125 12Z" fill="#20CAEB"/>
<path d="M4.125 15H10.875C10.9745 15 11.0698 14.9605 11.1402 14.8902C11.2105 14.8198 11.25 14.7245 11.25 14.625C11.25 14.5255 11.2105 14.4302 11.1402 14.3598C11.0698 14.2895 10.9745 14.25 10.875 14.25H4.125C4.02554 14.25 3.93016 14.2895 3.85984 14.3598C3.78951 14.4302 3.75 14.5255 3.75 14.625C3.75 14.7245 3.78951 14.8198 3.85984 14.8902C3.93016 14.9605 4.02554 15 4.125 15Z" fill="#20CAEB"/>
<path d="M4.125 8.25H6.375C6.47446 8.25 6.56984 8.21049 6.64017 8.14017C6.71049 8.06984 6.75 7.97446 6.75 7.875C6.75 7.77554 6.71049 7.68016 6.64017 7.60983C6.56984 7.53951 6.47446 7.5 6.375 7.5H4.125C4.02554 7.5 3.93016 7.53951 3.85984 7.60983C3.78951 7.68016 3.75 7.77554 3.75 7.875C3.75 7.97446 3.78951 8.06984 3.85984 8.14017C3.93016 8.21049 4.02554 8.25 4.125 8.25Z" fill="#20CAEB"/>
<path d="M16.875 9.75H13.125C13.0255 9.75 12.9302 9.78951 12.8598 9.85983C12.7895 9.93016 12.75 10.0255 12.75 10.125C12.75 10.2245 12.7895 10.3198 12.8598 10.3902C12.9302 10.4605 13.0255 10.5 13.125 10.5H16.875C16.9745 10.5 17.0698 10.4605 17.1402 10.3902C17.2105 10.3198 17.25 10.2245 17.25 10.125C17.25 10.0255 17.2105 9.93016 17.1402 9.85983C17.0698 9.78951 16.9745 9.75 16.875 9.75Z" fill="#20CAEB"/>
<path d="M4.125 12.75H8.625C8.72446 12.75 8.81984 12.7105 8.89017 12.6402C8.96049 12.5698 9 12.4745 9 12.375C9 12.2755 8.96049 12.1802 8.89017 12.1098C8.81984 12.0395 8.72446 12 8.625 12H4.125C4.02554 12 3.93016 12.0395 3.85984 12.1098C3.78951 12.1802 3.75 12.2755 3.75 12.375C3.75 12.4745 3.78951 12.5698 3.85984 12.6402C3.93016 12.7105 4.02554 12.75 4.125 12.75Z" fill="#20CAEB"/>
<path d="M10.125 18.75H8.625C8.52554 18.75 8.43016 18.7895 8.35983 18.8598C8.28951 18.9302 8.25 19.0255 8.25 19.125C8.25 19.2245 8.28951 19.3198 8.35983 19.3902C8.43016 19.4605 8.52554 19.5 8.625 19.5H10.125C10.2245 19.5 10.3198 19.4605 10.3902 19.3902C10.4605 19.3198 10.5 19.2245 10.5 19.125C10.5 19.0255 10.4605 18.9302 10.3902 18.8598C10.3198 18.7895 10.2245 18.75 10.125 18.75Z" fill="#20CAEB"/>
<path d="M4.125 19.5H7.125C7.22446 19.5 7.31984 19.4605 7.39017 19.3902C7.46049 19.3198 7.5 19.2245 7.5 19.125C7.5 19.0255 7.46049 18.9302 7.39017 18.8598C7.31984 18.7895 7.22446 18.75 7.125 18.75H4.125C4.02554 18.75 3.93016 18.7895 3.85984 18.8598C3.78951 18.9302 3.75 19.0255 3.75 19.125C3.75 19.2245 3.78951 19.3198 3.85984 19.3902C3.93016 19.4605 4.02554 19.5 4.125 19.5Z" fill="#20CAEB"/>
<path d="M4.125 17.25H6.375C6.47446 17.25 6.56984 17.2105 6.64017 17.1402C6.71049 17.0698 6.75 16.9745 6.75 16.875C6.75 16.7755 6.71049 16.6802 6.64017 16.6098C6.56984 16.5395 6.47446 16.5 6.375 16.5H4.125C4.02554 16.5 3.93016 16.5395 3.85984 16.6098C3.78951 16.6802 3.75 16.7755 3.75 16.875C3.75 16.9745 3.78951 17.0698 3.85984 17.1402C3.93016 17.2105 4.02554 17.25 4.125 17.25Z" fill="#20CAEB"/>
<path d="M4.125 6H8.625C8.72446 6 8.81984 5.96049 8.89017 5.89016C8.96049 5.81984 9 5.72446 9 5.625C9 5.52554 8.96049 5.43016 8.89017 5.35984C8.81984 5.28951 8.72446 5.25 8.625 5.25H4.125C4.02554 5.25 3.93016 5.28951 3.85984 5.35984C3.78951 5.43016 3.75 5.52554 3.75 5.625C3.75 5.72446 3.78951 5.81984 3.85984 5.89016C3.93016 5.96049 4.02554 6 4.125 6Z" fill="#20CAEB"/>
<path d="M10.125 16.5H7.875C7.77554 16.5 7.68016 16.5395 7.60983 16.6098C7.53951 16.6802 7.5 16.7755 7.5 16.875C7.5 16.9745 7.53951 17.0698 7.60983 17.1402C7.68016 17.2105 7.77554 17.25 7.875 17.25H10.125C10.2245 17.25 10.3198 17.2105 10.3902 17.1402C10.4605 17.0698 10.5 16.9745 10.5 16.875C10.5 16.7755 10.4605 16.6802 10.3902 16.6098C10.3198 16.5395 10.2245 16.5 10.125 16.5Z" fill="#20CAEB"/>
<path d="M15.2652 18.8599C15.2304 18.8251 15.189 18.7974 15.1435 18.7786C15.098 18.7597 15.0493 18.75 15 18.75C14.9508 18.75 14.902 18.7597 14.8565 18.7786C14.811 18.7974 14.7697 18.8251 14.7348 18.8599C14.7 18.8947 14.6724 18.936 14.6535 18.9815C14.6347 19.027 14.625 19.0758 14.625 19.125C14.625 19.1743 14.6347 19.2231 14.6535 19.2686C14.6724 19.3141 14.7 19.3554 14.7348 19.3902L16.2348 20.8902C16.2697 20.925 16.311 20.9527 16.3565 20.9715C16.402 20.9904 16.4508 21 16.5 21C16.5123 21 16.5247 20.9994 16.537 20.9982C16.5922 20.9928 16.6455 20.9751 16.6931 20.9465C16.7406 20.918 16.7813 20.8792 16.8121 20.8331L19.8121 16.3331C19.8666 16.2503 19.8862 16.1493 19.8665 16.0522C19.8468 15.9551 19.7894 15.8697 19.707 15.8147C19.6245 15.7597 19.5236 15.7396 19.4264 15.7588C19.3292 15.778 19.2435 15.8348 19.1881 15.917L16.4418 20.0364L15.2652 18.8599Z" fill="#20CAEB"/>
</svg>
