<svg width="21" height="21" viewBox="0 0 21 21" fill="none" xmlns="http://www.w3.org/2000/svg">
<g clip-path="url(#clip0)">
<path d="M15.0938 20.9982H2.4063C1.0789 20.9982 0 19.9193 0 18.5919V5.90447C0 4.57707 1.0789 3.49817 2.4063 3.49817H9.84375C10.206 3.49817 10.5 3.79217 10.5 4.15442C10.5 4.51667 10.206 4.81067 9.84375 4.81067H2.4063C1.80341 4.81067 1.3125 5.30157 1.3125 5.90447V18.5919C1.3125 19.1948 1.80341 19.6857 2.4063 19.6857H15.0938C15.6966 19.6857 16.1876 19.1948 16.1876 18.5919V11.1545C16.1876 10.7922 16.4816 10.4982 16.8438 10.4982C17.2061 10.4982 17.5001 10.7914 17.5001 11.1545V18.5919C17.5001 19.9193 16.4212 20.9982 15.0938 20.9982Z" fill="white"/>
<path d="M7.67544 13.979C7.50304 13.979 7.33497 13.9107 7.21161 13.7866C7.05588 13.6316 6.98939 13.4085 7.03232 13.1941L7.65092 10.1001C7.67624 9.97245 7.7392 9.85597 7.83021 9.76497L16.8927 0.703554C17.8307 -0.234518 19.3567 -0.234518 20.2956 0.703554C20.7497 1.15761 20.9999 1.76147 20.9999 2.40458C20.9999 3.04769 20.7497 3.65139 20.2946 4.10561L11.2332 13.168C11.1422 13.2598 11.0249 13.3219 10.898 13.3473L7.80489 13.9659C7.76195 13.9747 7.71821 13.979 7.67544 13.979ZM10.7694 12.7042H10.7782H10.7694ZM8.8987 10.5526L8.51273 12.4863L10.4456 12.0995L19.3671 3.17811C19.5737 2.97063 19.6874 2.69682 19.6874 2.40458C19.6874 2.11235 19.5737 1.83837 19.3671 1.63105C18.9419 1.20487 18.248 1.20487 17.8202 1.63105L8.8987 10.5526Z" fill="white"/>
<path d="M18.5934 5.53618C18.4255 5.53618 18.2574 5.47225 18.1297 5.3436L15.6552 2.86824C15.3988 2.61189 15.3988 2.19629 15.6552 1.93994C15.9115 1.68359 16.3271 1.68359 16.5836 1.93994L19.058 4.4153C19.3144 4.67165 19.3144 5.08725 19.058 5.3436C18.9293 5.47145 18.7614 5.53618 18.5934 5.53618Z" fill="white"/>
</g>
<defs>
<clipPath id="clip0">
<rect width="21" height="21" fill="white"/>
</clipPath>
</defs>
</svg>
