<svg width="22" height="22" viewBox="0 0 22 22" fill="none" xmlns="http://www.w3.org/2000/svg">
<path d="M20.4214 6.02525C20.7167 5.42994 20.9021 4.7862 20.9687 4.125C20.9696 3.55447 20.8125 2.99483 20.5147 2.50815C20.217 2.02148 19.7902 1.6268 19.2818 1.36789C18.7734 1.10899 18.2032 0.995985 17.6345 1.04141C17.0658 1.08684 16.5208 1.28893 16.0599 1.62525C13.811 0.411495 11.2009 0.0461403 8.70514 0.595767C6.20942 1.14539 3.99423 2.57341 2.46327 4.6196C0.932298 6.66579 0.18746 9.19393 0.364484 11.7433C0.541507 14.2927 1.62861 16.6936 3.42768 18.5086C5.22676 20.3236 7.61805 21.4317 10.1658 21.6311C12.7135 21.8306 15.2481 21.108 17.3077 19.595C19.3672 18.0821 20.8147 15.8796 21.3862 13.3888C21.9578 10.898 21.6153 8.28473 20.4214 6.02525ZM1.03974 11.3438H2.7499C2.7499 12.2791 3.63918 14.0728 4.42087 15.4688H2.09299C1.44684 14.1864 1.08745 12.7789 1.03974 11.3438ZM11.3437 1.2846C12.723 2.11473 13.9109 3.22771 14.8289 4.55022C14.9275 4.99404 15.0688 5.42724 15.2511 5.84375H11.3437V1.2846ZM14.8582 3.44816C14.1406 2.56087 13.3012 1.77947 12.3649 1.12716C13.4659 1.27938 14.5337 1.61482 15.524 2.11957C15.197 2.50152 14.9685 2.95763 14.8582 3.44816ZM10.6562 5.84375H6.39365C7.35879 3.95409 8.83584 2.37389 10.6562 1.28357V5.84375ZM10.6562 6.53125V10.6563H8.85765C8.70139 9.97345 8.31829 9.36377 7.77089 8.92675C7.22348 8.48973 6.54411 8.25116 5.84365 8.25C5.72577 8.25043 5.60801 8.25766 5.49096 8.27166C5.63831 7.67674 5.8335 7.09471 6.07465 6.53125H10.6562ZM8.9374 11.3438H10.6562V15.4688H7.26643C8.04812 14.0728 8.9374 12.2791 8.9374 11.3438ZM4.74365 8.45625C4.26869 8.63791 3.84569 8.93359 3.51192 9.31723C3.17814 9.70088 2.94384 10.1607 2.82965 10.6563H1.03974C1.08745 9.22113 1.44684 7.81357 2.09299 6.53125H5.33249C5.08288 7.15538 4.88591 7.79929 4.74365 8.45625ZM3.4374 11.3438C3.4374 10.7056 3.69091 10.0935 4.14217 9.64228C4.59343 9.19102 5.20547 8.9375 5.84365 8.9375C6.48183 8.9375 7.09387 9.19102 7.54513 9.64228C7.99639 10.0935 8.2499 10.7056 8.2499 11.3438C8.2499 12.3778 6.71196 15.1126 5.84365 16.5344C4.97534 15.1126 3.4374 12.3778 3.4374 11.3438ZM6.87249 16.1563H10.6562V20.7127C8.97702 19.7047 7.58825 18.2781 6.62568 16.5725C6.70302 16.4443 6.78552 16.3051 6.87249 16.1563ZM11.3437 16.1563H15.6003C14.6353 18.0433 13.1606 19.6221 11.3437 20.7133V16.1563ZM11.3437 15.4688V11.3438H16.832C16.7905 12.7636 16.4823 14.1629 15.9234 15.4688H11.3437ZM17.5195 11.3438H20.9601C20.9124 12.7789 20.553 14.1864 19.9068 15.4688H16.6635C17.19 14.155 17.4798 12.7585 17.5195 11.3438ZM20.957 10.6563H11.3437V6.53125H15.558C16.1669 7.77488 16.844 8.98397 17.5862 10.153C17.6172 10.2018 17.66 10.2421 17.7108 10.2699C17.7615 10.2978 17.8184 10.3124 17.8763 10.3124C17.9341 10.3124 17.9911 10.2978 18.0418 10.2699C18.0925 10.2421 18.1354 10.2018 18.1664 10.153C18.3383 9.88385 19.3008 8.35038 20.0529 6.8231C20.606 8.02808 20.9135 9.33114 20.9577 10.6563H20.957ZM20.2812 4.125C20.2812 5.15935 18.7432 7.89388 17.8749 9.31735C17.0066 7.89422 15.4687 5.15969 15.4687 4.125C15.4687 3.48683 15.7222 2.87479 16.1734 2.42353C16.6247 1.97227 17.2367 1.71875 17.8749 1.71875C18.5131 1.71875 19.1251 1.97227 19.5764 2.42353C20.0276 2.87479 20.2812 3.48683 20.2812 4.125ZM9.62903 1.12785C7.90778 2.32361 6.52998 3.9496 5.63293 5.84375H2.47043C3.23873 4.57557 4.27979 3.49438 5.51801 2.67867C6.75623 1.86296 8.16055 1.3332 9.62903 1.12785ZM2.47112 16.1563H4.81481C5.17677 16.775 5.46793 17.2353 5.55352 17.3714C5.58456 17.4202 5.62742 17.4605 5.67814 17.4883C5.72886 17.5162 5.78578 17.5308 5.84365 17.5308C5.90152 17.5308 5.95844 17.5162 6.00916 17.4883C6.05988 17.4605 6.10274 17.4202 6.13377 17.3714L6.21902 17.2363C7.09153 18.6752 8.25699 19.9144 9.63968 20.8735C8.16932 20.6694 6.76295 20.1401 5.5229 19.3241C4.28285 18.5081 3.2403 17.4259 2.47112 16.1563ZM12.3605 20.8735C14.083 19.677 15.4627 18.0508 16.3624 16.1563H19.5287C18.7595 17.4258 17.717 18.508 16.477 19.324C15.237 20.14 13.8307 20.6693 12.3605 20.8735Z" fill="white"/>
<path d="M7.5625 11.3438C7.5625 11.0038 7.4617 10.6715 7.27284 10.3889C7.08398 10.1062 6.81555 9.88592 6.50149 9.75583C6.18743 9.62574 5.84184 9.59171 5.50844 9.65803C5.17503 9.72434 4.86878 9.88804 4.62841 10.1284C4.38804 10.3688 4.22434 10.675 4.15803 11.0084C4.09171 11.3418 4.12574 11.6874 4.25583 12.0015C4.38592 12.3155 4.60622 12.584 4.88886 12.7728C5.17151 12.9617 5.50381 13.0625 5.84375 13.0625C6.29942 13.062 6.73628 12.8807 7.05849 12.5585C7.3807 12.2363 7.56195 11.7994 7.5625 11.3438ZM4.8125 11.3438C4.8125 11.1398 4.87298 10.9404 4.9863 10.7708C5.09961 10.6012 5.26067 10.4691 5.44911 10.391C5.63754 10.3129 5.8449 10.2925 6.04494 10.3323C6.24498 10.3721 6.42873 10.4703 6.57295 10.6145C6.71718 10.7588 6.81539 10.9425 6.85519 11.1426C6.89498 11.3426 6.87455 11.55 6.7965 11.7384C6.71845 11.9268 6.58627 12.0879 6.41668 12.2012C6.24709 12.3145 6.04771 12.375 5.84375 12.375C5.57025 12.375 5.30794 12.2664 5.11455 12.073C4.92115 11.8796 4.8125 11.6173 4.8125 11.3438Z" fill="white"/>
<path d="M17.875 5.84375C18.2149 5.84375 18.5472 5.74295 18.8299 5.55409C19.1125 5.36523 19.3328 5.0968 19.4629 4.78274C19.593 4.46868 19.627 4.12309 19.5607 3.78969C19.4944 3.45628 19.3307 3.15003 19.0903 2.90966C18.85 2.66929 18.5437 2.50559 18.2103 2.43928C17.8769 2.37296 17.5313 2.40699 17.2173 2.53708C16.9032 2.66717 16.6348 2.88747 16.4459 3.17011C16.2571 3.45276 16.1562 3.78506 16.1562 4.125C16.1568 4.58067 16.3381 5.01753 16.6603 5.33974C16.9825 5.66195 17.4193 5.8432 17.875 5.84375ZM17.875 3.09375C18.079 3.09375 18.2783 3.15423 18.4479 3.26755C18.6175 3.38086 18.7497 3.54192 18.8278 3.73036C18.9058 3.91879 18.9262 4.12614 18.8864 4.32619C18.8466 4.52623 18.7484 4.70998 18.6042 4.8542C18.46 4.99843 18.2762 5.09664 18.0762 5.13644C17.8761 5.17623 17.6688 5.1558 17.4804 5.07775C17.2919 4.9997 17.1309 4.86752 17.0175 4.69793C16.9042 4.52834 16.8438 4.32896 16.8438 4.125C16.8438 3.8515 16.9524 3.58919 17.1458 3.3958C17.3392 3.2024 17.6015 3.09375 17.875 3.09375Z" fill="white"/>
</svg>
