<svg width="20" height="26" viewBox="0 0 20 26" fill="none" xmlns="http://www.w3.org/2000/svg">
<path d="M17.6121 3.04657C17.2369 3.04657 16.8854 3.14918 16.5835 3.32731C16.4702 2.31387 15.6086 1.52328 14.5655 1.52328C14.1903 1.52328 13.8388 1.6259 13.537 1.80402C13.4236 0.790584 12.562 0 11.5189 0C10.4758 0 9.61416 0.790584 9.50088 1.80402C9.19896 1.6259 8.84749 1.52328 8.47236 1.52328C7.35244 1.52328 6.44131 2.43441 6.44131 3.55433V16.4342C5.38222 15.1904 4.08682 13.7683 3.95003 13.6184C3.56276 13.1525 2.99412 12.8856 2.38745 12.8856C1.26809 12.8856 0.357422 13.797 0.357422 14.9174C0.357422 15.385 0.521023 15.842 0.818063 16.2041C1.85125 17.4636 2.75837 18.7005 3.5588 19.7918C5.6132 22.593 7.23596 24.8055 9.5943 25.6508C9.65092 25.671 9.70875 25.6807 9.76562 25.6807C9.97396 25.6807 10.1693 25.5514 10.2436 25.3441C10.3382 25.0801 10.2009 24.7894 9.93694 24.6948C7.87101 23.9544 6.3294 21.8524 4.37767 19.1912C3.56967 18.0895 2.65387 16.8409 1.60321 15.5601C1.45256 15.3764 1.37294 15.1542 1.37294 14.9174C1.37294 14.4286 1.76082 13.9011 2.38745 13.9011C2.69338 13.9011 2.98001 14.0367 3.17377 14.2732C3.17951 14.2803 3.18545 14.2871 3.19159 14.2938C3.21475 14.3192 5.42021 16.7364 6.46244 18.0532C6.52464 18.2633 6.71885 18.4168 6.94912 18.4168C6.95836 18.4168 6.96735 18.4159 6.97649 18.4154C6.98441 18.4158 6.99223 18.4168 7.0002 18.4168L8.52394 18.3988C8.53715 18.3986 8.5503 18.3986 8.5634 18.3986C10.3613 18.3986 11.8414 19.8616 11.8627 21.6599C11.866 21.9383 12.0926 22.1616 12.3703 22.1616H12.3764C12.6568 22.1583 12.8814 21.9283 12.8781 21.6479C12.8646 20.5042 12.409 19.4318 11.5952 18.6282C10.7822 17.8253 9.7054 17.383 8.5634 17.383C8.54588 17.383 8.52841 17.3831 8.5114 17.3833L7.45688 17.3958V3.55433C7.45688 2.99437 7.91245 2.5388 8.47241 2.5388C9.03236 2.5388 9.48793 2.99437 9.48793 3.55433V11.7801C9.48793 12.0605 9.7153 12.2878 9.99569 12.2878C10.2761 12.2878 10.5035 12.0605 10.5035 11.7801V2.03104C10.5035 1.47108 10.959 1.01552 11.519 1.01552C12.0789 1.01552 12.5345 1.47108 12.5345 2.03104V11.7801C12.5345 12.0605 12.7619 12.2878 13.0423 12.2878C13.3226 12.2878 13.55 12.0605 13.55 11.7801V3.55433C13.55 2.99437 14.0056 2.5388 14.5655 2.5388C15.1255 2.5388 15.5811 2.99437 15.5811 3.55433V11.7801C15.5811 12.0605 15.8084 12.2878 16.0888 12.2878C16.3692 12.2878 16.5966 12.0605 16.5966 11.7801V5.07761C16.5966 4.51765 17.0521 4.06209 17.6121 4.06209C18.1721 4.06209 18.6276 4.51765 18.6276 5.07761V18.6348C18.6276 21.4425 16.8259 23.8816 14.1443 24.7039C13.8763 24.7861 13.7255 25.0701 13.8078 25.3383C13.8748 25.5568 14.0758 25.6973 14.2931 25.6973C14.3424 25.6973 14.3925 25.69 14.4421 25.6748C15.9166 25.2227 17.2411 24.291 18.1718 23.0516C19.1344 21.7695 19.6432 20.2422 19.6432 18.6348V5.07761C19.6431 3.95769 18.7319 3.04657 17.6121 3.04657Z" fill="white"/>
</svg>
