<svg width="20" height="28" viewBox="0 0 20 28" fill="none" xmlns="http://www.w3.org/2000/svg">
<path d="M14.633 19.96C13.9457 19.96 13.3222 19.61 12.965 19.0237C12.8309 18.8035 12.5438 18.7338 12.3237 18.8679C12.1037 19.0019 12.0339 19.2891 12.168 19.5092C12.4164 19.9169 12.7526 20.2462 13.144 20.4818L12.6604 22.6767L11.4943 21.334C11.706 21.0907 11.6549 20.8063 11.4726 20.6478C11.2782 20.4788 10.9834 20.4992 10.8142 20.6937L9.99372 21.6373L7.92686 19.3408C8.10273 19.003 8.20936 18.6323 8.23981 18.2459C12.24 19.4234 16.2414 16.4043 16.2414 12.2573V8.39998C16.2414 8.14227 16.0325 7.93332 15.7748 7.93332C15.5171 7.93332 15.3081 8.14227 15.3081 8.39998V12.2573C15.3081 15.1843 12.9268 17.5656 9.99978 17.5656C7.07274 17.5656 4.69146 15.1843 4.69146 12.2573V8.29685C5.82913 8.23227 6.79682 7.51798 7.14169 6.22345C9.08477 7.46782 11.2628 8.27404 13.5485 8.594C13.8047 8.6297 14.0398 8.45102 14.0754 8.19652C14.1111 7.94131 13.9332 7.70541 13.678 7.66965C11.3505 7.34386 9.07923 6.47277 7.06107 5.04407C6.75255 4.82556 6.32293 5.04786 6.32479 5.42796C6.32485 5.43957 6.32048 6.59696 5.44256 7.12511C4.8874 7.45913 4.32589 7.35127 4.22929 7.35022C3.99076 7.34794 3.78864 7.52691 3.76146 7.76298C3.75632 7.80813 3.75813 7.65443 3.75813 11.4972C3.4464 11.3355 3.23313 11.0138 3.23313 10.6435V4.95832C3.23313 4.34717 3.73031 3.84999 4.34146 3.84999C4.53227 3.84999 4.70389 3.73379 4.77476 3.55663C5.41223 1.96303 6.93309 0.933331 8.64949 0.933331H12.6516C14.9527 0.933331 16.8248 2.80542 16.8248 5.10655V10.6435C16.8248 10.9012 17.0337 11.1101 17.2914 11.1101C17.5492 11.1101 17.7581 10.9012 17.7581 10.6435V5.10655C17.7581 2.2908 15.4674 0 12.6516 0H8.64949C6.64749 0 4.86267 1.14508 4.02454 2.94122C3.04874 3.09399 2.2998 3.94035 2.2998 4.95832V10.6435C2.2998 11.5363 2.92443 12.2866 3.76286 12.488C3.84995 14.8715 5.27952 16.918 7.31646 17.892V18.015C7.31646 18.535 7.11369 19.0235 6.74555 19.3906C6.09263 20.0417 5.26984 19.96 5.36644 19.96C2.70434 19.96 0.549805 22.1142 0.549805 24.7766V27.5333C0.549805 27.791 0.758754 27.9999 1.01647 27.9999C1.27419 27.9999 1.48314 27.791 1.48314 27.5333V24.7766C1.48314 22.6303 3.22001 20.8933 5.36655 20.8933C5.57078 20.8933 5.77465 20.8716 5.97625 20.8285L6.62743 23.7837C6.70985 24.1579 7.18457 24.2781 7.43551 23.9892L8.3549 22.9306L7.7868 27.4754C7.75483 27.7311 7.93631 27.9644 8.19198 27.9963C8.44818 28.0282 8.68099 27.8465 8.71295 27.5911L9.36949 22.3388C9.39919 22.3717 9.65859 22.6626 9.69184 22.692C9.88446 22.861 10.1779 22.8439 10.3491 22.6507C10.4414 22.5451 10.2027 22.8194 10.629 22.3292L11.2867 27.5911C11.3186 27.8465 11.5514 28.0282 11.8077 27.9963C12.0634 27.9643 12.2449 27.7311 12.2129 27.4753L11.6448 22.9306L12.5642 23.9892C12.8155 24.2786 13.29 24.1572 13.3723 23.7836L14.0234 20.8283C14.2211 20.8703 14.4249 20.8932 14.6331 20.8932C16.7794 20.8933 18.5164 22.6301 18.5164 24.7766V27.5333C18.5164 27.791 18.7254 27.9999 18.9831 27.9999C19.2408 27.9999 19.4498 27.791 19.4498 27.5333V24.7766C19.4498 22.1145 17.2955 19.9599 14.633 19.96ZM7.33921 22.6767L6.85545 20.4811C7.03337 20.3737 7.20026 20.2458 7.35408 20.0995L8.48551 21.3567L7.33921 22.6767Z" fill="#EFD57A"/>
</svg>
