<svg width="21" height="21" viewBox="0 0 21 21" fill="none" xmlns="http://www.w3.org/2000/svg">
<g clip-path="url(#clip0)">
<path d="M17.9375 21C17.8237 21 17.7118 20.9554 17.6278 20.8722L15.3414 18.5859L13.461 20.8434C13.3822 20.9379 13.2676 20.9947 13.1442 21C13.0261 21.0088 12.9019 20.9597 12.8153 20.8722L10.5 18.5561L8.18475 20.8714C8.09725 20.9589 7.97562 21.0088 7.85575 21C7.73237 20.9947 7.61863 20.9379 7.539 20.8434L5.65863 18.5859L3.37225 20.8722C3.24625 20.9974 3.05988 21.035 2.89538 20.9667C2.73175 20.8994 2.625 20.7393 2.625 20.5625V2.1875C2.625 0.98175 3.60675 0 4.8125 0H16.1875C17.3933 0 18.375 0.98175 18.375 2.1875V20.5625C18.375 20.7393 18.2683 20.8994 18.1046 20.9667C18.0504 20.9895 17.9935 21 17.9375 21ZM10.5 17.5C10.612 17.5 10.724 17.5429 10.8097 17.6278L13.0961 19.9141L14.9765 17.6566C15.0552 17.5621 15.1699 17.5053 15.2933 17.5C15.4131 17.4886 15.5356 17.5403 15.6222 17.6278L17.5 19.5064V2.1875C17.5 1.46387 16.9111 0.875 16.1875 0.875H4.8125C4.08887 0.875 3.5 1.46387 3.5 2.1875V19.5064L5.37775 17.6286C5.46438 17.5411 5.58862 17.4895 5.70675 17.5009C5.83012 17.5061 5.94387 17.563 6.0235 17.6575L7.90387 19.915L10.1902 17.6286C10.276 17.5429 10.388 17.5 10.5 17.5Z" fill="white"/>
<path d="M7.875 8.75C6.90987 8.75 6.125 7.96512 6.125 7C6.125 6.03487 6.90987 5.25 7.875 5.25C8.84013 5.25 9.625 6.03487 9.625 7C9.625 7.96512 8.84013 8.75 7.875 8.75ZM7.875 6.125C7.39287 6.125 7 6.51787 7 7C7 7.48212 7.39287 7.875 7.875 7.875C8.35713 7.875 8.75 7.48212 8.75 7C8.75 6.51787 8.35713 6.125 7.875 6.125Z" fill="white"/>
<path d="M13.125 14C12.1599 14 11.375 13.2151 11.375 12.25C11.375 11.2849 12.1599 10.5 13.125 10.5C14.0901 10.5 14.875 11.2849 14.875 12.25C14.875 13.2151 14.0901 14 13.125 14ZM13.125 11.375C12.6429 11.375 12.25 11.7679 12.25 12.25C12.25 12.7321 12.6429 13.125 13.125 13.125C13.6071 13.125 14 12.7321 14 12.25C14 11.7679 13.6071 11.375 13.125 11.375Z" fill="white"/>
<path d="M7.43734 14C7.34372 14 7.24922 13.9702 7.16872 13.9081C6.97797 13.7602 6.94384 13.4855 7.09259 13.2939L13.2176 5.41888C13.3655 5.229 13.6411 5.194 13.8318 5.34275C14.0226 5.49063 14.0567 5.76538 13.908 5.957L7.78297 13.832C7.69634 13.9422 7.56684 14 7.43734 14Z" fill="white"/>
</g>
<defs>
<clipPath id="clip0">
<rect width="21" height="21" fill="white"/>
</clipPath>
</defs>
</svg>
