<svg width="22" height="22" viewBox="0 0 22 22" fill="none" xmlns="http://www.w3.org/2000/svg">
<path d="M12.0334 6.50967L12.0216 6.52145L5.53832 13.0047C5.5273 13.0158 5.51636 13.0267 5.5055 13.0375C5.34302 13.1996 5.19919 13.3432 5.09783 13.5222C4.99646 13.7012 4.94739 13.8984 4.89196 14.1211C4.88825 14.136 4.88452 14.151 4.88073 14.1662L4.30054 16.4869C4.29832 16.4958 4.29609 16.5047 4.29385 16.5137C4.25461 16.6703 4.2127 16.8377 4.19896 16.9782C4.18382 17.1329 4.18735 17.394 4.39676 17.6034C4.60617 17.8128 4.86722 17.8163 5.02196 17.8012C5.16249 17.7875 5.32983 17.7456 5.48652 17.7063C5.49546 17.7041 5.50436 17.7018 5.51322 17.6996L7.834 17.1194C7.84912 17.1156 7.86413 17.1119 7.87902 17.1082C8.10176 17.0528 8.29893 17.0037 8.47796 16.9023C8.65699 16.801 8.80052 16.6571 8.96265 16.4947C8.97349 16.4838 8.98441 16.4729 8.99543 16.4618L15.4787 9.97855L15.5006 9.95666C15.7962 9.6611 16.0509 9.40638 16.2298 9.17534C16.421 8.9284 16.5698 8.65435 16.5845 8.31531C16.5864 8.27179 16.5864 8.22821 16.5845 8.18469C16.5698 7.84565 16.421 7.5716 16.2298 7.32466C16.0509 7.09362 15.7962 6.8389 15.5006 6.54334L15.4787 6.52145L15.4568 6.49954C15.1613 6.20396 14.9065 5.94922 14.6755 5.77034C14.4286 5.57917 14.1545 5.43041 13.8155 5.41564L13.7937 5.91516L13.8155 5.41564C13.772 5.41374 13.7284 5.41374 13.6848 5.41564C13.3458 5.43041 13.0718 5.57917 12.8248 5.77034C12.5938 5.94922 12.3391 6.20396 12.0435 6.49955L12.0334 6.50967Z" stroke="white"/>
<path d="M11.4585 6.87502L14.2085 5.04169L16.9585 7.79169L15.1252 10.5417L11.4585 6.87502Z" fill="white"/>
</svg>
