<svg width="24" height="24" viewBox="0 0 24 24" fill="none" xmlns="http://www.w3.org/2000/svg">
<g clip-path="url(#clip0)">
<path d="M15.1631 5.68457V15.4711C14.9888 19.6691 9.00876 19.6658 8.83601 15.4711V5.68457H3.54883V15.5928C4.01436 26.8066 19.989 26.7979 20.4503 15.5928V5.68457H15.1631ZM19.0432 7.09171V9.40481H16.5702V7.09171H19.0432ZM7.42887 7.09171V9.40481H4.95597V7.09171H7.42887ZM11.9996 22.6363C8.11574 22.6363 4.95597 19.4766 4.95597 15.5928V10.812H7.42892V15.4711C7.6807 21.5362 16.3208 21.5316 16.5703 15.4711V10.812H19.0432V15.5928C19.0432 19.4766 15.8834 22.6363 11.9996 22.6363Z" fill="white"/>
<path d="M6.73926 0H8.14639V3.59922H6.73926V0Z" fill="white"/>
<path d="M15.8525 0H17.2597V3.59922H15.8525V0Z" fill="white"/>
<path d="M11.2959 0H12.703V3.59922H11.2959V0Z" fill="white"/>
</g>
<defs>
<clipPath id="clip0">
<rect width="24" height="24" fill="white"/>
</clipPath>
</defs>
</svg>
