<svg width="6" height="7" viewBox="0 0 6 7" fill="none" xmlns="http://www.w3.org/2000/svg">
<path d="M3 6.33301L3.16005 6.52506L3 6.65843L2.83995 6.52506L3 6.33301ZM5.16005 4.8584L3.16005 6.52506L2.83995 6.14095L4.83995 4.47429L5.16005 4.8584ZM2.83995 6.52506L0.839954 4.8584L1.16005 4.47429L3.16005 6.14095L2.83995 6.52506Z" fill="#85879A"/>
<path d="M3 0.5L2.83995 0.307945L3 0.174573L3.16005 0.307945L3 0.5ZM0.839954 1.97461L2.83995 0.307945L3.16005 0.692055L1.16005 2.35872L0.839954 1.97461ZM3.16005 0.307945L5.16005 1.97461L4.83995 2.35872L2.83995 0.692055L3.16005 0.307945Z" fill="#85879A"/>
</svg>
