<svg width="36" height="36" viewBox="0 0 36 36" fill="none" xmlns="http://www.w3.org/2000/svg">
<g clip-path="url(#clip0)">
<path d="M31.0376 2.39697H5.05996C2.66991 2.39983 0.733323 4.33673 0.730469 6.72678V29.2406C0.733323 31.6306 2.66991 33.5675 5.05996 33.5701H31.0376C33.4276 33.5675 35.3645 31.6306 35.3674 29.2406V6.72678C35.3645 4.33673 33.4276 2.39983 31.0376 2.39697ZM5.05996 4.12902H31.0376C32.4718 4.13061 33.6337 5.2925 33.6353 6.72678V7.59249H2.4622V6.72678C2.46379 5.2925 3.62599 4.13061 5.05996 4.12902ZM31.0376 31.8383H5.05996C3.62599 31.8368 2.46379 30.6746 2.4622 29.2406V9.32454H33.6353V29.2406C33.6337 30.6746 32.4718 31.8368 31.0376 31.8383Z" fill="white"/>
<path d="M6.79181 21.4474H13.7191C13.9486 21.4474 14.169 21.3564 14.3314 21.194C14.4941 21.0313 14.5851 20.8113 14.5851 20.5814V15.3859C14.5851 15.1563 14.4941 14.9359 14.3314 14.7735C14.169 14.6112 13.9486 14.5198 13.7191 14.5201H6.79181C6.5619 14.5198 6.34183 14.6112 6.17915 14.7735C6.01679 14.9359 5.92578 15.1563 5.92578 15.3859V20.5814C5.92578 20.8113 6.01679 21.0313 6.17915 21.194C6.34183 21.3564 6.5619 21.4474 6.79181 21.4474ZM7.65752 16.2519H12.853V19.7157H7.65752V16.2519Z" fill="white"/>
<path d="M29.3059 14.5201H18.9149C18.4367 14.5201 18.0488 14.9077 18.0488 15.3859C18.0488 15.8641 18.4367 16.2519 18.9149 16.2519H29.3059C29.7841 16.2519 30.1719 15.8641 30.1719 15.3859C30.1719 14.9077 29.7841 14.5201 29.3059 14.5201Z" fill="white"/>
<path d="M29.3059 19.7156H18.9149C18.4367 19.7156 18.0488 20.1031 18.0488 20.5813C18.0488 21.0595 18.4367 21.4473 18.9149 21.4473H29.3059C29.7841 21.4473 30.1719 21.0595 30.1719 20.5813C30.1719 20.1031 29.7841 19.7156 29.3059 19.7156Z" fill="white"/>
<path d="M29.3056 24.9111H6.79181C6.31361 24.9111 5.92578 25.2986 5.92578 25.7768C5.92578 26.255 6.31361 26.6429 6.79181 26.6429H29.3056C29.7838 26.6429 30.1716 26.255 30.1716 25.7768C30.1716 25.2986 29.7838 24.9111 29.3056 24.9111Z" fill="white"/>
</g>
<defs>
<clipPath id="clip0">
<rect width="34.6368" height="34.6368" fill="white" transform="translate(0.730469 0.638184)"/>
</clipPath>
</defs>
</svg>
