<svg width="16" height="16" viewBox="0 0 16 16" fill="none" xmlns="http://www.w3.org/2000/svg">
<path d="M3.41 13.5H3.5V13.59C3.5 14.0966 3.70123 14.5824 4.05943 14.9406C4.41762 15.2988 4.90344 15.5 5.41 15.5H12.59C13.0966 15.5 13.5824 15.2988 13.9406 14.9406C14.2988 14.5824 14.5 14.0966 14.5 13.59V4.41C14.5 3.90344 14.2988 3.41762 13.9406 3.05943C13.5824 2.70123 13.0966 2.5 12.59 2.5H12.5V2.41C12.5 2.15918 12.4506 1.91081 12.3546 1.67907C12.2586 1.44734 12.1179 1.23679 11.9406 1.05943C11.7632 0.882066 11.5527 0.741377 11.3209 0.64539C11.0892 0.549404 10.8408 0.5 10.59 0.5H3.41C2.90344 0.5 2.41762 0.701232 2.05943 1.05943C1.70123 1.41762 1.5 1.90344 1.5 2.41V11.59C1.5 12.0966 1.70123 12.5824 2.05943 12.9406C2.41762 13.2988 2.90344 13.5 3.41 13.5ZM12.59 3.5C12.8309 3.50131 13.0616 3.59761 13.232 3.76798C13.4024 3.93836 13.4987 4.16906 13.5 4.41V13.59C13.4987 13.8309 13.4024 14.0616 13.232 14.232C13.0616 14.4024 12.8309 14.4987 12.59 14.5H5.41C5.16906 14.4987 4.93836 14.4024 4.76798 14.232C4.59761 14.0616 4.50131 13.8309 4.5 13.59V4.41C4.50131 4.16906 4.59761 3.93836 4.76798 3.76798C4.93836 3.59761 5.16906 3.50131 5.41 3.5H12.59ZM2.5 2.41C2.50131 2.16906 2.59761 1.93836 2.76798 1.76798C2.93836 1.59761 3.16906 1.50131 3.41 1.5H10.59C10.8309 1.50131 11.0616 1.59761 11.232 1.76798C11.4024 1.93836 11.4987 2.16906 11.5 2.41V2.5H5.41C4.90344 2.5 4.41762 2.70123 4.05943 3.05943C3.70123 3.41762 3.5 3.90344 3.5 4.41V12.5H3.41C3.16906 12.4987 2.93836 12.4024 2.76798 12.232C2.59761 12.0616 2.50131 11.8309 2.5 11.59V2.41Z" fill="white"/>
</svg>
