<svg width="18" height="18" viewBox="0 0 18 18" fill="none" xmlns="http://www.w3.org/2000/svg">
<path d="M5.30859 4.21875C6.47357 4.21875 7.41797 3.27435 7.41797 2.10938C7.41797 0.944399 6.47357 0 5.30859 0C4.14362 0 3.19922 0.944399 3.19922 2.10938C3.19922 3.27435 4.14362 4.21875 5.30859 4.21875Z" fill="#20CAEB"/>
<path d="M12.6914 4.21875C13.8564 4.21875 14.8008 3.27435 14.8008 2.10938C14.8008 0.944399 13.8564 0 12.6914 0C11.5264 0 10.582 0.944399 10.582 2.10938C10.582 3.27435 11.5264 4.21875 12.6914 4.21875Z" fill="#20CAEB"/>
<path d="M16.3828 8.4375H1.61719V9.76669L6.89062 13.4581V18L11.1094 16.5936V13.4581L16.3828 9.76669V8.4375Z" fill="#20CAEB"/>
<path d="M2.14453 7.38281H8.47266C8.47266 5.63804 7.05336 4.21875 5.30859 4.21875C3.56382 4.21875 2.14453 5.63804 2.14453 7.38281Z" fill="#20CAEB"/>
<path d="M9.52734 7.38281H15.8555C15.8555 5.63804 14.4362 4.21875 12.6914 4.21875C10.9466 4.21875 9.52734 5.63804 9.52734 7.38281Z" fill="#20CAEB"/>
</svg>
