<svg width="16" height="14" viewBox="0 0 16 14" fill="none" xmlns="http://www.w3.org/2000/svg">
<path d="M0.758333 0H14.4083C14.6095 0 14.8023 0.0819442 14.9446 0.227806C15.0868 0.373667 15.1667 0.571498 15.1667 0.777778V13.2222C15.1667 13.4285 15.0868 13.6263 14.9446 13.7722C14.8023 13.9181 14.6095 14 14.4083 14H0.758333C0.557211 14 0.364326 13.9181 0.222111 13.7722C0.0798956 13.6263 0 13.4285 0 13.2222V0.777778C0 0.571498 0.0798956 0.373667 0.222111 0.227806C0.364326 0.0819442 0.557211 0 0.758333 0ZM13.65 3.29622L7.63793 8.81845L1.51667 3.27911V12.4444H13.65V3.29622ZM1.90418 1.55556L7.62959 6.73711L13.2724 1.55556H1.90418Z" fill="#3DC4DE"/>
</svg>
