<svg width="16" height="15" viewBox="0 0 16 15" fill="none" xmlns="http://www.w3.org/2000/svg">
<path d="M11.8835 0.312744H4.94006C2.68024 0.312744 0.841797 2.09621 0.841797 4.28845V11.0244C0.841797 13.2165 2.68024 15 4.94006 15H11.8837C14.1434 15 15.9818 13.2165 15.9818 11.0244V4.28845C15.9818 2.09621 14.1434 0.312744 11.8835 0.312744ZM15.0942 11.0244C15.0942 12.7418 13.6539 14.139 11.8835 14.139H4.94006C3.16965 14.139 1.72937 12.7418 1.72937 11.0244V4.28845C1.72937 2.57099 3.16965 1.17377 4.94006 1.17377H11.8837C13.6539 1.17377 15.0942 2.57099 15.0942 4.28845V11.0244Z" fill="#3DC4DE"/>
<path d="M11.8835 0.312744H4.94006C2.68024 0.312744 0.841797 2.09621 0.841797 4.28845V11.0244C0.841797 13.2165 2.68024 15 4.94006 15H11.8837C14.1434 15 15.9818 13.2165 15.9818 11.0244V4.28845C15.9818 2.09621 14.1434 0.312744 11.8835 0.312744ZM15.0942 11.0244C15.0942 12.7418 13.6539 14.139 11.8835 14.139H4.94006C3.16965 14.139 1.72937 12.7418 1.72937 11.0244V4.28845C1.72937 2.57099 3.16965 1.17377 4.94006 1.17377H11.8837C13.6539 1.17377 15.0942 2.57099 15.0942 4.28845V11.0244Z" stroke="#3DC4DE"/>
<path d="M8.41161 4.50891C6.51426 4.50891 4.9707 6.07761 4.9707 8.00588C4.9707 9.93414 6.51426 11.5028 8.41161 11.5028C10.309 11.5028 11.8525 9.93414 11.8525 8.00588C11.8525 6.07761 10.309 4.50891 8.41161 4.50891ZM8.41161 10.7531C6.92115 10.7531 5.70845 9.52072 5.70845 8.00588C5.70845 6.49113 6.92115 5.25867 8.41161 5.25867C9.90217 5.25867 11.1148 6.49113 11.1148 8.00588C11.1148 9.52072 9.90217 10.7531 8.41161 10.7531Z" fill="#3DC4DE"/>
<path d="M8.41161 4.50891C6.51426 4.50891 4.9707 6.07761 4.9707 8.00588C4.9707 9.93414 6.51426 11.5028 8.41161 11.5028C10.309 11.5028 11.8525 9.93414 11.8525 8.00588C11.8525 6.07761 10.309 4.50891 8.41161 4.50891ZM8.41161 10.7531C6.92115 10.7531 5.70845 9.52072 5.70845 8.00588C5.70845 6.49113 6.92115 5.25867 8.41161 5.25867C9.90217 5.25867 11.1148 6.49113 11.1148 8.00588C11.1148 9.52072 9.90217 10.7531 8.41161 10.7531Z" stroke="#3DC4DE"/>
<path d="M11.5078 2.41077C10.9386 2.41077 10.4756 2.8814 10.4756 3.45981C10.4756 4.03831 10.9386 4.50895 11.5078 4.50895C12.077 4.50895 12.5401 4.03831 12.5401 3.45981C12.5401 2.8813 12.077 2.41077 11.5078 2.41077ZM11.5078 3.74767C11.3517 3.74767 11.2246 3.6185 11.2246 3.45981C11.2246 3.30101 11.3517 3.17194 11.5078 3.17194C11.6641 3.17194 11.7912 3.30101 11.7912 3.45981C11.7912 3.6185 11.6641 3.74767 11.5078 3.74767Z" fill="#3DC4DE"/>
<path d="M11.5078 2.41077C10.9386 2.41077 10.4756 2.8814 10.4756 3.45981C10.4756 4.03831 10.9386 4.50895 11.5078 4.50895C12.077 4.50895 12.5401 4.03831 12.5401 3.45981C12.5401 2.8813 12.077 2.41077 11.5078 2.41077ZM11.5078 3.74767C11.3517 3.74767 11.2246 3.6185 11.2246 3.45981C11.2246 3.30101 11.3517 3.17194 11.5078 3.17194C11.6641 3.17194 11.7912 3.30101 11.7912 3.45981C11.7912 3.6185 11.6641 3.74767 11.5078 3.74767Z" stroke="#3DC4DE"/>
</svg>
