<svg width="18" height="17" viewBox="0 0 18 17" fill="none" xmlns="http://www.w3.org/2000/svg">
<path d="M4.15192 3.89249L4.15182 3.89238L4.14707 3.89714C3.87868 4.16553 3.51982 4.32929 3.14511 4.30587L3.14513 4.30557H3.13546C2.77268 4.30557 2.38609 4.15938 2.12385 3.89714L2.12395 3.89703L2.11899 3.89249C1.83519 3.63232 1.68873 3.24905 1.68873 2.85884C1.68873 2.47276 1.83263 2.11177 2.12385 1.82055C2.38609 1.55831 2.746 1.41212 3.16214 1.41212C3.52213 1.41212 3.88294 1.55643 4.14707 1.82055C4.43828 2.11177 4.58218 2.47276 4.58218 2.85884C4.58218 3.24905 4.43572 3.63232 4.15192 3.89249ZM3.16214 0.568533C2.53608 0.568533 1.96212 0.79685 1.53113 1.22784C1.0752 1.68377 0.845144 2.25692 0.845144 2.85881C0.845144 3.4898 1.10365 4.06234 1.53113 4.48982C1.95721 4.91589 2.55717 5.1769 3.13923 5.14913H3.13925H3.13932H3.13938H3.13945H3.13951H3.13957H3.13964H3.13971H3.13977H3.13984H3.13991H3.13997H3.14004H3.14011H3.14018H3.14025H3.14032H3.14039H3.14046H3.14053H3.1406H3.14068H3.14075H3.14082H3.1409H3.14097H3.14104H3.14112H3.14119H3.14127H3.14135H3.14142H3.1415H3.14158H3.14166H3.14173H3.14181H3.14189H3.14197H3.14205H3.14213H3.14221H3.1423H3.14238H3.14246H3.14254H3.14263H3.14271H3.14279H3.14288H3.14296H3.14305H3.14313H3.14322H3.14331H3.14339H3.14348H3.14357H3.14365H3.14374H3.14383H3.14392H3.14401H3.1441H3.14419H3.14428H3.14437H3.14446H3.14456H3.14465H3.14474H3.14484H3.14493H3.14502H3.14512H3.14521H3.14531H3.1454H3.1455H3.14559H3.14569H3.14579H3.14589H3.14598H3.14608H3.14618H3.14628H3.14638H3.14648H3.14658H3.14668H3.14678H3.14688H3.14698H3.14708H3.14719H3.14729H3.14739H3.14749H3.1476H3.1477H3.14781H3.14791H3.14802H3.14812H3.14823H3.14833H3.14844H3.14855H3.14865H3.14876H3.14887H3.14898H3.14908H3.14919H3.1493H3.14941H3.14952H3.14963H3.14974H3.14985H3.14996H3.15008H3.15019H3.1503H3.15041H3.15052H3.15064H3.15075H3.15086H3.15098H3.15109H3.15121H3.15132H3.15144H3.15155H3.15167H3.15179H3.1519H3.15202H3.15214H3.15225H3.15237H3.15249H3.15261H3.15273H3.15285H3.15296H3.15308H3.1532H3.15332H3.15345H3.15357H3.15369H3.15381H3.15393H3.15405H3.15417H3.1543H3.15442H3.15454H3.15467H3.15479H3.15491H3.15504H3.15516H3.15529H3.15541H3.15554H3.15566H3.15579H3.15591H3.15604H3.15617H3.15629H3.15642H3.15655H3.15668H3.1568H3.15693H3.15706H3.15719H3.15732H3.15745H3.15758H3.15771H3.15784H3.15797H3.1581H3.15823H3.15836H3.15849H3.15862H3.15875H3.15889H3.15902H3.15915H3.15928H3.15942H3.15955H3.15968H3.15982H3.15995H3.16008H3.16022H3.16035H3.16049H3.16062H3.16076H3.16089H3.16103H3.16116H3.1613H3.16144H3.16157H3.16171H3.16185H3.16198H3.16212H3.16226H3.1624H3.16254H3.16267H3.16281H3.16295H3.16309H3.16323H3.16337H3.16351H3.16365H3.16379H3.16393H3.16407H3.16421H3.16435H3.16449H3.16463H3.16477H3.16491H3.16505H3.1652H3.16534H3.16548H3.16562H3.16577H3.16591H3.16605H3.16619H3.16634H3.16648H3.16663H3.16677H3.16691H3.16706H3.1672H3.16735H3.16749H3.16764H3.16778H3.16793H3.16807H3.16822H3.16836H3.16851H3.16865H3.1688H3.16895H3.16909H3.16924H3.16939H3.16953H3.16968H3.16983H3.16997H3.17012H3.17027H3.17042H3.17057H3.17071H3.17086H3.17101H3.17116H3.17131H3.17146H3.1716H3.17175H3.1719H3.17205H3.1722H3.17235H3.1725H3.17265H3.1728H3.17295H3.1731H3.17325H3.1734H3.17355H3.1737H3.17385H3.174H3.17416H3.17431H3.17446H3.17461H3.17476H3.17491H3.17506H3.17522H3.17537H3.17552H3.17567H3.17582H3.17598H3.17613H3.17628H3.17643H3.17659H3.17674H3.17689H3.17705H3.1772H3.17735H3.17751H3.17766H3.17781H3.17797H3.17812H3.17827H3.17843H3.17858H3.17873H3.17889H3.17904H3.1792H3.17935H3.1795H3.17966H3.17981H3.17997H3.18012H3.18028H3.18043H3.18059H3.18074H3.1809H3.18105H3.18121H3.18136H3.18152H3.18167H3.18183H3.18198H3.18214H3.18229H3.18245H3.1826H3.18276H3.18292H3.18307H3.18323H3.18338H3.18354H3.18369H3.18385H3.18401H3.18416H3.18432H3.18447H3.18463H3.18479H3.18494H3.1851H3.18525H3.18541H3.18557H3.18572H3.18588H3.18604H3.18619H3.18635H3.18651H3.18666H3.18682H3.18697H3.18713H3.18729H3.18744H3.1876H3.18776H3.18791H3.18807H3.18823H3.18838H3.18854H3.1887H3.18885C3.76576 5.14913 4.31176 4.91783 4.73978 4.48982C5.16643 4.06316 5.42476 3.49203 5.42576 2.86249C5.45356 2.25412 5.19268 1.68158 4.76822 1.25625C4.33717 0.797492 3.76235 0.568533 3.16214 0.568533Z" fill="#3DC4DE" stroke="#3DC4DE" stroke-width="0.309711"/>
<path d="M4.20383 5.37261H2.04169C1.52567 5.37261 1.11272 5.79239 1.11272 6.32826V15.6708C1.11272 16.1834 1.55577 16.6265 2.06837 16.6265H4.20383C4.71306 16.6265 5.15947 16.1868 5.15947 15.6975V6.32826C5.15947 5.81562 4.71643 5.37261 4.20383 5.37261ZM4.31589 15.6975C4.31589 15.7104 4.30938 15.7303 4.28591 15.7507C4.262 15.7714 4.23071 15.7829 4.20383 15.7829H2.06837C2.052 15.7829 2.02267 15.7732 1.99436 15.7448C1.96605 15.7165 1.95631 15.6872 1.95631 15.6708V6.32826C1.95631 6.30136 1.96782 6.27007 1.98854 6.24617C2.00887 6.22271 2.02875 6.21619 2.04169 6.21619H4.20383C4.2202 6.21619 4.24952 6.22594 4.27784 6.25425C4.30615 6.28257 4.31589 6.3119 4.31589 6.32826V15.6975Z" fill="#3DC4DE" stroke="#3DC4DE" stroke-width="0.309711"/>
<path d="M12.7188 5.10625C11.7713 5.10625 10.8653 5.4667 10.2044 6.06085C10.2041 5.87743 10.1138 5.70698 9.99221 5.58537C9.87038 5.46354 9.69951 5.37317 9.51567 5.37317H6.84637C6.68387 5.37317 6.51526 5.44358 6.38764 5.55473C6.25845 5.66725 6.15764 5.83397 6.15764 6.03519V15.9917C6.15764 16.1947 6.26021 16.3562 6.39214 16.4626C6.52196 16.5673 6.68943 16.627 6.84637 16.627H9.78262C9.93956 16.627 10.107 16.5673 10.2369 16.4626C10.3688 16.3562 10.4713 16.1947 10.4713 15.9917V10.226C10.4713 9.41977 11.0531 8.80594 11.7846 8.80594C12.1727 8.80594 12.533 8.95122 12.7962 9.21438L12.7961 9.21453L12.8021 9.21998C13.0212 9.41714 13.1246 9.73689 13.1246 10.1993V15.9383C13.1246 16.1221 13.2149 16.293 13.3367 16.4149C13.4586 16.5367 13.6295 16.6271 13.8133 16.6271H16.4826C16.6664 16.6271 16.8373 16.5367 16.9591 16.4149C17.081 16.293 17.1713 16.1222 17.1713 15.9383V9.05151C17.1713 6.83274 15.4758 5.10625 13.2794 5.10625H12.7188ZM11.8113 7.96242V7.96238L11.8076 7.96247C10.5993 7.99122 9.65445 8.97057 9.65445 10.226V15.7835H7.02791V6.21676H9.3875V7.77025V8.1441L9.65185 7.87975L10.3726 7.15903L10.3992 7.13235L10.4083 7.12329L10.4158 7.11286C10.9194 6.40775 11.8059 5.94984 12.7455 5.94984H13.3061C15.0048 5.94984 16.3277 7.31769 16.3277 9.05154V15.7835H13.9941L13.9681 10.1993C13.9681 10.1992 13.9681 10.1991 13.9681 10.199C13.9681 9.53255 13.8007 9.00687 13.4156 8.62173C12.9853 8.19144 12.4117 7.96242 11.8113 7.96242Z" fill="#3DC4DE" stroke="#3DC4DE" stroke-width="0.309711"/>
</svg>
