<svg width="18" height="16" viewBox="0 0 18 16" fill="none" xmlns="http://www.w3.org/2000/svg">
<path d="M17.0184 0.587887C16.7392 0.332021 16.3423 0.246755 15.9825 0.365314L0.719803 5.39656C0.303847 5.53366 0.0217735 5.90497 0.00119432 6.34242C-0.0193509 6.7799 0.226616 7.17606 0.627824 7.35164L4.40242 9.00313C4.42083 9.08856 5.5044 14.1142 5.54125 14.2851C5.58855 14.5045 5.69992 14.6999 5.93585 14.76C6.17449 14.8208 6.34309 14.6904 6.52115 14.5571C6.62025 14.4829 9.32222 12.4597 9.32222 12.4597L12.5969 15.1393C12.7876 15.2955 13.0207 15.3769 13.2584 15.3769C13.3716 15.3769 13.4859 15.3585 13.597 15.3208C13.9416 15.2039 14.1971 14.9226 14.2804 14.5683L17.3306 1.60037C17.4172 1.23167 17.2977 0.843753 17.0184 0.587887ZM6.76515 9.94946C6.76329 9.95387 6.76146 9.95885 6.75973 9.96482L6.12832 12.1708L5.42368 8.90274L10.269 6.21067L6.88137 9.75279C6.82801 9.8086 6.78875 9.87606 6.76515 9.94946ZM6.96555 12.9507L7.25234 11.9487L7.52665 10.9903L8.50953 11.7946L6.96555 12.9507ZM16.3381 1.36691L13.2881 14.3349C13.2865 14.3413 13.2845 14.3502 13.2696 14.3553C13.2548 14.3603 13.2476 14.3546 13.2425 14.3503L9.65929 11.4181C9.65918 11.4181 9.65912 11.418 9.65901 11.4179L7.99882 10.0593L13.3325 4.48236C13.5067 4.3002 13.5217 4.01809 13.3676 3.81857C13.2135 3.61902 12.9368 3.56203 12.7166 3.68449L4.81881 8.07252L1.03649 6.41761C1.02496 6.4126 1.01862 6.40978 1.01954 6.39029C1.02046 6.37086 1.02703 6.36866 1.03897 6.36473L16.3017 1.33352C16.3091 1.33111 16.3174 1.32833 16.3297 1.33952C16.342 1.35077 16.3399 1.35932 16.3381 1.36691Z" fill="#3DC4DE"/>
</svg>
