<svg width="35" height="35" viewBox="0 0 35 35" fill="none" xmlns="http://www.w3.org/2000/svg">
<g clip-path="url(#clip0)">
<path d="M34.4421 27.0278L21.0642 3.85664C20.3203 2.5682 18.9879 1.79889 17.5 1.79889C16.0121 1.79889 14.6797 2.5682 13.9358 3.85664L0.557965 27.0278C-0.185988 28.3163 -0.185988 29.8548 0.557965 31.1433C1.30192 32.4318 2.63424 33.2011 4.12215 33.2011H30.8778C32.3657 33.2011 33.698 32.4318 34.4421 31.1434C35.186 29.8548 35.186 28.3163 34.4421 27.0278ZM32.6662 30.1181C32.2929 30.7647 31.6244 31.1506 30.8778 31.1506H4.12215C3.37553 31.1506 2.70697 30.7647 2.33373 30.1181C1.96049 29.4716 1.96049 28.6997 2.33373 28.0531L15.7117 4.88196C16.0849 4.23542 16.7535 3.84946 17.5001 3.84946C18.2465 3.84946 18.9152 4.23542 19.2884 4.88196L32.6663 28.0531C33.0395 28.6997 33.0395 29.4716 32.6662 30.1181Z" fill="white"/>
<path d="M18.5251 12.0319H16.4746V22.2846H18.5251V12.0319Z" fill="white"/>
<path d="M17.4999 24.3353C16.7461 24.3353 16.1328 24.9485 16.1328 25.7023C16.1328 26.4561 16.7461 27.0694 17.4999 27.0694C18.2536 27.0694 18.8669 26.4561 18.8669 25.7023C18.8669 24.9485 18.2537 24.3353 17.4999 24.3353Z" fill="white"/>
</g>
<defs>
<clipPath id="clip0">
<rect width="35" height="35" fill="white"/>
</clipPath>
</defs>
</svg>
