<svg width="16" height="18" viewBox="0 0 16 18" fill="none" xmlns="http://www.w3.org/2000/svg">
<path d="M1.23852 11.8117C1.63734 13.3002 2.51616 14.6154 3.73867 15.5535C4.96118 16.4915 6.45906 17 8 17C9.54094 17 11.0388 16.4915 12.2613 15.5535C13.4838 14.6154 14.3627 13.3002 14.7615 11.8117" stroke="#26304F"/>
<path d="M8 10L7.68765 10.3904L8 10.6403L8.31235 10.3904L8 10ZM8.5 1C8.5 0.723858 8.27614 0.5 8 0.5C7.72386 0.5 7.5 0.723858 7.5 1L8.5 1ZM2.68765 6.39043L7.68765 10.3904L8.31235 9.60957L3.31235 5.60957L2.68765 6.39043ZM8.31235 10.3904L13.3123 6.39043L12.6877 5.60957L7.68765 9.60957L8.31235 10.3904ZM8.5 10L8.5 1L7.5 1L7.5 10L8.5 10Z" fill="#26304F"/>
</svg>
