<svg width="26" height="21" viewBox="0 0 26 21" fill="none" xmlns="http://www.w3.org/2000/svg">
<path d="M23.1591 1.34664C21.9717 0.884303 20.428 0.629646 18.8124 0.629646C17.1968 0.629646 15.6531 0.884303 14.4658 1.34664C13.7641 1.61987 13.2284 1.95378 12.8777 2.32846C12.5271 1.95378 11.9913 1.61991 11.2897 1.34669C10.1024 0.884303 8.55868 0.629646 6.94305 0.629646C5.32742 0.629646 3.78373 0.884303 2.59641 1.34664C1.2612 1.86659 0.525879 2.60598 0.525879 3.42859V14.6244C0.525879 15.447 1.2612 16.1864 2.59641 16.7063C3.70069 17.1363 5.11334 17.3864 6.60531 17.4193V17.4233C6.60531 19.019 9.30187 20.2222 12.8777 20.2222C16.4536 20.2222 19.1502 19.019 19.1502 17.4233V17.4193C20.6421 17.3864 22.0548 17.1363 23.1591 16.7063C24.4943 16.1864 25.2296 15.447 25.2296 14.6244V3.42859C25.2296 2.60598 24.4943 1.86659 23.1591 1.34664ZM24.2646 11.8254C24.2646 12.2237 23.7028 12.6898 22.7985 13.0419C21.8198 13.4231 20.5058 13.6536 19.1502 13.6868V11.8254C19.1502 11.8241 19.1501 11.8227 19.1501 11.8214C20.6421 11.7885 22.0547 11.5385 23.1591 11.1084C23.5925 10.9396 23.9623 10.7476 24.2646 10.5372L24.2646 11.8254ZM12.3952 6.22753C12.3952 6.62577 11.8335 7.09189 10.9292 7.44404C9.86928 7.85679 8.4164 8.09349 6.94305 8.09349C5.46971 8.09349 4.01682 7.85679 2.95693 7.44404C2.05264 7.09189 1.49087 6.62577 1.49087 6.22753V4.93936C1.79325 5.14975 2.16298 5.34176 2.59641 5.51054C3.78373 5.97287 5.32742 6.22753 6.94305 6.22753C8.55868 6.22753 10.1024 5.97287 11.2897 5.51054C11.7231 5.34176 12.0929 5.14975 12.3952 4.93936V6.22753ZM2.59641 8.30948C3.78373 8.77182 5.32742 9.02647 6.94305 9.02647C8.55868 9.02647 10.1024 8.77182 11.2897 8.30948C11.7231 8.1407 12.0929 7.94869 12.3952 7.73831V9.03473C11.147 9.07559 9.94996 9.27367 8.98174 9.60333C8.01062 9.93403 7.31182 10.375 6.93181 10.8923C5.46233 10.8911 4.01412 10.6547 2.95693 10.243C2.05264 9.89083 1.49087 9.42472 1.49087 9.02647V7.73831C1.79325 7.94869 2.16298 8.1407 2.59641 8.30948ZM1.49087 10.5372C1.79325 10.7476 2.16298 10.9396 2.59641 11.1084C3.70074 11.5384 5.11343 11.7885 6.60545 11.8214C6.60545 11.8228 6.60535 11.8241 6.60535 11.8254V13.6868C5.24969 13.6536 3.93571 13.4231 2.95697 13.0419C2.05264 12.6898 1.49087 12.2237 1.49087 11.8254V10.5372ZM7.62134 11.5962C7.97892 10.7917 10.0428 9.95945 12.8777 9.95945C15.7127 9.95945 17.7765 10.7917 18.1337 11.5953C18.1684 11.6737 18.1852 11.749 18.1852 11.8254C18.1852 12.2356 17.6622 12.6911 16.7862 13.044C15.75 13.4615 14.3619 13.6914 12.8777 13.6914C11.3935 13.6914 10.0055 13.4615 8.96929 13.044C8.09327 12.6911 7.57029 12.2356 7.57029 11.8254C7.57029 11.749 7.58713 11.6737 7.62134 11.5962ZM24.2646 9.02647C24.2646 9.42472 23.7028 9.89083 22.7985 10.243C21.7414 10.6547 20.2932 10.8911 18.8238 10.8923C18.4441 10.3753 17.7452 9.93412 16.7737 9.60333C15.8055 9.27362 14.6084 9.07559 13.3602 9.03473V7.73831C13.6626 7.94869 14.0323 8.1407 14.4658 8.30948C15.6531 8.77182 17.1968 9.02647 18.8124 9.02647C20.428 9.02647 21.9717 8.77182 23.1591 8.30948C23.5925 8.1407 23.9622 7.94869 24.2646 7.73831V9.02647ZM24.2646 6.22753C24.2646 6.62577 23.7028 7.09189 22.7985 7.44404C21.7386 7.85679 20.2858 8.09349 18.8124 8.09349C17.3391 8.09349 15.8862 7.85679 14.8263 7.44404C13.922 7.09189 13.3602 6.62577 13.3602 6.22753V4.93936C13.6626 5.14975 14.0323 5.34176 14.4658 5.51054C15.6531 5.97287 17.1968 6.22753 18.8124 6.22753C20.428 6.22753 21.9717 5.97287 23.1591 5.51054C23.5925 5.34176 23.9622 5.14975 24.2646 4.93936V6.22753ZM14.8263 2.21207C15.8862 1.79932 17.3391 1.56263 18.8124 1.56263C20.2858 1.56263 21.7386 1.79932 22.7985 2.21207C23.7028 2.56423 24.2646 3.03035 24.2646 3.42859C24.2646 3.82683 23.7028 4.29295 22.7985 4.6451C21.7386 5.05785 20.2858 5.29455 18.8124 5.29455C17.3391 5.29455 15.8862 5.05785 14.8263 4.6451C13.922 4.29295 13.3602 3.82683 13.3602 3.42859C13.3602 3.03035 13.922 2.56423 14.8263 2.21207ZM2.95693 2.21207C4.01682 1.79932 5.46971 1.56263 6.94305 1.56263C8.4164 1.56263 9.86928 1.79932 10.9292 2.21207C11.8335 2.56423 12.3952 3.03035 12.3952 3.42859C12.3952 3.82683 11.8335 4.29295 10.9292 4.6451C9.86928 5.05785 8.4164 5.29455 6.94305 5.29455C5.46971 5.29455 4.01682 5.05785 2.95693 4.6451C2.05264 4.29295 1.49087 3.82683 1.49087 3.42859C1.49087 3.03035 2.05264 2.56423 2.95693 2.21207ZM2.95693 15.8409C2.05264 15.4887 1.49087 15.0226 1.49087 14.6244V13.3362C1.79325 13.5466 2.16298 13.7386 2.59641 13.9074C3.70069 14.3374 5.11334 14.5874 6.60531 14.6203V16.4857C5.24964 16.4526 3.93567 16.222 2.95693 15.8409ZM16.7862 18.6419C15.75 19.0594 14.3619 19.2893 12.8777 19.2893C11.3935 19.2893 10.0055 19.0594 8.96929 18.6419C8.09327 18.289 7.57029 17.8334 7.57029 17.4233V16.1623C7.67958 16.2388 7.80035 16.3148 7.93429 16.3897C8.68355 16.8089 9.70302 17.119 10.8825 17.2863C10.9063 17.2897 10.9299 17.2913 10.9532 17.2913C11.1887 17.2913 11.3947 17.1245 11.43 16.8925C11.4687 16.6376 11.2863 16.4007 11.0227 16.3632C8.78029 16.045 7.57029 15.2298 7.57029 14.6244V13.3592C8.66237 14.1318 10.5901 14.6244 12.8777 14.6244C15.1654 14.6244 17.0931 14.1318 18.1852 13.3592V14.6244C18.1852 15.2298 16.9752 16.045 14.7328 16.3632C14.4691 16.4007 14.2868 16.6376 14.3255 16.8925C14.3607 17.1245 14.5668 17.2913 14.8023 17.2913C14.8256 17.2913 14.8492 17.2897 14.8729 17.2863C16.0524 17.119 17.0719 16.8089 17.8212 16.3897C17.9551 16.3148 18.0759 16.2388 18.1852 16.1623V17.4233C18.1852 17.8334 17.6622 18.289 16.7862 18.6419ZM22.7985 15.8409C21.8198 16.222 20.5058 16.4526 19.1502 16.4857V14.6203C20.6421 14.5874 22.0548 14.3373 23.1591 13.9073C23.5925 13.7385 23.9622 13.5465 24.2646 13.3361V14.6244C24.2646 15.0226 23.7028 15.4887 22.7985 15.8409Z" fill="#C694ED"/>
<path d="M13.0012 16.8148C12.6981 16.8148 12.4521 17.0607 12.4521 17.3638C12.4521 17.6669 12.6981 17.9129 13.0012 17.9129C13.3043 17.9129 13.5502 17.6669 13.5502 17.3638C13.5502 17.0607 13.3043 16.8148 13.0012 16.8148Z" fill="#C694ED"/>
</svg>
