<svg width="16" height="16" viewBox="0 0 16 16" fill="none" xmlns="http://www.w3.org/2000/svg">
<path d="M9.07344 14.6781C8.79844 14.6781 8.57344 14.4531 8.57344 14.1781C8.57344 13.9031 8.79844 13.6781 9.07344 13.6781C12.1984 13.6781 14.7484 11.1281 14.7484 8.00313C14.7484 4.87813 12.1984 2.32812 9.07344 2.32812C5.94844 2.32812 3.39844 4.87813 3.39844 8.00313C3.39844 8.27813 3.17344 8.50313 2.89844 8.50313C2.62344 8.50313 2.39844 8.27813 2.39844 8.00313C2.39844 4.32813 5.39844 1.32812 9.07344 1.32812C12.7484 1.32812 15.7484 4.32813 15.7484 8.00313C15.7484 11.6781 12.7484 14.6781 9.07344 14.6781Z" fill="white"/>
<path d="M2.95 9.67569C2.825 9.67569 2.7 9.62569 2.6 9.52569L0.4 7.3257C0.2 7.1257 0.2 6.82571 0.4 6.62571C0.6 6.42571 0.9 6.42571 1.1 6.62571L2.95 8.4757L4.8 6.62571C5 6.42571 5.3 6.42571 5.5 6.62571C5.7 6.82571 5.7 7.1257 5.5 7.3257L3.3 9.52569C3.2 9.65069 3.075 9.67569 2.95 9.67569Z" fill="white"/>
<path d="M9.75078 9.74687H6.55078C6.27578 9.74687 6.05078 9.52187 6.05078 9.24687C6.05078 8.97187 6.27578 8.74687 6.55078 8.74687H9.25078V4.54688C9.25078 4.27187 9.47578 4.04688 9.75078 4.04688C10.0258 4.04688 10.2508 4.27187 10.2508 4.54688V9.24687C10.2508 9.52187 10.0258 9.74687 9.75078 9.74687Z" fill="white"/>
</svg>
