<svg width="25" height="25" viewBox="0 0 25 25" fill="none" xmlns="http://www.w3.org/2000/svg">
<path d="M18.75 18.75C22.2018 15.2982 22.2018 9.70178 18.75 6.25C15.2982 2.79822 9.70178 2.79822 6.25 6.25C2.79822 9.70178 2.79822 15.2982 6.25 18.75C9.70178 22.2018 15.2982 22.2018 18.75 18.75Z" fill="#EF4136"/>
<path d="M9.52614 16.64C9.42208 16.64 9.32035 16.6047 9.23383 16.5386C9.14731 16.4725 9.07987 16.3786 9.04005 16.2687C9.00023 16.1588 8.98981 16.0379 9.01011 15.9213C9.0304 15.8046 9.0805 15.6975 9.15408 15.6134L15.1081 8.80884C15.2074 8.69929 15.3403 8.63867 15.4783 8.64004C15.6163 8.64141 15.7483 8.70466 15.8459 8.81617C15.9434 8.92768 15.9988 9.07852 16 9.23622C16.0012 9.39391 15.9481 9.54583 15.8523 9.65926L9.89821 16.4638C9.79954 16.5766 9.6657 16.64 9.52614 16.64Z" fill="white"/>
<path d="M15.4739 16.64C15.3343 16.64 15.2005 16.5766 15.1018 16.4638L9.14773 9.65926C9.05186 9.54583 8.99882 9.39391 9.00002 9.23622C9.00122 9.07852 9.05657 8.92768 9.15414 8.81617C9.25171 8.70466 9.3837 8.64141 9.52168 8.64004C9.65967 8.63867 9.7926 8.69929 9.89185 8.80884L15.8459 15.6134C15.9195 15.6975 15.9696 15.8046 15.9899 15.9213C16.0102 16.0379 15.9998 16.1588 15.9599 16.2687C15.9201 16.3786 15.8527 16.4725 15.7662 16.5386C15.6796 16.6047 15.5779 16.64 15.4739 16.64Z" fill="white"/>
</svg>
