<svg width="22" height="21" viewBox="0 0 22 21" fill="none" xmlns="http://www.w3.org/2000/svg">
<path d="M14.4895 13.7262C14.0041 13.7262 13.6092 13.3844 13.6092 12.9643C13.6092 12.5441 14.0041 12.2023 14.4895 12.2023C14.9749 12.2023 15.3698 12.5441 15.3698 12.9643C15.3698 13.1853 15.549 13.3645 15.77 13.3645C15.991 13.3645 16.1702 13.1853 16.1702 12.9643C16.1702 12.231 15.6238 11.6145 14.8897 11.4471V11.239C14.8897 11.018 14.7105 10.8388 14.4895 10.8388C14.2685 10.8388 14.0893 11.018 14.0893 11.239V11.4471C13.3552 11.6145 12.8088 12.231 12.8088 12.9643C12.8088 13.8257 13.5628 14.5266 14.4895 14.5266C14.9749 14.5266 15.3698 14.8684 15.3698 15.2885C15.3698 15.7087 14.9749 16.0505 14.4895 16.0505C14.0041 16.0505 13.6092 15.7087 13.6092 15.2885C13.6092 15.0676 13.43 14.8884 13.209 14.8884C12.988 14.8884 12.8088 15.0676 12.8088 15.2885C12.8088 16.0218 13.3552 16.6384 14.0893 16.8057V16.9786C14.0893 17.1996 14.2685 17.3788 14.4895 17.3788C14.7105 17.3788 14.8897 17.1996 14.8897 16.9786V16.8057C15.6238 16.6384 16.1702 16.0218 16.1702 15.2885C16.1702 14.4271 15.4162 13.7262 14.4895 13.7262Z" fill="#EFD57A"/>
<path d="M18.8715 11.346C18.3487 10.5315 17.6123 9.87972 16.7417 9.46123C16.5425 9.36543 16.3034 9.44931 16.2077 9.64851C16.1119 9.84771 16.1958 10.0868 16.395 10.1825C17.912 10.9118 18.8922 12.4699 18.8922 14.1521C18.8922 14.8719 18.7148 15.5858 18.3792 16.2166C18.2754 16.4117 18.3493 16.654 18.5445 16.7578C18.6043 16.7897 18.6687 16.8048 18.7321 16.8048C18.8752 16.8048 19.0137 16.7277 19.0857 16.5925C19.4827 15.8464 19.6925 15.0025 19.6925 14.1521C19.6925 13.1533 19.4086 12.183 18.8715 11.346Z" fill="#EFD57A"/>
<path d="M15.1174 8.95018L15.0905 8.95014C14.8695 8.95014 14.6903 9.12929 14.6903 9.3503C14.6903 9.57131 14.8695 9.75046 15.0905 9.75046L15.1136 9.7505C15.1143 9.7505 15.1149 9.7505 15.1156 9.7505C15.3357 9.7505 15.5146 9.57259 15.5157 9.35222C15.5167 9.13121 15.3384 8.95122 15.1174 8.95018Z" fill="#EFD57A"/>
<path d="M12.5867 18.1217C11.0697 17.3924 10.0895 15.8343 10.0895 14.1521C10.0895 13.4323 10.2669 12.7185 10.6025 12.0877C10.7063 11.8926 10.6324 11.6503 10.4372 11.5465C10.2422 11.4427 9.99978 11.5166 9.89602 11.7118C9.49903 12.4579 9.28918 13.3017 9.28918 14.1521C9.28918 15.1509 9.5731 16.1212 10.1102 16.9582C10.633 17.7728 11.3694 18.4245 12.2399 18.8431C12.2958 18.8699 12.3549 18.8826 12.4131 18.8826C12.5621 18.8826 12.7051 18.799 12.774 18.6558C12.8697 18.4566 12.7859 18.2175 12.5867 18.1217Z" fill="#EFD57A"/>
<path d="M13.8919 18.5538L13.8688 18.5537C13.6468 18.5533 13.4678 18.7309 13.4668 18.952C13.4658 19.173 13.6442 19.353 13.8651 19.354L13.8919 19.3541C14.1129 19.3541 14.2921 19.1749 14.2921 18.9539C14.2921 18.733 14.1129 18.5538 13.8919 18.5538Z" fill="#EFD57A"/>
<path d="M16.3091 7.59622C16.2604 7.48018 16.2008 7.37082 16.1313 7.26938H17.1731C18.1881 7.26938 19.0138 6.44361 19.0138 5.42865C19.0138 4.41369 18.1881 3.58792 17.1731 3.58792H13.9686C14.1724 3.29173 14.292 2.93339 14.292 2.54751C14.292 1.53255 13.4662 0.706787 12.4512 0.706787H2.64737C1.63241 0.706787 0.806641 1.53255 0.806641 2.54751C0.806641 3.56247 1.63241 4.38824 2.64737 4.38824H5.85183C5.64811 4.68444 5.5285 5.04278 5.5285 5.42865C5.5285 5.81452 5.64807 6.17286 5.85183 6.46906H4.80822C3.79326 6.46906 2.96749 7.29483 2.96749 8.30979C2.96749 8.8927 3.24016 9.41286 3.66437 9.75035C3.24016 10.0878 2.96749 10.608 2.96749 11.1909C2.96749 11.7738 3.24016 12.294 3.66437 12.6315C3.24016 12.969 2.96749 13.4891 2.96749 14.0721C2.96749 14.655 3.24016 15.1751 3.66437 15.5126C3.24016 15.8501 2.96749 16.3703 2.96749 16.9532C2.96749 17.9682 3.79326 18.7939 4.80822 18.7939H9.52408C10.7664 20.1227 12.5337 20.9548 14.4921 20.9548C18.2431 20.9548 21.2948 17.9031 21.2948 14.1521C21.2948 11.0302 19.1807 8.39314 16.3091 7.59622ZM17.1731 4.38824C17.7468 4.38824 18.2135 4.85498 18.2135 5.42865C18.2135 6.00232 17.7468 6.46906 17.1731 6.46906H14.6121H7.36923C6.79552 6.46906 6.32882 6.00232 6.32882 5.42865C6.32882 4.85498 6.79552 4.38824 7.36923 4.38824H17.1731ZM2.64737 3.58792C2.07366 3.58792 1.60696 3.12118 1.60696 2.54751C1.60696 1.97385 2.07366 1.5071 2.64737 1.5071H12.4512C13.0249 1.5071 13.4916 1.97385 13.4916 2.54751C13.4916 3.12118 13.0249 3.58792 12.4512 3.58792H2.64737ZM4.80822 7.26938H14.6121C14.7733 7.26938 14.9276 7.30683 15.0661 7.3739C14.8768 7.35801 14.6854 7.34945 14.4921 7.34945C12.6135 7.34945 10.9105 8.11491 9.67822 9.3502H4.80822C4.23455 9.3502 3.76781 8.88345 3.76781 8.30979C3.76781 7.73612 4.23455 7.26938 4.80822 7.26938ZM4.80822 10.1505H8.99447C8.54021 10.7729 8.18899 11.4748 7.96594 12.2313H4.80822C4.23451 12.2313 3.76781 11.7646 3.76781 11.1909C3.76781 10.6173 4.23451 10.1505 4.80822 10.1505ZM4.80822 13.0316H7.78219C7.72149 13.3963 7.6894 13.7705 7.6894 14.1521C7.6894 14.4781 7.71296 14.7986 7.7575 15.1125H4.80822C4.23451 15.1125 3.76781 14.6458 3.76781 14.0721C3.76781 13.4984 4.23451 13.0316 4.80822 13.0316ZM4.80822 17.9936C4.23451 17.9936 3.76781 17.5269 3.76781 16.9532C3.76781 16.3795 4.23451 15.9128 4.80822 15.9128H7.92089C8.12281 16.6656 8.45082 17.3672 8.88099 17.9936H4.80822ZM14.4921 20.1545C11.1824 20.1545 8.48971 17.4618 8.48971 14.1521C8.48971 10.8424 11.1824 8.14976 14.4921 8.14976C17.8018 8.14976 20.4944 10.8424 20.4944 14.1521C20.4944 17.4618 17.8018 20.1545 14.4921 20.1545Z" fill="#EFD57A"/>
</svg>
