<svg width="16" height="14" viewBox="0 0 16 14" fill="none" xmlns="http://www.w3.org/2000/svg">
<path d="M14.9841 0H1.01589C0.454872 0 0 0.511699 0 1.14284V12.8572C0 13.4883 0.454872 14 1.01589 14H14.9841C15.5451 14 16 13.4883 16 12.8571V1.14284C16 0.511699 15.5452 0 14.9841 0ZM14.9841 1.14284V9.45455L12.9821 7.40683C12.6811 7.09912 12.2184 7.11141 11.9309 7.43513L9.9047 9.71425L5.90959 4.34569C5.6076 3.93997 5.05446 3.93598 4.74794 4.33683L1.01589 9.21628V1.14284H14.9841ZM10.6667 4.14284C10.6667 3.27484 11.2919 2.57141 12.0634 2.57141C12.835 2.57141 13.4603 3.27484 13.4603 4.14284C13.4603 5.01085 12.8351 5.71425 12.0634 5.71425C11.2919 5.71428 10.6667 5.01085 10.6667 4.14284Z" fill="white"/>
</svg>
