<svg width="19" height="20" viewBox="0 0 19 20" fill="none" xmlns="http://www.w3.org/2000/svg">
<g clip-path="url(#clip0)">
<path d="M15.778 2.06213H3.23066C1.65825 2.06213 0.378998 3.34139 0.378998 4.9138V12.6133C0.378998 14.1857 1.65825 15.465 3.23066 15.465H7.6151C8.00884 15.465 8.32801 15.1458 8.32801 14.752C8.32801 14.3583 8.00884 14.0391 7.6151 14.0391H3.23066C2.44446 14.0391 1.80483 13.3995 1.80483 12.6133V7.27074H17.2038V9.01738C17.2038 9.41109 17.523 9.7303 17.9167 9.7303C18.3105 9.7303 18.6297 9.41109 18.6297 9.01738V4.9138C18.6297 3.34135 17.3504 2.06213 15.778 2.06213ZM17.2038 5.8449H1.80483V4.91376C1.80483 4.12756 2.44446 3.48793 3.23066 3.48793H15.778C16.5642 3.48793 17.2038 4.12756 17.2038 4.91376V5.8449Z" fill="#20CAEB"/>
<path d="M18.3322 11.2875C18.012 11.0583 17.5667 11.132 17.3375 11.4522L13.8235 16.3606C13.7275 16.4719 13.6073 16.4959 13.5428 16.5002C13.4765 16.5048 13.3478 16.4961 13.2373 16.391L10.9624 14.2066C10.6783 13.9338 10.227 13.943 9.95438 14.227C9.68165 14.511 9.69081 14.9623 9.97481 15.235L12.252 17.4216C12.5931 17.7462 13.0483 17.9268 13.5167 17.9268C13.5569 17.9268 13.5973 17.9255 13.6376 17.9228C14.1479 17.8888 14.6243 17.6407 14.9446 17.2421C14.9529 17.2318 14.9609 17.2212 14.9686 17.2105L18.4969 12.2821C18.726 11.9619 18.6523 11.5166 18.3322 11.2875Z" fill="#20CAEB"/>
</g>
<defs>
<clipPath id="clip0">
<rect width="18.2507" height="18.2507" fill="white" transform="translate(0.378906 0.869141)"/>
</clipPath>
</defs>
</svg>
