<svg width="21" height="21" viewBox="0 0 21 21"  xmlns="http://www.w3.org/2000/svg">
<path d="M2.61526 4.41772L2.25027 2.88856C2.14948 2.43225 1.73433 2.11509 1.2676 2.13791C0.660505 2.16689 0.232798 2.7454 0.384141 3.33402L1.33873 7.28712C1.46265 7.80026 1.97814 8.11658 2.49173 7.99467L6.44672 7.04748C7.69206 6.7454 7.23909 4.87756 5.99376 5.17953L4.09207 5.63804C5.40862 3.97548 7.34873 2.81376 9.62869 2.57033C14.1373 2.08888 18.1616 5.34088 18.643 9.84946C18.7466 11.1635 20.7312 10.9495 20.5522 9.64375C19.9977 4.45133 15.5776 0.584654 9.94782 0.637934C6.64279 0.964643 4.24027 2.38267 2.61526 4.41783V4.41772ZM14.5383 13.9243C13.2417 14.1898 13.7096 16.1417 14.9856 15.7904L16.8854 15.3318C15.5689 16.9938 13.629 18.1505 11.3488 18.394C6.84022 18.8755 2.81782 15.6309 2.33637 11.1223C2.2902 10.6204 1.86319 10.24 1.35932 10.2519C0.793158 10.2664 0.362999 10.7662 0.432806 11.3282C1.02424 16.8668 6.01426 20.8965 11.5528 20.3051C14.3394 20.0077 16.7392 18.585 18.3641 16.5523L18.7347 18.0833C18.9681 19.4237 20.9942 18.9385 20.5952 17.6378L19.6463 13.6829C19.5384 13.2267 19.1163 12.9155 18.5672 12.9613L14.5383 13.9243Z" />
</svg>
