<svg width="14" height="14" viewBox="0 0 14 14"  xmlns="http://www.w3.org/2000/svg">
<g clip-path="url(#clip0)">
<path d="M14 7C14 3.14008 10.8599 4.74702e-07 7 3.0598e-07C3.14008 1.37257e-07 -1.37257e-07 3.14008 -3.0598e-07 7C-4.74702e-07 10.8599 3.14008 14 7 14C10.8599 14 14 10.8599 14 7ZM0.875 7C0.875 3.6225 3.6225 0.875 7 0.875C10.3775 0.875 13.125 3.6225 13.125 7C13.125 10.3775 10.3775 13.125 7 13.125C3.6225 13.125 0.875 10.3775 0.875 7Z"/>
<path d="M9.91638 1.67416L9.91638 0.927491C9.91638 0.685991 9.72038 0.489991 9.47888 0.489991C9.23738 0.489991 9.04138 0.685991 9.04138 0.927491L9.04138 1.67416C9.04138 2.00782 8.91188 2.32341 8.67679 2.56316C8.44346 2.79649 8.12904 2.92949 7.79304 2.93416C7.28263 2.94116 6.80429 3.11441 6.40938 3.43349C6.00863 3.77241 5.73971 4.22157 5.64346 4.70341C5.45913 5.55799 4.71596 6.15941 3.83804 6.15941L3.22554 6.15941C2.35054 6.15941 1.52921 5.73416 1.02871 5.02191C0.889876 4.82474 0.616876 4.77632 0.419126 4.91516C0.221376 5.05399 0.172376 5.32641 0.312376 5.52474C0.976209 6.47032 2.06529 7.03499 3.22554 7.03499L3.83804 7.03499C5.13188 7.03499 6.22679 6.14949 6.49979 4.88191C6.57446 4.50507 6.79496 4.25424 6.96704 4.10841C7.20038 3.91941 7.49263 3.81382 7.80471 3.80974C8.36938 3.80216 8.89963 3.57874 9.29863 3.17974C9.69763 2.77199 9.91638 2.23824 9.91638 1.67416Z"/>
<path d="M13.9589 7.70009C13.9589 7.57293 13.9035 7.44693 13.7973 7.36059L12.549 6.34559C11.2773 5.31776 9.44217 5.41051 8.27901 6.56084C7.48159 7.35768 7.21559 8.61943 7.63676 9.69159L7.77209 10.0276C7.94184 10.4558 7.78609 10.9586 7.40284 11.2158C6.80084 11.609 6.58501 12.4735 6.96359 13.1373L7.33051 13.7469C7.45534 13.954 7.72426 14.0211 7.93134 13.8963C8.13784 13.7714 8.20376 13.5031 8.08009 13.296L7.71842 12.6958C7.57609 12.4449 7.65076 12.0996 7.88642 11.9456C8.61151 11.4573 8.90317 10.5141 8.58526 9.70501L8.44992 9.36842C8.15767 8.62467 8.34142 7.73509 8.89617 7.18151C9.74026 6.34676 11.0749 6.27909 11.9983 7.02518L13.2461 8.03959C13.4333 8.19184 13.7093 8.16384 13.8615 7.97659C13.9268 7.89493 13.9589 7.79751 13.9589 7.70009Z"/>
<path d="M5.6817 11.4509C5.6817 10.5555 5.22086 9.74114 4.45028 9.27448C3.31511 8.59781 1.94836 8.43564 0.697113 8.82823C0.466696 8.90056 0.336029 9.14731 0.410696 9.37656C0.483029 9.60756 0.728613 9.73531 0.959029 9.66298C1.97228 9.34448 3.08061 9.47631 3.99878 10.0241C4.56228 10.3647 4.87961 11 4.79211 11.6556L4.60486 13.2067C4.57861 13.4424 4.74661 13.6641 4.98695 13.6932C5.2267 13.7224 5.44486 13.5515 5.47345 13.3117L5.66011 11.7659C5.6747 11.6638 5.6817 11.5576 5.6817 11.4509Z"/>
</g>
<defs>
<clipPath id="clip0">
<rect width="14" height="14" transform="matrix(-4.37114e-08 1 1 4.37114e-08 0 0)"/>
</clipPath>
</defs>
</svg>
