<svg width="16" height="17" viewBox="0 0 16 17" fill="none" xmlns="http://www.w3.org/2000/svg">
<g clip-path="url(#clip0)">
<path d="M11.4907 6.05686C11.7339 6.30004 11.7339 6.69422 11.4907 6.93727L7.31442 11.1137C7.07125 11.3567 6.67719 11.3567 6.43401 11.1137L4.44595 9.12547C4.20277 8.88242 4.20277 8.48824 4.44595 8.24518C4.689 8.00201 5.08318 8.00201 5.32624 8.24518L6.87416 9.79311L10.6103 6.05686C10.8535 5.81381 11.2476 5.81381 11.4907 6.05686ZM15.9366 8.58526C15.9366 12.9897 12.3722 16.5536 7.96832 16.5536C3.56383 16.5536 0 12.9891 0 8.58526C0 4.18078 3.56444 0.616943 7.96832 0.616943C12.3728 0.616943 15.9366 4.18138 15.9366 8.58526ZM14.6916 8.58526C14.6916 4.86896 11.6841 1.86199 7.96832 1.86199C4.25202 1.86199 1.24505 4.86944 1.24505 8.58526C1.24505 12.3016 4.2525 15.3085 7.96832 15.3085C11.6846 15.3085 14.6916 12.3011 14.6916 8.58526Z" fill="#20EB71"/>
</g>
<defs>
<clipPath id="clip0">
<rect width="15.9366" height="15.9366" fill="white" transform="translate(0 0.616943)"/>
</clipPath>
</defs>
</svg>
