<svg width="16" height="16" viewBox="0 0 16 16" fill="none" xmlns="http://www.w3.org/2000/svg">
<path fill-rule="evenodd" clip-rule="evenodd" d="M13.8334 14.6276H8.99805C8.72205 14.6276 8.49805 14.4036 8.49805 14.1276C8.49805 13.8516 8.72205 13.6276 8.99805 13.6276H13.8334C14.1094 13.6276 14.3334 13.8516 14.3334 14.1276C14.3334 14.4036 14.1094 14.6276 13.8334 14.6276Z" fill="white"/>
<mask id="mask0" mask-type="alpha" maskUnits="userSpaceOnUse" x="1" y="2" width="12" height="13">
<path fill-rule="evenodd" clip-rule="evenodd" d="M1.33398 2H12.7877V14.6264H1.33398V2Z" fill="white"/>
</mask>
<g mask="url(#mask0)">
<path fill-rule="evenodd" clip-rule="evenodd" d="M8.73994 3.34332L2.46328 11.1933C2.34928 11.336 2.30728 11.52 2.34928 11.6967L2.80328 13.62L4.82928 13.5947C5.02194 13.5927 5.19994 13.5066 5.31794 13.36C7.46261 10.6767 11.5513 5.56065 11.6673 5.41065C11.7766 5.23332 11.8193 4.98265 11.7619 4.74132C11.7033 4.49398 11.5493 4.28398 11.3273 4.14998C11.2799 4.11732 10.1566 3.24532 10.1219 3.21798C9.69928 2.87932 9.08261 2.93798 8.73994 3.34332ZM2.4095 14.6264C2.17817 14.6264 1.97683 14.4678 1.92283 14.2418L1.37683 11.9278C1.26417 11.4484 1.37617 10.9538 1.6835 10.5698L7.9635 2.7151C7.96617 2.71243 7.96817 2.7091 7.97083 2.70643C8.6595 1.8831 9.90483 1.76176 10.7448 2.43576C10.7782 2.46176 11.8935 3.32843 11.8935 3.32843C12.2988 3.56976 12.6155 4.0011 12.7355 4.51176C12.8548 5.0171 12.7682 5.53843 12.4902 5.97909C12.4695 6.01176 12.4515 6.03976 6.0995 13.9864C5.7935 14.3678 5.33483 14.5898 4.84217 14.5958L2.41617 14.6264H2.4095Z" fill="white"/>
</g>
<path fill-rule="evenodd" clip-rule="evenodd" d="M10.8163 7.78898C10.7096 7.78898 10.6029 7.75498 10.5116 7.68564L6.87693 4.89364C6.65826 4.72564 6.61693 4.41231 6.78493 4.19231C6.9536 3.97364 7.26693 3.93298 7.48626 4.10098L11.1216 6.89231C11.3403 7.06031 11.3816 7.37431 11.2129 7.59364C11.1149 7.72164 10.9663 7.78898 10.8163 7.78898Z" fill="white"/>
</svg>
