<svg width="16" height="16" viewBox="0 0 16 16" fill="none" xmlns="http://www.w3.org/2000/svg">
<path d="M13.7082 15.6666H9.79163V9.79163H11.6911L12.1905 7.83322H9.79163V5.48324C9.79163 4.83436 10.3176 4.30825 10.9666 4.30825H12.1416V2.34998H10.9666C9.23727 2.35271 7.83595 3.75389 7.83322 5.48324V7.83322H5.87495V9.79163H7.83322V15.6666H1.95827C0.876796 15.6666 0 14.7898 0 13.7082V1.95827C0 0.876796 0.876796 0 1.95827 0H13.7082C14.7898 0 15.6666 0.876796 15.6666 1.95827V13.7082C15.6666 14.7898 14.7898 15.6666 13.7082 15.6666ZM10.5749 14.8832H13.7082C14.3572 14.8832 14.8832 14.3572 14.8832 13.7082V1.95827C14.8832 1.30939 14.3572 0.783279 13.7082 0.783279H1.95827C1.30939 0.783279 0.783279 1.30939 0.783279 1.95827V13.7082C0.783279 14.3572 1.30939 14.8832 1.95827 14.8832H7.04994V10.5749H5.09167V7.04994H7.04994V5.48324C7.05267 3.3213 8.80454 1.56928 10.9666 1.5667H12.9249V5.09167H10.9666C10.7503 5.09167 10.5749 5.26695 10.5749 5.48324V7.04994H13.199L12.2982 10.5749H10.5749V14.8832Z" fill="#3DC4DE"/>
</svg>
