<svg width="14" height="14" viewBox="0 0 14 14"  xmlns="http://www.w3.org/2000/svg">
<path d="M10.5786 4.54146C10.2913 4.63599 9.98192 4.48 9.88731 4.19311C9.27612 2.33951 7.55169 1.09416 5.59631 1.09416C0.921893 1.14332 -0.638564 7.31428 3.44628 9.57444C3.94484 9.85178 3.74627 10.5988 3.18476 10.6021C3.09656 10.6021 3.00716 10.5808 2.92419 10.5358C-2.15142 7.72559 -0.209128 0.0612238 5.59637 0.000440595C7.97072 -0.0307303 10.2127 1.59527 10.9273 3.851C11.0219 4.13785 10.8657 4.44699 10.5786 4.54146ZM7.15661 6.42602C7.15661 6.05314 6.99089 5.69257 6.70196 5.43675C6.42672 5.19307 6.06325 5.05887 5.67843 5.05887C5.41316 5.05887 5.21308 4.94132 5.21308 4.78544C5.21308 4.63467 5.33588 4.51201 5.48682 4.51201C5.68128 4.51201 5.91782 4.534 6.32858 4.69357C6.61042 4.803 6.92765 4.66358 7.03726 4.38211C7.14683 4.10061 7.00723 3.78368 6.72545 3.67423C6.55012 3.60612 6.39387 3.55581 6.25328 3.51876V3.39096C6.22437 2.66539 5.187 2.66593 5.15834 3.39096V3.45811C3.54163 3.94697 3.88133 6.15762 5.67843 6.15256C5.88617 6.15259 6.06166 6.27779 6.06166 6.42602C6.06166 6.57424 5.93003 6.69944 5.77424 6.69944C5.65982 6.69944 5.26901 6.66218 4.84048 6.49205C4.55954 6.38049 4.24116 6.51759 4.1295 6.79823C4.01782 7.07891 4.15504 7.39685 4.43603 7.50841C4.68644 7.60783 4.9353 7.67692 5.15836 7.72212V7.79319C5.18727 8.51876 6.22465 8.51821 6.25331 7.79319V7.70853C6.78011 7.51538 7.15661 7.01337 7.15661 6.42602ZM13.4525 10.336C13.1502 10.336 12.9051 10.5809 12.9051 10.8829V13.4531C12.934 14.1787 13.9713 14.1782 14 13.4531V10.8829C14 10.5809 13.7549 10.336 13.4525 10.336ZM11.2626 10.9649C10.9603 10.9649 10.7152 11.2098 10.7152 11.5118V13.4531C10.7441 14.1787 11.7815 14.1782 11.8101 13.4531V11.5118C11.8101 11.2098 11.565 10.9649 11.2626 10.9649ZM9.07276 12.168C8.77039 12.168 8.52529 12.4128 8.52529 12.7149V13.4531C8.55419 14.1787 9.59157 14.1782 9.62023 13.4531V12.7149C9.62023 12.4128 9.37513 12.168 9.07276 12.168ZM6.88287 11.7032C6.5805 11.7032 6.3354 11.948 6.3354 12.25V13.4531C6.36431 14.1787 7.40168 14.1782 7.43034 13.4531V12.25C7.43034 11.948 7.18524 11.7032 6.88287 11.7032ZM2.76564 14C2.28406 14.0029 2.03285 13.4074 2.37981 13.0651L5.55399 9.9159C5.5604 9.90952 5.567 9.90335 5.5737 9.89727C6.26746 9.27408 7.30078 9.23894 8.035 9.81232L8.08107 9.84601C8.08657 9.85 8.09199 9.85413 8.09733 9.85837C8.43621 10.1261 8.92811 10.0845 9.21712 9.76371C9.21973 9.76083 9.22235 9.75799 9.22501 9.75517L11.1647 7.69224C11.3717 7.4721 11.7181 7.46122 11.9386 7.66801C12.159 7.87478 12.1698 8.22086 11.9628 8.44099L10.0268 10.5C9.35432 11.2416 8.21566 11.3389 7.42687 10.7231L7.38074 10.6894C7.37524 10.6854 7.36985 10.6812 7.36448 10.677C7.0527 10.4307 6.61316 10.4421 6.31482 10.7027L3.15144 13.8411C3.04466 13.9471 2.90511 14 2.76564 14ZM14 8.69547V7.21896C14 6.31435 13.2632 5.57839 12.3576 5.57839H10.8794C10.153 5.60726 10.1536 6.64347 10.8794 6.6721H12.3576C12.6595 6.6721 12.9051 6.91742 12.9051 7.21896V8.69547C12.9051 8.9975 13.1502 9.24233 13.4525 9.24233C13.7549 9.24233 14 8.99748 14 8.69547Z" />
</svg>
