<svg width="17" height="12" viewBox="0 0 17 12" fill="none" xmlns="http://www.w3.org/2000/svg">
<path d="M0 0.934814H16.337V11.8262H0V0.934814Z" fill="#00AFCA"/>
<path d="M6.81333 6.97457C7.65639 6.97457 8.33982 6.31847 8.33982 5.50913C8.33982 4.6998 7.65639 4.0437 6.81333 4.0437C5.97027 4.0437 5.28683 4.6998 5.28683 5.50913C5.28683 6.31847 5.97027 6.97457 6.81333 6.97457Z" fill="#FEC50C"/>
<path d="M6.81373 3.84393C6.9045 3.84284 6.93853 3.78839 6.93853 3.72304C6.93853 3.63591 6.81373 3.22095 6.81373 3.22095C6.81373 3.22095 6.68893 3.63591 6.68893 3.72304C6.68893 3.78839 6.72297 3.84393 6.81373 3.84393Z" fill="#FEC50C"/>
<path d="M6.53986 8.68384C6.49902 8.68602 6.45931 8.69109 6.42035 8.70307C6.36703 8.70998 6.31598 8.72776 6.26304 8.73612L6.24186 8.73938L6.20631 8.74265C6.20858 8.75208 6.21009 8.76153 6.21009 8.77097C6.21009 8.78077 6.20896 8.7902 6.20631 8.7982C6.20405 8.80582 6.19685 8.81525 6.19118 8.82107C6.18362 8.82905 6.17568 8.83595 6.16622 8.8403C6.15714 8.84466 6.14693 8.84648 6.13672 8.84721C6.12651 8.84757 6.11593 8.84721 6.10609 8.84357C6.09588 8.8403 6.08643 8.83414 6.07773 8.82687C6.06714 8.82941 6.05617 8.83123 6.04596 8.83232C6.03538 8.83341 6.02554 8.83341 6.01609 8.83232C6.0055 8.82941 5.99453 8.82614 5.98432 8.82216C5.97404 8.81807 5.96417 8.81308 5.95483 8.80727C5.91625 8.82905 5.87314 8.84975 5.84969 8.88787C5.83646 8.90529 5.83381 8.92526 5.83079 8.94595C5.8289 8.97137 5.8357 8.99823 5.84705 9.02183C5.85121 9.02872 5.85461 8.99678 5.86747 8.99242C5.88902 8.97536 5.91588 8.96302 5.94311 8.95612C5.96617 8.94486 5.96314 8.95684 5.95369 8.97427C5.95142 8.98335 5.93857 9.01783 5.95596 9.00041C6.03273 8.96773 6.11782 8.9612 6.20064 8.95503C6.3209 8.94305 6.44153 8.9405 6.56217 8.93906C6.67562 8.9405 6.78907 8.94196 6.90252 8.94595C6.9566 8.94741 7.01106 8.95902 7.06438 8.95031C7.07723 8.94704 7.09728 8.94632 7.10485 8.93906C7.08064 8.92563 7.05227 8.92526 7.02543 8.92199H6.80911C6.74899 8.91618 6.68621 8.91545 6.62949 8.89367C6.61435 8.88787 6.60036 8.87407 6.58599 8.88896C6.56443 8.89622 6.54137 8.9013 6.51868 8.90276C6.47897 8.90565 6.43926 8.89767 6.40258 8.88351C6.42905 8.8483 6.46082 8.81743 6.48994 8.78476C6.46649 8.78113 6.4438 8.77641 6.42035 8.77097C6.46158 8.74374 6.49977 8.71287 6.53986 8.68384Z" fill="#FEC50C"/>
<path d="M8.30838 9.05987C8.22619 9.10725 8.16345 9.02325 8.09474 8.99806C8.04568 9.02365 8.04109 9.10924 7.99525 9.14978C7.94039 9.2097 7.87317 9.13304 7.87818 9.07392C7.81258 9.12701 7.77941 9.24733 7.67332 9.23126C7.62306 9.19188 7.58572 9.10926 7.54732 9.20333C7.516 9.24932 7.43262 9.31475 7.38944 9.24531C7.37607 9.18399 7.34406 9.11189 7.30931 9.20928C7.28546 9.27817 7.2089 9.32884 7.13483 9.29869C7.09428 9.26686 7.16733 9.14918 7.11572 9.15756C7.03858 9.20651 6.99373 9.32809 6.88608 9.31836C6.84427 9.27331 6.91144 9.19698 6.86559 9.14698C6.81147 9.21367 6.75142 9.31132 6.6578 9.31836C6.61255 9.28315 6.65958 9.1822 6.63068 9.16726C6.53462 9.22257 6.43327 9.32113 6.31245 9.29027C6.35953 9.11739 6.55626 9.05673 6.72171 9.04325C7.00634 9.00966 7.3058 9.07142 7.57967 8.97278C7.62392 8.94694 7.73113 8.91028 7.69295 8.85033C7.65915 8.80299 7.78091 8.8215 7.79262 8.76621C7.78537 8.69618 7.84852 8.70582 7.9102 8.69968C8.18675 8.68823 8.45993 8.74414 8.73565 8.75364C8.75648 8.88261 8.60745 8.97318 8.48747 8.93335C8.43015 8.94227 8.34421 8.80684 8.36106 8.90536C8.34951 8.95707 8.3576 9.02536 8.30838 9.05989V9.05987ZM5.9554 8.7958C6.01942 8.85205 6.06431 8.7852 6.12416 8.76077C6.32487 8.6945 6.5 8.57868 6.67265 8.46296C6.77725 8.37986 6.86795 8.27209 7.00843 8.24513C7.28248 8.16559 7.57379 8.17524 7.84888 8.10184C8.05837 7.8265 8.41417 7.72827 8.71222 7.57001C8.77914 7.55005 8.805 7.49717 8.82637 7.43879C8.94014 7.26638 9.09513 7.11361 9.27842 7.00925C9.36514 6.96375 9.46861 6.93756 9.56679 6.95836C9.55976 7.07062 9.49267 7.17011 9.41168 7.24775C9.47796 7.24635 9.53492 7.20615 9.6019 7.20842C9.62486 7.32363 9.49526 7.38392 9.4263 7.45565C9.46471 7.46422 9.61183 7.47491 9.53165 7.51184C9.42949 7.57991 9.31282 7.62664 9.21851 7.70569C9.30552 7.7207 9.31544 7.73846 9.22696 7.76867C9.17906 7.79984 9.08695 7.81073 9.07804 7.87145C9.14378 7.91023 9.04776 7.94875 9.01073 7.96136C8.93991 7.97719 8.86553 8.00672 8.9596 8.05837C8.92402 8.10997 8.84768 8.12098 8.78538 8.11587C8.80428 8.17436 8.83165 8.23981 8.75257 8.26561C8.57531 8.39423 8.36729 8.48781 8.14447 8.50922C8.42282 8.52976 8.70953 8.48016 8.94739 8.33483C8.97879 8.29919 9.14346 8.26088 9.05136 8.23091C9.008 8.21359 8.91503 8.19435 8.90875 8.16261C9.03757 8.0863 9.19991 8.11345 9.3385 8.06812C9.34209 8.02504 9.23308 8.03702 9.19245 8.02722C9.09552 8.01959 9.10121 7.99585 9.19466 7.98705C9.3129 7.95699 9.44682 7.95108 9.54628 7.87707C9.4653 7.84105 9.36344 7.87276 9.27703 7.84335C9.42351 7.78181 9.59631 7.77564 9.72773 7.6832C9.7876 7.61927 9.65104 7.63925 9.61125 7.6408C9.53013 7.65436 9.49263 7.61708 9.5848 7.58472C9.74215 7.47334 9.94141 7.40099 10.0519 7.2395C10.0781 7.20335 10.1136 7.09444 10.0301 7.13362C9.92025 7.16867 9.82361 7.28719 9.69848 7.25053C9.94504 7.06708 10.1797 6.85823 10.3482 6.60435C10.3569 6.53113 10.2372 6.52321 10.206 6.58069C10.0476 6.72723 9.90422 6.90019 9.7014 6.99206C9.89564 6.81208 10.0562 6.59897 10.1963 6.37809C10.2264 6.3124 10.3071 6.23339 10.2633 6.16045C10.1927 6.10433 10.1043 6.1557 10.0676 6.22286C9.94448 6.37719 9.85098 6.55732 9.69262 6.68302C9.83126 6.42902 9.97479 6.15863 9.97829 5.86567C9.97786 5.80535 9.96524 5.71652 9.87993 5.72778C9.81229 5.73942 9.82835 5.83661 9.80047 5.88576C9.73908 6.08591 9.71026 6.30267 9.58434 6.47792C9.61267 6.31528 9.66224 6.14574 9.62419 5.9815C9.60641 5.9081 9.48294 5.93967 9.49884 6.01232C9.35133 6.72962 8.84997 7.35696 8.19426 7.71986C7.89403 7.88294 7.55867 7.98808 7.21749 8.03574C7.12571 8.05502 7.02644 8.04371 6.93872 8.07375C6.72615 8.23022 6.59745 8.49205 6.32832 8.57404C6.2077 8.63159 6.05041 8.64327 5.96417 8.75084C5.9567 8.7646 5.95509 8.78054 5.95539 8.7958" fill="#FEC50C"/>
<path d="M6.75977 8.06902C6.72006 8.13822 6.69669 8.21777 6.64563 8.27973C6.49201 8.14554 6.2693 8.14997 6.07444 8.14104C5.9136 8.1328 5.73869 8.11855 5.61424 8.00843C5.48333 7.90548 5.37647 7.77182 5.23019 7.6883C5.09667 7.65345 4.96207 7.60984 4.85472 7.52198C4.62532 7.34246 4.49394 7.07612 4.26979 6.89101C4.22705 6.85062 4.17665 6.81933 4.12878 6.78507C4.08328 6.79571 4.10388 6.88996 4.0482 6.84192C4.01791 6.82123 3.94215 6.81921 3.93532 6.84812C4.00386 6.93481 4.07246 7.0338 4.08196 7.14469C4.03521 7.14928 3.95211 7.13521 3.92894 7.15192C3.99101 7.24123 4.07058 7.32044 4.16098 7.3835C4.11761 7.39019 4.03217 7.38655 4.01555 7.40333C4.10528 7.47353 4.2015 7.54528 4.319 7.56332C4.34305 7.59375 4.28383 7.65252 4.33364 7.67851C4.36251 7.68983 4.4578 7.70878 4.39217 7.74032C4.34713 7.76945 4.36384 7.83736 4.42144 7.83583C4.45786 7.85369 4.53962 7.85806 4.54602 7.88898C4.51374 7.92051 4.4133 7.9579 4.49879 7.98744C4.57865 8.02996 4.66973 8.05757 4.76092 8.0606C4.71515 8.09756 4.65877 8.11854 4.61166 8.15332C4.82211 8.27178 5.05541 8.34969 5.28594 8.42472C5.37772 8.45416 5.47057 8.4816 5.56571 8.49889C5.28925 8.48356 5.02204 8.40499 4.77024 8.29745C4.63974 8.2425 4.50835 8.18941 4.3746 8.14209C4.43325 8.11279 4.50108 8.10563 4.5619 8.08028C4.43565 8.05599 4.29773 8.04804 4.18675 7.98142C4.20377 7.95227 4.26824 7.9509 4.3039 7.93607C4.37096 7.92064 4.41257 7.90193 4.318 7.89633C4.22265 7.87149 4.11328 7.88264 4.02925 7.82741C4.03466 7.7943 4.12261 7.80585 4.15842 7.79155C4.20353 7.78411 4.25368 7.77788 4.28972 7.74874C4.1423 7.69007 3.94948 7.73165 3.83401 7.60667C3.80738 7.55905 3.9167 7.59741 3.94783 7.58947C4.02694 7.58947 4.11196 7.61361 4.1873 7.58299C3.97249 7.49245 3.7424 7.40769 3.57857 7.24023C3.56039 7.2133 3.50588 7.13975 3.54986 7.13066C3.67737 7.14686 3.76966 7.28045 3.90605 7.25966C3.92417 7.23621 3.82682 7.19778 3.80251 7.16427C3.60366 7.00045 3.41065 6.82267 3.27128 6.60809C3.26169 6.53643 3.37902 6.5257 3.40991 6.58104C3.562 6.72166 3.69937 6.88575 3.88879 6.98174C3.956 7.01303 3.8502 6.94471 3.83611 6.91993C3.66108 6.72483 3.49447 6.51876 3.37215 6.28898C3.35025 6.24757 3.31397 6.17259 3.37948 6.15055C3.44497 6.11905 3.50996 6.16196 3.54316 6.21597C3.67184 6.37177 3.76653 6.55695 3.92682 6.68675C3.79026 6.43234 3.64445 6.16453 3.64092 5.87177C3.64414 5.81503 3.64794 5.72918 3.7281 5.73151C3.79541 5.72171 3.78478 5.80444 3.80684 5.84389C3.87316 6.05896 3.90208 6.29175 4.03512 6.48164C4.00574 6.3221 3.96248 6.15779 3.99122 5.9956C3.99784 5.94234 4.0603 5.92622 4.10106 5.95841C4.13402 6.03585 4.14088 6.13148 4.17091 6.21426C4.34177 6.77538 4.72541 7.26889 5.22534 7.60008C5.63708 7.87117 6.12572 8.03301 6.62443 8.06123C6.66947 8.065 6.71469 8.0663 6.7598 8.06896" fill="#FEC50C"/>
<path d="M6.12614 8.81143C6.14079 8.81143 6.15267 8.80003 6.15267 8.78596C6.15267 8.7719 6.14079 8.7605 6.12614 8.7605C6.11149 8.7605 6.09961 8.7719 6.09961 8.78596C6.09961 8.80003 6.11149 8.81143 6.12614 8.81143Z" fill="#FEC50C"/>
<path d="M6.1237 8.79209C6.12956 8.79209 6.13431 8.78753 6.13431 8.78191C6.13431 8.77629 6.12956 8.77173 6.1237 8.77173C6.11785 8.77173 6.1131 8.77629 6.1131 8.78191C6.1131 8.78753 6.11785 8.79209 6.1237 8.79209Z" fill="#FEC50C" stroke="#00AFCA" stroke-width="0.1729"/>
<path d="M1.36013 1.72914C1.36013 1.72914 1.2511 1.64118 1.21407 1.6853C1.15451 1.75626 1.39718 2.10972 1.39718 2.23418C1.39718 2.4385 1.25517 2.49405 1.07982 2.52323C0.96216 2.54281 0.770563 2.51504 0.770563 2.51504C0.806641 2.4685 0.830102 2.45479 0.89089 2.45107C0.823216 2.41734 0.754305 2.34412 0.754305 2.23015C0.754305 2.05439 0.829671 1.98194 0.829671 1.78379C0.829671 1.67387 0.735779 1.53394 0.735779 1.53394C0.901747 1.54988 0.983999 1.6974 0.937201 1.8153C0.963612 1.81895 0.987596 1.81323 1.0082 1.7945C1.02034 1.82717 1.00116 1.86511 0.975491 1.89779C0.996173 1.9084 1.01136 1.90204 1.04431 1.89551C1.04118 1.92918 1.02017 1.96495 0.968752 1.99863C1.11795 1.96143 1.20976 2.06126 1.20976 2.16578C1.20976 2.24472 1.15213 2.3013 1.09581 2.3013C1.07761 2.3013 1.05087 2.2941 1.03579 2.28328C1.02515 2.30501 1.03063 2.33409 1.04158 2.35582C1.0003 2.34534 0.974095 2.32181 0.992747 2.27282C0.961037 2.27002 0.935817 2.25974 0.918663 2.24014C0.936043 2.21876 0.962421 2.20645 0.992747 2.20746C0.969659 2.16171 0.99539 2.13612 1.03289 2.11536C1.03289 2.11536 1.00904 2.20746 1.06993 2.20746C1.0973 2.20746 1.12225 2.1989 1.12225 2.16016C1.12225 2.12643 1.09154 2.0797 1.02053 2.08267C0.949533 2.08565 0.891968 2.12967 0.891968 2.23849C0.891968 2.33886 0.976307 2.38879 1.08744 2.39201C1.18766 2.39498 1.26329 2.34287 1.26329 2.24362C1.26329 2.11153 1.06466 1.81043 1.06466 1.69273C1.06466 1.6044 1.14739 1.55511 1.22834 1.55511C1.33331 1.55511 1.42187 1.65488 1.42187 1.65488L1.3602 1.72911L1.36013 1.72914Z" fill="#FEC50C"/>
<path d="M1.38459 4.11661C1.38459 4.33737 1.17813 4.45084 1.01589 4.45084C0.797317 4.45084 0.680939 4.32538 0.680939 4.16115C0.680939 4.06805 0.698705 4.00964 0.743416 3.92054C0.743416 3.92054 1.10397 3.20072 1.24434 2.92231C1.26184 2.88759 1.26749 2.84806 1.26749 2.79011C1.26749 2.70062 1.17707 2.62747 1.08226 2.62523C0.995835 2.62316 0.90167 2.70258 0.90167 2.79309C0.90167 2.90301 0.961073 2.95202 1.02206 2.95202C1.09712 2.95202 1.12703 2.9224 1.12703 2.87181C1.12703 2.83655 1.1093 2.82131 1.08381 2.82131C1.01943 2.82131 1.03751 2.9045 1.03751 2.9045C1.00554 2.89778 0.97926 2.86641 0.994281 2.82724C0.970004 2.82209 0.948091 2.8096 0.931769 2.7916C0.949025 2.77553 0.968822 2.76314 0.994281 2.75892C0.979203 2.71113 0.999352 2.68779 1.04291 2.67797C1.03411 2.69634 1.03382 2.71325 1.03673 2.72921C1.10529 2.71049 1.21038 2.74028 1.21038 2.85398C1.21038 2.96687 1.12877 3.06193 0.975754 3.03818C1.01215 3.05488 1.03066 3.08907 1.03441 3.1273C1.00661 3.11691 0.975754 3.11543 0.975754 3.11543C0.993645 3.14571 1.01849 3.17181 1.01742 3.23128C0.989062 3.2189 0.962707 3.19597 0.926357 3.21048C0.983423 3.31828 0.91331 3.46655 0.734953 3.50164C0.800233 3.42817 0.832192 3.34886 0.832192 3.2699C0.832192 3.014 0.758108 2.97099 0.758108 2.79308C0.758108 2.71863 0.797964 2.63826 0.87696 2.58362V2.5866C0.82475 2.57317 0.791304 2.54849 0.772074 2.51495C0.891369 2.48248 1.06478 2.48308 1.15788 2.51824C1.26491 2.53015 1.33963 2.60897 1.36164 2.64898C1.38365 2.68896 1.42641 2.83362 1.36164 2.96387C1.29073 3.10642 0.956479 3.78683 0.852262 4.00071C0.830162 4.04607 0.816752 4.09419 0.816752 4.14628C0.816752 4.27731 0.941775 4.32305 1.0128 4.32305C1.09769 4.32305 1.18413 4.26097 1.18413 4.18342C1.18413 4.13429 1.15633 4.1047 1.11621 4.1047C1.02025 4.1047 1.02608 4.18306 1.04521 4.23245C0.985488 4.20667 0.950772 4.16065 0.960313 4.11213C0.926505 4.10767 0.894318 4.09228 0.864617 4.06013C0.887988 4.03182 0.916487 4.01039 0.960313 4.00963C0.941174 3.93435 0.993668 3.90251 1.04521 3.88486C1.02891 3.94011 1.01821 4.00369 1.11621 4.00369C1.18768 4.00369 1.24393 4.01558 1.27674 4.06014C1.27867 4.00072 1.28446 3.76602 1.28446 3.76602C1.28859 3.67782 1.1615 3.68034 1.08072 3.7066C1.1112 3.60502 1.17373 3.55009 1.31842 3.564C1.2833 3.5499 1.24587 3.51817 1.24587 3.45705C1.24589 3.37435 1.31578 3.28273 1.36166 3.25564L1.3846 4.11662L1.38459 4.11661Z" fill="#FEC50C"/>
</svg>
