<svg width="16" height="11" viewBox="0 0 16 11" fill="none" xmlns="http://www.w3.org/2000/svg">
<g clip-path="url(#clip0)">
<path d="M1.52812 10.757H14.8284C15.4755 10.757 16 10.2325 16 9.58539V8.05981H0.356537V9.58539C0.356537 10.2325 0.881052 10.757 1.52812 10.757Z" fill="#73AF00"/>
<path d="M16 1.67939C16 1.03236 15.4755 0.507812 14.8284 0.507812H1.52812C0.881052 0.507812 0.356537 1.03233 0.356537 1.67939V8.05986H16V1.67939Z" fill="#FF4B55"/>
<path d="M1.52812 10.757H2.51427V0.507812H1.52812C0.881052 0.507812 0.356537 1.03233 0.356537 1.67939V9.58543C0.356537 10.2325 0.881052 10.757 1.52812 10.757Z" fill="#F5F5F5"/>
<path d="M2.24355 7.57928H2.14859V7.8466H2.24355V7.57928Z" fill="#FF4B55"/>
<path d="M0.721396 2.25565H0.626007V2.52299H0.721396V2.25565Z" fill="#FF4B55"/>
<path d="M0.625153 3.0597H0.673061V3.1953H0.720541V3.329H0.862921V3.1953H0.91086V3.0597H0.957393V2.88145H0.91086V2.74585H0.862921V2.61414H0.720541V2.74585H0.673061V2.88145H0.625153V3.0597ZM0.720541 2.92603H0.767563V2.83693H0.816449V2.92603H0.862921V3.01512H0.816449V3.10617H0.767563V3.01512H0.720541V2.92603Z" fill="#FF4B55"/>
<path d="M0.721396 3.41818H0.626007V3.68742H0.721396V3.41818Z" fill="#FF4B55"/>
<path d="M1.48186 2.25565H1.38644V2.52299H1.48186V2.25565Z" fill="#FF4B55"/>
<path d="M1.24422 2.61414V2.74585H1.19674V2.88145H1.1488V3.0597H1.19674V3.1953H1.24422V3.329H1.3866V3.1953H1.48202V3.329H1.62489V3.1953H1.67332V3.0597H1.71985V2.88145H1.67332V2.74585H1.62489V2.61414H1.48202V2.74585H1.3866V2.61414H1.24422ZM1.48205 2.92603H1.52999V2.83693H1.57793V2.92603H1.62489V3.01512H1.57793V3.10617H1.52999V3.01512H1.48205V2.92603ZM1.38663 3.01515H1.33967V3.1062H1.29121V3.01515H1.24425V2.92606H1.29121V2.83696H1.33967V2.92606H1.38663V3.01515Z" fill="#FF4B55"/>
<path d="M0.721396 6.55084H0.626007V6.72903H0.721396V6.55084Z" fill="#FF4B55"/>
<path d="M0.721396 4.53766H0.626007V4.71585H0.721396V4.53766Z" fill="#FF4B55"/>
<path d="M1.48186 3.41818H1.38644V3.68742H1.48186V3.41818Z" fill="#FF4B55"/>
<path d="M0.721396 7.57928H0.626007V7.8466H0.721396V7.57928Z" fill="#FF4B55"/>
<path d="M0.720541 5.63435V5.63242V5.49878H0.625153V5.63242V5.63435V5.76802H0.720541V5.63435Z" fill="#FF4B55"/>
<path d="M0.721396 10.0416H0.626007V10.3089H0.721396V10.0416Z" fill="#FF4B55"/>
<path d="M2.24355 10.0416H2.14859V10.3089H2.24355V10.0416Z" fill="#FF4B55"/>
<path d="M0.721396 8.74371H0.626007V9.01106H0.721396V8.74371Z" fill="#FF4B55"/>
<path d="M1.48186 10.0416H1.38644V10.3089H1.48186V10.0416Z" fill="#FF4B55"/>
<path d="M2.00414 2.61221V2.74585H1.95718V2.88145H1.90924V3.0597H1.95718V3.19334H2.00414V3.32705H2.14753V3.19334H2.19501V3.0597H2.24197V2.88145H2.19501V2.74585H2.14753V2.61221H2.00414ZM2.14753 3.01516H2.09959V3.10422H2.05162V3.01516H2.00414V2.9241H2.05162V2.8369H2.09956V2.9241H2.1475L2.14753 3.01516Z" fill="#FF4B55"/>
<path d="M2.24355 0.957703H2.14859V1.22505H2.24355V0.957703Z" fill="#FF4B55"/>
<path d="M0.721396 0.957703H0.626007V1.22505H0.721396V0.957703Z" fill="#FF4B55"/>
<path d="M2.24355 3.41818H2.14859V3.68742H2.24355V3.41818Z" fill="#FF4B55"/>
<path d="M2.24355 2.25565H2.14859V2.52299H2.24355V2.25565Z" fill="#FF4B55"/>
<path d="M1.48186 0.957703H1.38644V1.22505H1.48186V0.957703Z" fill="#FF4B55"/>
<path d="M1.10067 9.36975H1.00623V9.59255H1.10067V9.36975Z" fill="#FF4B55"/>
<path d="M1.24422 5.63435V5.63242V5.49878H1.1488V5.63242V5.63435V5.76802H1.24422V5.63435Z" fill="#FF4B55"/>
<path d="M1.76896 0.777527V1.00231H1.67403V1.22511H1.57864V1.4498H1.48273V1.6726H1.38731V1.4498H1.29189V1.22511H1.19745V1.00231H1.10255V0.777527H1.00713V1.00231H0.911714V1.22511H0.817273V1.4498H0.721365V1.6726H0.626007V1.89738H0.721396V2.12018H0.817304V2.34487H0.911745V2.56956H1.00716V2.79236H1.10161V2.56956H1.19751V2.34487H1.29195V2.12018H1.38737V1.89738H1.48279V2.12018H1.5787V2.34487H1.67314V2.56956H1.76902V2.79236H1.86398V2.56956H1.95888V2.34487H2.05427V2.12018H2.14917V1.89738H2.24413V1.6726H2.14966V1.4498H2.05424V1.22511H1.95885V1.00231H1.86395V0.777527H1.76896ZM1.29189 1.89732H1.19745V2.12012H1.10154V2.34481H1.00713V2.12012H0.911714V1.89732H0.817273V1.67254H0.911714V1.44974H1.00713V1.22505H1.10157V1.44974H1.19748V1.67254H1.29192L1.29189 1.89732ZM1.95888 1.4498V1.6726H2.05427V1.89738H1.95888V2.12018H1.86398V2.34487H1.76902V2.12018H1.67409V1.89738H1.5787V1.6726H1.67409V1.4498H1.76902V1.22511H1.86398V1.4498H1.95888Z" fill="#FF4B55"/>
<path d="M1.48186 5.16345H1.38644V5.38625H1.48186V5.16345Z" fill="#FF4B55"/>
<path d="M1.48186 5.88019H1.38644V6.10299H1.48186V5.88019Z" fill="#FF4B55"/>
<path d="M1.62494 5.63242V5.63435V5.76802H1.71987V5.63435V5.63242V5.49878H1.62494V5.63242Z" fill="#FF4B55"/>
<path d="M1.6732 10.0416V10.2644H1.76813V10.4873H1.8631V10.2644H1.958V10.0416H2.05338V9.81696H2.1488V9.59226H2.24327V9.36947H2.14831V9.14468H2.05341V8.92188H1.95803V8.69719H1.86313V8.4744H1.76817V8.69719H1.67229V8.92188H1.57785V9.14468H1.48194V9.36947H1.38652V9.14468H1.2911V8.92188H1.19666V8.69719H1.10075V8.4744H1.00631V8.69719H0.91089V8.92188H0.816449V9.14468H0.720541V9.36947H0.625153V9.59226H0.720541V9.81696H0.816449V10.0416H0.91089V10.2644H1.00631V10.4873H1.10173V10.2644H1.19666V10.0416H1.2911V9.81696H1.38652V9.59226H1.48194V9.81696H1.57785V10.0416H1.6732ZM1.29104 9.59223H1.1966V9.81692H1.10069V10.0416H1.00628V9.81692H0.91086V9.59223H0.816419V9.36944H0.91086V9.14465H1.00628V8.92185H1.10072V9.14465H1.19663V9.36944H1.29107L1.29104 9.59223ZM1.57782 9.36947H1.6732V9.14468H1.76813V8.92188H1.8631V9.14468H1.958V9.36947H2.05338V9.59226H1.958V9.81696H1.8631V10.0416H1.76813V9.81696H1.6732V9.59226H1.57782C1.57782 9.59223 1.57782 9.36947 1.57782 9.36947Z" fill="#FF4B55"/>
<path d="M1.52963 5.43098H1.4817V5.49878H1.38628V5.43098H1.33932V5.34183H1.24387V5.47553H1.29083V5.54333H1.33932V5.63242V5.63435V5.72152H1.29083V5.78932H1.24387V5.92302H1.33932V5.83393H1.38628V5.76802H1.4817V5.83393H1.52963V5.92302H1.62456V5.78932H1.5776V5.72152H1.52963V5.63435V5.63242V5.54333H1.5776V5.47553H1.62456V5.34183H1.52963V5.43098Z" fill="#FF4B55"/>
<path d="M1.86419 1.67267H1.76923V1.89745H1.86419V1.67267Z" fill="#FF4B55"/>
<path d="M1.86419 9.36975H1.76923V9.59255H1.86419V9.36975Z" fill="#FF4B55"/>
<path d="M0.862921 8.65267V8.51903H0.91086V8.38539H0.957393V8.20521H0.91086V8.07157H0.862921V7.93787H0.720541V8.07157H0.673061V8.20521H0.625153V8.38539H0.673061V8.51903H0.720541V8.65267H0.862921ZM0.720541 8.2497H0.76848V8.16063H0.816419V8.2497H0.862891V8.34075H0.816419V8.42984H0.76848V8.34075H0.720541V8.2497Z" fill="#FF4B55"/>
<path d="M1.10067 1.67267H1.00623V1.89745H1.10067V1.67267Z" fill="#FF4B55"/>
<path d="M2.24355 8.74371H2.14859V9.01106H2.24355V8.74371Z" fill="#FF4B55"/>
<path d="M1.62489 8.65267V8.51903H1.67332V8.38539H1.71985V8.20521H1.67332V8.07157H1.62489V7.93787H1.48202V8.07157H1.3866V7.93787H1.24422V8.07157H1.19674V8.20521H1.1488V8.38539H1.19674V8.51903H1.24422V8.65267H1.3866V8.51903H1.48202V8.65267H1.62489ZM1.3866 8.34075H1.33964V8.42984H1.29118V8.34075H1.24422V8.2497H1.29118V8.16063H1.33964V8.2497H1.3866V8.34075ZM1.48202 8.2497H1.52996V8.16063H1.5779V8.2497H1.62486V8.34075H1.5779V8.42984H1.52996V8.34075H1.48202V8.2497Z" fill="#FF4B55"/>
<path d="M1.48186 8.74371H1.38644V9.01106H1.48186V8.74371Z" fill="#FF4B55"/>
<path d="M1.48186 7.57928H1.38644V7.8466H1.48186V7.57928Z" fill="#FF4B55"/>
<path d="M2.24355 6.55084H2.14859V6.72903H2.24355V6.55084Z" fill="#FF4B55"/>
<path d="M2.14753 8.65261V8.51896H2.19501V8.38532H2.24197V8.20707H2.19501V8.07147H2.14753V7.9397H2.00414V8.07147H1.95718V8.20707H1.90924V8.38532H1.95718V8.51896H2.00414V8.65261H2.14753ZM2.00414 8.25162H2.05162V8.16253H2.09956V8.25162H2.1475V8.34068H2.09956V8.43173H2.05162V8.34068H2.00414V8.25162Z" fill="#FF4B55"/>
<path d="M2.14859 5.63242V5.63435V5.76802H2.24355V5.63435V5.63242V5.49878H2.14859V5.63242Z" fill="#FF4B55"/>
<path d="M2.24355 4.53766H2.14859V4.71585H2.24355V4.53766Z" fill="#FF4B55"/>
<path d="M2.24327 4.04387H2.14831V3.82108H2.05341V3.59629H1.95803V3.3735H1.86313V3.1488H1.76817V3.3735H1.67229V3.59629H1.57785V3.82108H1.48194V3.99927V4.04384H1.38652V3.82105H1.2911V3.59626H1.19666V3.37346H1.10075V3.14877H1.00631V3.37346H0.91089V3.59626H0.815471V3.82105H0.720541V3.99923V4.04381H0.625153V4.2685H0.720541V4.4932H0.815471V4.71599H0.91089V4.93882H1.00631V4.71599H1.10075V4.4932H1.19666V4.2685H1.10075V3.9992H1.19666V4.04378V4.17938H1.2911V4.5378H1.33956V4.75865L1.19669 4.76057V4.93882H1.10078V5.07246H1.00634V5.29715H0.910921V5.07246H0.815502V4.93882H0.720572V4.80512H0.625153V5.20806H0.720541V5.38823H0.815471V5.54323H0.91089V5.63242V5.63434V5.72154H0.815471V5.88039H0.720541V6.05864H0.625153V6.46159H0.720541V6.32596H0.815471V6.19232H0.91089V5.96952H1.00631V6.19232H1.10075V6.32596H1.19666V6.50613L1.33953 6.50806V6.7289H1.29107V7.08732H1.19663V7.22097V7.2675H1.10072V6.99627H1.19663V6.77348H1.10072V6.55068H1.00628V6.3259H0.91086V6.55068H0.815441V6.77348H0.720511V6.99627H0.625153V7.22097H0.720541V7.2675V7.44376H0.816449V7.66855H0.91089V7.89324H1.00631V8.11604H1.10075V7.89324H1.19666V7.66855H1.2911V7.44376H1.38652V7.22097H1.48194V7.2675V7.44376H1.57785V7.66855H1.67324V7.89324H1.76817V8.11604H1.86313V7.89324H1.95803V7.66855H2.05341V7.44376H2.14831V7.22097H2.24327V6.99627H2.14831V6.77348H2.05341V6.55068H1.95803V6.3259H1.86313V6.55068H1.76817V6.77348H1.67229V6.99627H1.76817V7.22097V7.2675H1.67229V7.22097V7.08732H1.57785V6.7289H1.56425H1.52991V6.5061H1.56425H1.58995H1.62481H1.67324V6.32593H1.76817V6.19229H1.86313V5.96949H1.95803V6.19229H2.05341V6.32593H2.14883V6.46155H2.24331V6.05861H2.14883V5.88036H2.05341V5.72151H1.95803V5.63431V5.63242V5.54333H2.05341V5.38833H2.14883V5.20815H2.24331V4.80521H2.14883V4.93891H2.05341V5.07255H1.95803V5.29725H1.86313V5.07255H1.76817V4.93891H1.67324V4.76066H1.62478H1.58992H1.56422H1.52988V4.53786H1.56422H1.57782V4.17944H1.67226V4.04384V3.99927H1.76813V4.04384V4.26853H1.67226V4.49323H1.76813V4.71602H1.8631V4.93885H1.958V4.71602H2.05338V4.49323H2.14828V4.26853H2.24324L2.24327 4.04387ZM1.6732 5.20812V5.29722V5.38827H1.76813V5.54326H1.8631V5.63242V5.72151H1.76813V5.88036H1.6732V5.96946V6.05855H1.52988V6.26974H1.48194V6.37047H1.43449H1.38652V6.26974H1.33956V6.05855H1.19669V5.8803H1.10078V5.72145H1.00631V5.63618V5.63037V5.54317H1.10075V5.38817H1.19666V5.208H1.33953V4.99687H1.38649V4.89415H1.43446H1.48191V4.99489H1.52985V5.208H1.6732V5.20812Z" fill="#FF4B55"/>
</g>
<defs>
<clipPath id="clip0">
<rect width="16" height="11" fill="white"/>
</clipPath>
</defs>
</svg>
