<svg width="19" height="24" viewBox="0 0 19 24" fill="none" xmlns="http://www.w3.org/2000/svg">
<path d="M18.0568 10.2892C17.4768 9.81496 16.6553 9.66319 15.9637 9.90237C15.7784 9.96655 15.6063 10.0565 15.4522 10.1699C15.059 10.4592 14.186 11.3275 13.4943 12.1868V5.56286C13.4943 4.99983 13.2629 4.44954 12.8594 4.05291C12.4588 3.65921 11.9326 3.44687 11.3804 3.4572C11.1297 3.46167 10.8895 3.5114 10.6675 3.5983V2.9513C10.6675 2.33855 10.4156 1.73956 9.97611 1.30766C9.54059 0.879538 8.97068 0.648788 8.36791 0.659801C7.16615 0.680621 6.18499 1.65748 6.14903 2.85167C5.88868 2.73363 5.60596 2.66738 5.31327 2.6586C4.70275 2.64071 4.09808 2.87696 3.65482 3.30732C3.22068 3.72873 2.9815 4.28504 2.9815 4.87215L2.97995 5.49953C2.79257 5.43793 2.59279 5.4042 2.3851 5.4042C1.337 5.4042 0.484375 6.25683 0.484375 7.30475L0.485063 16.9336L0.486612 16.9792C0.574197 18.2429 0.838674 19.3249 1.27299 20.1953C1.68011 21.0112 2.24813 21.6682 2.9612 22.148C4.36445 23.0923 6.09792 23.2134 7.45128 23.2134C10.1089 23.2134 12.4999 21.8921 13.6956 19.7639C13.841 19.5295 14.2242 18.9269 14.6381 18.277C15.0411 17.6438 15.416 17.0603 15.7466 16.5454C15.9283 16.2624 16.0937 16.0049 16.2372 15.7806C16.7718 14.9445 17.3415 14.1338 17.9307 13.371C18.1492 13.0881 18.2165 13.0114 18.2318 12.9945C18.5077 12.6936 18.6815 12.3252 18.7345 11.9289C18.8179 11.3072 18.5708 10.7094 18.0568 10.2892ZM17.4233 11.7534C17.4062 11.88 17.3486 12.0001 17.2565 12.1006C17.2085 12.1531 17.1227 12.2529 16.8838 12.5623C16.2707 13.3559 15.6781 14.1989 15.1225 15.0678C14.9793 15.2917 14.8146 15.5481 14.6333 15.8305C14.302 16.3463 13.9266 16.9312 13.522 17.5665C13.0985 18.2317 12.7066 18.8479 12.5631 19.0797L12.5481 19.1052C11.5884 20.8232 9.63557 21.8904 7.45145 21.8904C6.286 21.8904 4.80617 21.7949 3.69991 21.0505C2.57111 20.2909 1.95233 18.9367 1.80813 16.9104L1.80745 7.30493C1.80745 6.98642 2.06659 6.72728 2.3851 6.72728C2.7055 6.72728 2.96619 6.98642 2.96619 7.30493V10.9083C2.96619 10.919 2.96739 10.9293 2.96774 10.94C2.96842 10.9517 2.96842 10.9635 2.96963 10.9752C2.97066 10.9857 2.97273 10.9959 2.97427 11.0062C2.976 11.0178 2.9772 11.0295 2.97944 11.041C2.98167 11.0513 2.98477 11.0615 2.98735 11.0716C2.99011 11.0824 2.99234 11.0936 2.99578 11.1043C2.99888 11.1146 3.00301 11.1246 3.0068 11.1346C3.01041 11.1447 3.01368 11.1551 3.01798 11.165C3.02211 11.175 3.0271 11.1845 3.03175 11.1941C3.03639 11.2038 3.04069 11.2136 3.04568 11.223C3.05068 11.2323 3.0567 11.2413 3.0622 11.2504C3.06771 11.2595 3.07287 11.2688 3.07872 11.2776C3.08475 11.2864 3.09146 11.2946 3.09782 11.303C3.10419 11.3117 3.11004 11.3204 3.11675 11.3285C3.12346 11.3366 3.13086 11.344 3.13774 11.3517C3.14497 11.3597 3.15185 11.3681 3.15943 11.3757C3.16682 11.3829 3.17457 11.3894 3.18231 11.3965C3.19023 11.4037 3.19797 11.4115 3.2064 11.4183C3.21432 11.4249 3.22275 11.4307 3.23101 11.4369C3.23978 11.4435 3.24822 11.4503 3.25716 11.4565C3.26559 11.4622 3.27454 11.467 3.28315 11.4722C3.29261 11.478 3.3019 11.4842 3.31171 11.4897C3.32066 11.4946 3.33012 11.4985 3.33924 11.503C3.34922 11.508 3.3592 11.5131 3.36953 11.5176C3.37899 11.5218 3.38914 11.5249 3.39878 11.5285C3.40928 11.5322 3.4196 11.5366 3.43027 11.54C3.44042 11.5431 3.45109 11.5453 3.46141 11.5481C3.47225 11.5508 3.48275 11.5541 3.49359 11.5563C3.5046 11.5586 3.51562 11.5598 3.52663 11.5615C3.53764 11.5631 3.54831 11.5653 3.55932 11.5665C3.57034 11.5675 3.58169 11.5677 3.59288 11.5682C3.60389 11.5687 3.6149 11.5699 3.62609 11.5699C3.6266 11.5699 3.62729 11.5699 3.62781 11.5699C3.65069 11.5699 3.67324 11.5687 3.69543 11.5665C3.70507 11.5656 3.71453 11.5636 3.72417 11.5622C3.73639 11.5605 3.74895 11.5591 3.76099 11.5565C3.77373 11.5539 3.78594 11.5503 3.79833 11.547C3.80694 11.5446 3.81588 11.5429 3.82432 11.5403C3.83808 11.536 3.8515 11.5307 3.86493 11.5255C3.87146 11.523 3.87852 11.5209 3.88506 11.5181C3.89848 11.5125 3.91121 11.5058 3.92412 11.4994C3.93031 11.4963 3.93668 11.4937 3.94287 11.4904C3.95492 11.4839 3.96628 11.4763 3.97781 11.4691C3.98434 11.4651 3.99106 11.4615 3.99725 11.4572C4.00792 11.4502 4.01807 11.4421 4.02822 11.4342C4.03493 11.4292 4.04182 11.4245 4.04818 11.4192C4.05765 11.4116 4.06625 11.403 4.0752 11.3948C4.08191 11.3887 4.08879 11.3829 4.09533 11.3767C4.10359 11.3684 4.11099 11.3595 4.11873 11.3509C4.1251 11.3438 4.13198 11.3369 4.13801 11.3297C4.14489 11.3213 4.15108 11.3123 4.15762 11.3036C4.16382 11.2953 4.17036 11.2874 4.17603 11.2788C4.18206 11.27 4.18705 11.2609 4.19255 11.2518C4.19806 11.2427 4.20408 11.2337 4.20924 11.2244C4.21423 11.2151 4.21836 11.2055 4.22301 11.196C4.22766 11.1862 4.23282 11.1766 4.23712 11.1666C4.24125 11.157 4.24435 11.1468 4.24796 11.137C4.25192 11.1267 4.25605 11.1165 4.25949 11.1059C4.26259 11.0957 4.26482 11.0854 4.2674 11.0751C4.27016 11.0642 4.27343 11.0535 4.27584 11.0425C4.2779 11.0322 4.27911 11.0214 4.28065 11.0107C4.28255 10.9995 4.28461 10.9883 4.28582 10.977C4.28702 10.9663 4.28702 10.9553 4.28754 10.9444C4.28823 10.9329 4.28943 10.9217 4.28943 10.9102L4.30474 4.87387C4.30474 4.64605 4.40128 4.42683 4.57645 4.25665C4.7647 4.07408 5.01936 3.97324 5.27421 3.98116C5.75154 3.99544 6.13991 4.41065 6.13991 4.90777L6.14748 10.8734C6.14748 10.8854 6.14868 10.8971 6.14937 10.9088C6.14989 10.9193 6.14989 10.9302 6.15092 10.9405C6.15212 10.9529 6.15453 10.9648 6.15642 10.9768C6.15797 10.9866 6.15901 10.9966 6.1609 11.0062C6.16365 11.0193 6.16744 11.032 6.17088 11.0448C6.17312 11.053 6.17484 11.0615 6.17725 11.0695C6.18155 11.0833 6.18705 11.0967 6.19222 11.1102C6.1948 11.1169 6.19669 11.1237 6.19944 11.1303C6.20564 11.1446 6.21269 11.1585 6.21975 11.1723C6.2225 11.1774 6.22457 11.1829 6.22732 11.1879C6.23506 11.2022 6.24384 11.2158 6.25244 11.2292C6.25519 11.2337 6.2576 11.2382 6.26053 11.2425C6.26965 11.2561 6.27963 11.2688 6.28961 11.2815C6.29271 11.2855 6.29546 11.2896 6.29856 11.2934C6.30974 11.307 6.32179 11.3197 6.334 11.3323C6.33659 11.3351 6.33865 11.3378 6.34123 11.3404C6.35379 11.3529 6.36721 11.3647 6.38081 11.3762C6.38339 11.3784 6.38563 11.3808 6.38821 11.3831C6.4018 11.3942 6.41591 11.4044 6.43019 11.4144C6.43329 11.4166 6.43604 11.419 6.43914 11.4211C6.4536 11.4309 6.46874 11.4397 6.48388 11.4483C6.48715 11.4502 6.49025 11.4524 6.49369 11.4543C6.50952 11.4627 6.52587 11.4703 6.54238 11.4777C6.54548 11.4791 6.54841 11.4808 6.5515 11.4822C6.56837 11.4892 6.58575 11.4953 6.6033 11.5011C6.6064 11.502 6.60915 11.5033 6.61225 11.5044C6.62963 11.5097 6.64735 11.514 6.66507 11.518C6.66869 11.5187 6.67213 11.5199 6.67574 11.5207C6.71876 11.5295 6.76333 11.5341 6.80893 11.5341C6.80927 11.5341 6.80961 11.5341 6.80996 11.5341C6.82149 11.5341 6.83284 11.5329 6.8442 11.5324C6.85521 11.5317 6.86623 11.5317 6.87707 11.5307C6.88911 11.5293 6.90064 11.5271 6.91251 11.5252C6.92249 11.5236 6.93282 11.5226 6.9428 11.5205C6.95467 11.5181 6.9662 11.5147 6.9779 11.5116C6.98737 11.509 6.99683 11.5071 7.00612 11.5042C7.018 11.5006 7.02935 11.4959 7.04088 11.4915C7.04948 11.4882 7.05843 11.4856 7.06686 11.482C7.07874 11.4768 7.09027 11.4708 7.1018 11.4651C7.10937 11.4614 7.11728 11.4581 7.12468 11.4541C7.13604 11.4479 7.14688 11.4407 7.15789 11.434C7.16495 11.4295 7.17235 11.4256 7.17923 11.4209C7.18972 11.4139 7.19953 11.4059 7.20951 11.3982C7.2164 11.393 7.22345 11.3882 7.23016 11.3827C7.23963 11.375 7.24857 11.3662 7.25769 11.3578C7.26406 11.3519 7.27077 11.3462 7.27714 11.34C7.28557 11.3314 7.29348 11.3221 7.30157 11.3132C7.30759 11.3065 7.31396 11.3001 7.31981 11.2931C7.32704 11.2841 7.33358 11.2747 7.34029 11.2655C7.34614 11.2576 7.35233 11.25 7.35784 11.2421C7.36403 11.233 7.3692 11.2234 7.37488 11.2139C7.38021 11.2051 7.38606 11.1965 7.39088 11.1876C7.39604 11.1781 7.40017 11.1681 7.40482 11.1585C7.40946 11.1489 7.41462 11.1396 7.41875 11.1296C7.42271 11.1201 7.42598 11.1102 7.42942 11.1003C7.43338 11.0898 7.43768 11.0795 7.44095 11.0689C7.44405 11.0585 7.44629 11.048 7.44904 11.0375C7.45179 11.0269 7.45506 11.0164 7.45713 11.0055C7.45936 10.9947 7.46057 10.9835 7.46229 10.9727C7.46384 10.9617 7.46607 10.9508 7.46711 10.9398C7.46831 10.9286 7.46831 10.9173 7.46883 10.9059C7.46952 10.8947 7.47055 10.8839 7.47055 10.8725V2.91964C7.47055 2.41168 7.88352 1.99148 8.39097 1.9827C8.63583 1.97926 8.86847 2.0739 9.04898 2.25131C9.23688 2.43594 9.3446 2.69113 9.3446 2.9513V10.909C9.3446 10.921 9.3458 10.9327 9.34649 10.9446C9.34701 10.9551 9.34701 10.9658 9.34804 10.9763C9.34924 10.988 9.35165 10.9993 9.35337 11.0109C9.35509 11.0214 9.35613 11.0319 9.35819 11.042C9.3606 11.0535 9.36404 11.0647 9.36697 11.0761C9.36955 11.0859 9.37144 11.0957 9.37454 11.1053C9.37832 11.1176 9.38314 11.1294 9.38762 11.1413C9.39071 11.1496 9.39329 11.158 9.39674 11.1661C9.40207 11.1785 9.40826 11.1903 9.41429 11.2024C9.41773 11.2094 9.42083 11.2168 9.42461 11.2239C9.43115 11.2361 9.43872 11.2476 9.44612 11.2593C9.45008 11.2655 9.45352 11.2722 9.45782 11.2784C9.46574 11.2901 9.47451 11.3013 9.48329 11.3125C9.48759 11.318 9.49138 11.3239 9.49585 11.3292C9.50549 11.3411 9.51615 11.3521 9.52665 11.3633C9.53078 11.3674 9.53439 11.372 9.53852 11.3762C9.54936 11.3872 9.56107 11.3972 9.57277 11.4073C9.57707 11.4111 9.58103 11.4152 9.5855 11.4189C9.59858 11.4297 9.61234 11.4395 9.62611 11.4493C9.62955 11.4517 9.63282 11.4545 9.63643 11.4571C9.65123 11.467 9.66672 11.4762 9.68238 11.4849C9.6853 11.4865 9.68788 11.4885 9.69081 11.4901C9.70802 11.4994 9.72557 11.5076 9.74364 11.5156C9.74536 11.5162 9.7469 11.5173 9.74863 11.518C9.76738 11.5259 9.78665 11.5328 9.80627 11.539C9.8073 11.5395 9.80833 11.5398 9.80954 11.5402C9.85066 11.5531 9.89351 11.5618 9.93773 11.5665C9.93808 11.5665 9.93825 11.5665 9.93859 11.5665C9.96079 11.5687 9.98333 11.5699 10.0062 11.5699C10.0064 11.5699 10.0066 11.5699 10.0069 11.5699C10.0186 11.5699 10.0301 11.5687 10.0418 11.5682C10.0527 11.5675 10.0635 11.5675 10.0742 11.5665C10.0864 11.5653 10.0983 11.5629 10.1103 11.561C10.1201 11.5594 10.1301 11.5584 10.1399 11.5563C10.1528 11.5538 10.1652 11.55 10.1778 11.5467C10.1862 11.5445 10.195 11.5427 10.2032 11.5402C10.2167 11.5359 10.2296 11.5307 10.2426 11.5257C10.2497 11.523 10.2569 11.5207 10.264 11.5178C10.2772 11.5121 10.29 11.5056 10.3029 11.499C10.3091 11.4959 10.3156 11.4934 10.3218 11.4899C10.3344 11.483 10.3464 11.4753 10.3586 11.4675C10.3645 11.4639 10.3705 11.4607 10.3763 11.4567C10.3887 11.4484 10.4003 11.4392 10.412 11.43C10.417 11.4263 10.4223 11.4226 10.4273 11.4187C10.4388 11.409 10.4497 11.3985 10.4607 11.3882C10.4651 11.3841 10.47 11.3803 10.4741 11.376C10.4848 11.3653 10.4947 11.354 10.5045 11.3425C10.5087 11.338 10.513 11.3337 10.5169 11.329C10.5264 11.3175 10.535 11.3053 10.5436 11.2932C10.5472 11.2881 10.5513 11.2833 10.555 11.2781C10.563 11.2661 10.5703 11.2535 10.5775 11.2409C10.5809 11.2351 10.5849 11.2296 10.5882 11.2236C10.5951 11.2108 10.6009 11.1976 10.6069 11.1843C10.6099 11.1781 10.6133 11.1721 10.6159 11.1657C10.6214 11.1528 10.6259 11.1394 10.6305 11.1262C10.6329 11.1191 10.636 11.1122 10.6382 11.1048C10.642 11.0923 10.645 11.079 10.6482 11.0661C10.6501 11.0578 10.6527 11.0498 10.6544 11.0415C10.657 11.0288 10.6585 11.0155 10.6604 11.0026C10.6616 10.9937 10.6635 10.9849 10.6644 10.9758C10.6658 10.9637 10.6658 10.9513 10.6663 10.9389C10.6668 10.9288 10.6678 10.9188 10.6678 10.9083V5.44808C10.7109 5.07899 11.0242 4.78663 11.4036 4.78009C11.5986 4.77683 11.7868 4.85357 11.9322 4.99656C12.0843 5.14592 12.1716 5.35241 12.1716 5.56286V13.3714L12.1719 13.401C12.1755 13.8296 12.4571 14.1918 12.8723 14.3023C13.2847 14.4119 13.7061 14.2386 13.9229 13.8673L13.9271 13.8599C14.4457 12.9537 15.8319 11.5335 16.2366 11.2358C16.2835 11.2012 16.3373 11.1735 16.3967 11.1528C16.6603 11.0618 16.9908 11.1263 17.2197 11.3135C17.3274 11.4018 17.4505 11.5498 17.4233 11.7534Z" fill="#20CAEB"/>
</svg>
