<svg width="32" height="28" viewBox="0 0 32 28" fill="none" xmlns="http://www.w3.org/2000/svg">
<path d="M2.11319 24.8302H16.3774V26.4151C16.3774 27.2904 17.087 28 17.9623 28H20.0755C20.5363 27.9984 20.9733 27.7951 21.2715 27.4437C21.2789 27.4437 21.2868 27.4437 21.2942 27.4389C21.681 27.7982 22.189 27.9985 22.7169 27.9999H29.0566C29.9319 27.9999 30.6415 27.2903 30.6415 26.415C30.6399 26.142 30.5671 25.8741 30.4302 25.6379C31.1498 25.193 31.3841 24.2558 30.9585 23.5247C31.3547 23.278 31.6205 22.8677 31.6838 22.4052C31.7471 21.9427 31.6013 21.4761 31.286 21.132C31.7081 20.6692 31.8165 20.0007 31.5624 19.4282C31.3082 18.8557 30.7395 18.4878 30.1131 18.4906H28.5282V2.11319C28.5282 0.946116 27.5821 0 26.415 0H2.11319C0.946116 0 0 0.946116 0 2.11319V22.717C0 23.8841 0.946116 24.8302 2.11319 24.8302ZM20.0755 26.9434H17.9623C17.6705 26.9434 17.4341 26.7069 17.4341 26.4152V21.6604C17.4341 21.3686 17.6706 21.1321 17.9623 21.1321H20.0755C20.3673 21.1321 20.6038 21.3686 20.6038 21.6604V26.4152C20.6038 26.7069 20.3673 26.9434 20.0755 26.9434ZM30.6415 20.0755C30.6415 20.3672 30.405 20.6037 30.1133 20.6037H28.5283C28.2366 20.6037 28.0001 20.8402 28.0001 21.132C28.0001 21.4238 28.2366 21.6603 28.5283 21.6603H30.1133C30.405 21.6603 30.6415 21.8969 30.6415 22.1886C30.6415 22.4804 30.405 22.7169 30.1133 22.7169H28.5283C28.2366 22.7169 28.0001 22.9534 28.0001 23.2452C28.0001 23.5369 28.2366 23.7734 28.5283 23.7734H29.585C29.8768 23.7734 30.1133 24.01 30.1133 24.3017C30.1133 24.5935 29.8768 24.83 29.585 24.83H28.5283C28.2366 24.83 28.0001 25.0665 28.0001 25.3583C28.0001 25.6501 28.2366 25.8866 28.5283 25.8866H29.0566C29.3484 25.8866 29.5849 26.1231 29.5849 26.4148C29.5849 26.7066 29.3483 26.9431 29.0566 26.9431H22.717C22.1334 26.9431 21.6604 26.4701 21.6604 25.8865V21.4398C22.3218 21.0255 22.8178 20.3934 23.063 19.6525C23.5345 18.2409 23.7744 16.7623 23.7736 15.274C23.7734 15.2017 23.822 15.1385 23.8919 15.1203C24.071 15.0891 24.5417 15.003 24.9928 15.8821C25.241 16.3865 25.3663 16.9424 25.3584 17.5045V19.0186C25.3584 19.3104 25.5949 19.5469 25.8867 19.5469H30.1133C30.405 19.5472 30.6415 19.7837 30.6415 20.0755ZM26.4152 18.4906V17.5048C26.4251 16.7745 26.2598 16.0525 25.9328 15.3995C25.4108 14.3835 24.6189 13.9139 23.7039 14.0787C23.1287 14.1855 22.7128 14.6893 22.7171 15.2743C22.7173 16.6482 22.4959 18.013 22.0614 19.3164C21.8974 19.8019 21.5759 20.2188 21.148 20.5008C20.8572 20.2286 20.474 20.0766 20.0755 20.0756H17.9623C17.087 20.0756 16.3774 20.7852 16.3774 21.6605V23.7737H2.11325C1.52968 23.7737 1.05663 23.3006 1.05663 22.7171V5.28307H27.4718V18.4906H26.4152V18.4906ZM2.11319 1.05656H26.4151C26.9987 1.05656 27.4717 1.52962 27.4717 2.11319V4.22638H1.05663V2.11319C1.05663 1.52962 1.52968 1.05656 2.11319 1.05656Z" fill="white"/>
<path d="M2.64157 3.16985C2.93333 3.16985 3.16985 2.93333 3.16985 2.64157C3.16985 2.3498 2.93333 2.11328 2.64157 2.11328C2.3498 2.11328 2.11328 2.3498 2.11328 2.64157C2.11328 2.93333 2.3498 3.16985 2.64157 3.16985Z" fill="white"/>
<path d="M4.75485 3.16985C5.04661 3.16985 5.28313 2.93333 5.28313 2.64157C5.28313 2.3498 5.04661 2.11328 4.75485 2.11328C4.46308 2.11328 4.22656 2.3498 4.22656 2.64157C4.22656 2.93333 4.46308 3.16985 4.75485 3.16985Z" fill="white"/>
<path d="M6.86813 3.16985C7.15989 3.16985 7.39642 2.93333 7.39642 2.64157C7.39642 2.3498 7.15989 2.11328 6.86813 2.11328C6.57637 2.11328 6.33984 2.3498 6.33984 2.64157C6.33984 2.93333 6.57637 3.16985 6.86813 3.16985Z" fill="white"/>
<path d="M4.22749 16.3774H12.6803C13.5556 16.3774 14.2652 15.6678 14.2652 14.7925V8.45283C14.2652 7.57754 13.5556 6.86792 12.6803 6.86792H4.22749C3.3522 6.86792 2.64258 7.57754 2.64258 8.45283V14.7925C2.64258 15.6677 3.35213 16.3774 4.22749 16.3774ZM5.52761 15.3207L7.97468 11.4736L9.14856 12.9434L7.63553 15.3207H5.52761ZM12.6803 15.3207H8.88817L11.6728 10.9448L13.2086 12.8646V14.7924C13.2086 15.0842 12.9721 15.3207 12.6803 15.3207ZM3.69914 8.45283C3.69914 8.16104 3.9357 7.92455 4.22742 7.92455H12.6803C12.9721 7.92455 13.2086 8.16104 13.2086 8.45283V11.173L12.0363 9.70757C11.9298 9.57434 11.7655 9.50072 11.5951 9.50995C11.4247 9.51917 11.2693 9.61012 11.1778 9.75406L9.74823 12.0009L8.33822 10.2364C8.23179 10.1031 8.06748 10.0294 7.89717 10.0385C7.72685 10.0477 7.57133 10.1385 7.47977 10.2824L4.27559 15.3208H4.22749C3.9357 15.3208 3.6992 15.0842 3.6992 14.7925V8.45283H3.69914Z" fill="white"/>
<path d="M5.28219 10.0377C5.57396 10.0377 5.81048 9.80113 5.81048 9.50936C5.81048 9.2176 5.57396 8.98108 5.28219 8.98108C4.99043 8.98108 4.75391 9.2176 4.75391 9.50936C4.75391 9.80113 4.99043 10.0377 5.28219 10.0377Z" fill="white"/>
<path fill-rule="evenodd" clip-rule="evenodd" d="M25.3571 7.39612H16.3759C16.0842 7.39612 15.8477 7.63268 15.8477 7.9244C15.8477 8.21618 16.0842 8.45268 16.3759 8.45268H25.3571C25.6489 8.45268 25.8854 8.21612 25.8854 7.9244C25.8854 7.63268 25.6489 7.39612 25.3571 7.39612Z" fill="white"/>
<path fill-rule="evenodd" clip-rule="evenodd" d="M25.3571 9.5094H16.3759C16.0842 9.5094 15.8477 9.74596 15.8477 10.0377C15.8477 10.3294 16.0842 10.566 16.3759 10.566H25.3571C25.6489 10.566 25.8854 10.3295 25.8854 10.0377C25.8854 9.7459 25.6489 9.5094 25.3571 9.5094Z" fill="white"/>
<path fill-rule="evenodd" clip-rule="evenodd" d="M25.3571 11.6226H16.3759C16.0842 11.6226 15.8477 11.8591 15.8477 12.1508C15.8477 12.4426 16.0842 12.6791 16.3759 12.6791H25.3571C25.6489 12.6791 25.8854 12.4426 25.8854 12.1508C25.8854 11.8591 25.6489 11.6226 25.3571 11.6226Z" fill="white"/>
<path fill-rule="evenodd" clip-rule="evenodd" d="M21.1307 13.7357H16.3759C16.0842 13.7357 15.8477 13.9723 15.8477 14.264C15.8477 14.5558 16.0842 14.7923 16.3759 14.7923H21.1307C21.4225 14.7923 21.659 14.5558 21.659 14.264C21.6591 13.9723 21.4225 13.7357 21.1307 13.7357Z" fill="white"/>
<path fill-rule="evenodd" clip-rule="evenodd" d="M15.3199 18.4905H3.16891C2.87712 18.4905 2.64062 18.727 2.64062 19.0188C2.64062 19.3105 2.87718 19.547 3.16891 19.547H15.3199C15.6117 19.547 15.8482 19.3105 15.8482 19.0188C15.8482 18.727 15.6117 18.4905 15.3199 18.4905Z" fill="white"/>
<path fill-rule="evenodd" clip-rule="evenodd" d="M13.735 20.6038H3.16891C2.87712 20.6038 2.64062 20.8403 2.64062 21.132C2.64062 21.4238 2.87718 21.6603 3.16891 21.6603H13.735C14.0268 21.6603 14.2633 21.4238 14.2633 21.132C14.2633 20.8403 14.0267 20.6038 13.735 20.6038Z" fill="white"/>
</svg>
