<svg width="31" height="31" viewBox="0 0 31 31" fill="none" xmlns="http://www.w3.org/2000/svg">
<path d="M27 22.003V20C26.9992 19.3372 26.7356 18.7018 26.2669 18.2331C25.7982 17.7644 25.1628 17.5008 24.5 17.5H20.291C20.7538 16.6463 21.1271 15.747 21.405 14.8165L23.305 13.296C23.6003 13.0602 23.8162 12.7395 23.9236 12.3772C24.0309 12.0148 24.0245 11.6283 23.9053 11.2697C23.786 10.9111 23.5596 10.5977 23.2566 10.3718C22.9537 10.146 22.5887 10.0184 22.211 10.0065L23.325 6.9435C23.6092 6.16181 23.7009 5.32312 23.5922 4.49849C23.4834 3.67385 23.1775 2.88758 22.7004 2.20629C22.2232 1.52499 21.5889 0.968753 20.8511 0.584693C20.1133 0.200633 19.2938 7.09837e-05 18.462 5.26821e-07H14.217C11.0406 -0.000791669 7.92812 0.891868 5.235 2.576C5.15408 2.62612 5.08915 2.6983 5.04784 2.78405C5.00653 2.86981 4.99056 2.96557 5.0018 3.06009C5.01303 3.1546 5.05102 3.24395 5.11128 3.31763C5.17154 3.3913 5.25159 3.44625 5.342 3.476L6.5475 3.876C6.71342 3.93135 6.86628 4.02001 6.99671 4.13655C7.12713 4.25309 7.23238 4.39505 7.30597 4.55372C7.37957 4.71239 7.41998 4.88443 7.42471 5.05927C7.42945 5.23411 7.39841 5.40808 7.3335 5.5705C7.2137 5.86993 7.15867 6.19133 7.17202 6.51355C7.18538 6.83578 7.26683 7.15152 7.411 7.44L8.7 10.0155C8.33125 10.0449 7.97984 10.1844 7.69142 10.416C7.40299 10.6477 7.19088 10.9607 7.08262 11.3144C6.97436 11.6681 6.97497 12.0462 7.08435 12.3996C7.19373 12.753 7.40684 13.0653 7.696 13.296L9.596 14.8165C9.87357 15.747 10.2466 16.6462 10.709 17.5H6.5C5.8372 17.5008 5.20178 17.7644 4.73311 18.2331C4.26444 18.7018 4.00079 19.3372 4 20V22.003C2.81662 22.4974 1.80565 23.3303 1.09401 24.3972C0.382371 25.4641 0.00177322 26.7175 0 28V30.5C0 30.6326 0.0526784 30.7598 0.146447 30.8536C0.240215 30.9473 0.367392 31 0.5 31H30.5C30.6326 31 30.7598 30.9473 30.8536 30.8536C30.9473 30.7598 31 30.6326 31 30.5V28C30.9982 26.7175 30.6176 25.4641 29.906 24.3972C29.1943 23.3303 28.1834 22.4974 27 22.003ZM19.5 10H16.5C16.3674 10 16.2402 10.0527 16.1464 10.1464C16.0527 10.2402 16 10.3674 16 10.5V11H15V10.5C15 10.3674 14.9473 10.2402 14.8536 10.1464C14.7598 10.0527 14.6326 10 14.5 10H10V9.2675L13.121 7.187C13.7926 6.73833 14.5823 6.49922 15.39 6.5C16.5455 6.49865 17.6664 6.10539 18.5695 5.3845L19.3865 4.731L20.244 6.018C20.7377 6.75673 21.0008 7.62548 21 8.514V10H19.5ZM19 11V12.5C19 12.6326 18.9473 12.7598 18.8536 12.8536C18.7598 12.9473 18.6326 13 18.5 13H17.5C17.3674 13 17.2402 12.9473 17.1464 12.8536C17.0527 12.7598 17 12.6326 17 12.5V11H19ZM14 11V12.5C14 12.6326 13.9473 12.7598 13.8536 12.8536C13.7598 12.9473 13.6326 13 13.5 13H12.5C12.3674 13 12.2402 12.9473 12.1464 12.8536C12.0527 12.7598 12 12.6326 12 12.5V11H14ZM23 11.85C23.0003 11.9776 22.9717 12.1035 22.9165 12.2185C22.8612 12.3335 22.7807 12.4345 22.681 12.514L21.7745 13.239C21.9066 12.4997 21.9794 11.7509 21.992 11H22.15C22.2616 11 22.3722 11.022 22.4753 11.0647C22.5784 11.1074 22.6721 11.17 22.751 11.249C22.83 11.3279 22.8926 11.4216 22.9353 11.5247C22.978 11.6278 23 11.7384 23 11.85ZM8.2615 5.942C8.37702 5.65311 8.4323 5.34367 8.42395 5.03265C8.41559 4.72164 8.34378 4.41561 8.21292 4.13333C8.08207 3.85106 7.89492 3.5985 7.66296 3.39115C7.431 3.1838 7.15912 3.02602 6.864 2.9275L6.711 2.8775C9.02071 1.64439 11.5987 0.999538 14.217 1H18.462C19.1328 1.00013 19.7938 1.16191 20.3888 1.47164C20.9839 1.78138 21.4956 2.22994 21.8805 2.77936C22.2654 3.32878 22.5123 3.96286 22.6002 4.62793C22.6881 5.29299 22.6145 5.96944 22.3855 6.6L21.951 7.795C21.8424 6.96014 21.543 6.16151 21.076 5.461L19.916 3.7205C19.8775 3.66285 19.8275 3.61384 19.769 3.57656C19.7106 3.53929 19.645 3.51458 19.5765 3.504C19.508 3.49366 19.4382 3.49751 19.3712 3.51532C19.3043 3.53312 19.2418 3.5645 19.1875 3.6075L17.945 4.604C17.2191 5.18285 16.3185 5.49868 15.39 5.5C14.3848 5.49909 13.4019 5.79666 12.566 6.355L9.2225 8.584C9.1915 8.60505 9.16298 8.62953 9.1375 8.657L8.3055 6.9925C8.22442 6.83043 8.17858 6.65302 8.171 6.47196C8.16341 6.2909 8.19426 6.11028 8.2615 5.942ZM8.3195 12.515C8.18149 12.4051 8.08109 12.2551 8.0322 12.0856C7.98332 11.9161 7.98837 11.7356 8.04667 11.5691C8.10497 11.4026 8.21362 11.2584 8.35756 11.1564C8.5015 11.0544 8.6736 10.9998 8.85 11H9.007C9.01957 11.7513 9.09231 12.5003 9.2245 13.24L8.3195 12.515ZM10.008 11H11V12.5C11 12.8978 11.158 13.2794 11.4393 13.5607C11.7206 13.842 12.1022 14 12.5 14H13.5C13.8978 14 14.2794 13.842 14.5607 13.5607C14.842 13.2794 15 12.8978 15 12.5V12H16V12.5C16 12.8978 16.158 13.2794 16.4393 13.5607C16.7206 13.842 17.1022 14 17.5 14H18.5C18.8978 14 19.2794 13.842 19.5607 13.5607C19.842 13.2794 20 12.8978 20 12.5V11H20.992C20.9532 13.2917 20.3133 15.5331 19.1365 17.5H11.8635C10.6867 15.5331 10.0468 13.2917 10.008 11ZM6.5 18.5H24.5C24.8978 18.5 25.2794 18.658 25.5607 18.9393C25.842 19.2206 26 19.6022 26 20V30H5V20C5 19.6022 5.15804 19.2206 5.43934 18.9393C5.72064 18.658 6.10218 18.5 6.5 18.5ZM1 28C1.00136 26.9869 1.28212 25.9937 1.81141 25.1299C2.34069 24.266 3.09799 23.5648 4 23.1035V30H1V28ZM30 30H27V23.1035C27.902 23.5649 28.6592 24.266 29.1885 25.1299C29.7178 25.9938 29.9986 26.9869 30 28V30Z" fill="white"/>
</svg>
