<svg width="33" height="33" viewBox="0 0 33 33" fill="none" xmlns="http://www.w3.org/2000/svg">
<path d="M30.4219 1.54688H2.57812C2.16801 1.54735 1.77484 1.71048 1.48485 2.00047C1.19485 2.29046 1.03173 2.68364 1.03125 3.09375V29.9062C1.03173 30.3164 1.19485 30.7095 1.48485 30.9995C1.77484 31.2895 2.16801 31.4526 2.57812 31.4531H30.4219C30.832 31.4526 31.2252 31.2895 31.5152 30.9995C31.8051 30.7095 31.9683 30.3164 31.9688 29.9062V3.09375C31.9683 2.68364 31.8051 2.29046 31.5152 2.00047C31.2252 1.71048 30.832 1.54735 30.4219 1.54688ZM2.57812 2.57812H30.4219C30.5586 2.57828 30.6896 2.63265 30.7863 2.72932C30.883 2.82598 30.9373 2.95704 30.9375 3.09375V5.67188H2.0625V3.09375C2.06265 2.95704 2.11703 2.82598 2.21369 2.72932C2.31036 2.63265 2.44142 2.57828 2.57812 2.57812ZM30.4219 30.4219H2.57812C2.44142 30.4217 2.31036 30.3673 2.21369 30.2707C2.11703 30.174 2.06265 30.043 2.0625 29.9062V6.70312H30.9375V29.9062C30.9373 30.043 30.883 30.174 30.7863 30.2707C30.6896 30.3673 30.5586 30.4217 30.4219 30.4219Z" fill="white"/>
<path d="M7.73438 4.64062C8.01915 4.64062 8.25 4.40977 8.25 4.125C8.25 3.84023 8.01915 3.60938 7.73438 3.60938C7.4496 3.60938 7.21875 3.84023 7.21875 4.125C7.21875 4.40977 7.4496 4.64062 7.73438 4.64062Z" fill="white"/>
<path d="M5.67188 4.64062C5.95665 4.64062 6.1875 4.40977 6.1875 4.125C6.1875 3.84023 5.95665 3.60938 5.67188 3.60938C5.3871 3.60938 5.15625 3.84023 5.15625 4.125C5.15625 4.40977 5.3871 4.64062 5.67188 4.64062Z" fill="white"/>
<path d="M3.60938 4.64062C3.89415 4.64062 4.125 4.40977 4.125 4.125C4.125 3.84023 3.89415 3.60938 3.60938 3.60938C3.3246 3.60938 3.09375 3.84023 3.09375 4.125C3.09375 4.40977 3.3246 4.64062 3.60938 4.64062Z" fill="white"/>
<path d="M13.9219 9.79688H19.0781C19.2149 9.79688 19.346 9.74255 19.4427 9.64585C19.5394 9.54915 19.5938 9.418 19.5938 9.28125C19.5938 9.1445 19.5394 9.01335 19.4427 8.91665C19.346 8.81995 19.2149 8.76562 19.0781 8.76562H13.9219C13.7851 8.76562 13.654 8.81995 13.5573 8.91665C13.4606 9.01335 13.4062 9.1445 13.4062 9.28125C13.4062 9.418 13.4606 9.54915 13.5573 9.64585C13.654 9.74255 13.7851 9.79688 13.9219 9.79688Z" fill="white"/>
<path d="M22.6875 10.8281H10.3125C10.1757 10.8281 10.0446 10.8824 9.9479 10.9791C9.8512 11.0758 9.79688 11.207 9.79688 11.3438V13.4062C9.79688 13.543 9.8512 13.6742 9.9479 13.7709C10.0446 13.8676 10.1757 13.9219 10.3125 13.9219H22.6875C22.8243 13.9219 22.9554 13.8676 23.0521 13.7709C23.1488 13.6742 23.2031 13.543 23.2031 13.4062V11.3438C23.2031 11.207 23.1488 11.0758 23.0521 10.9791C22.9554 10.8824 22.8243 10.8281 22.6875 10.8281ZM22.1719 12.8906H10.8281V11.8594H22.1719V12.8906Z" fill="white"/>
<path d="M22.6875 14.9531H10.3125C10.1757 14.9531 10.0446 15.0074 9.9479 15.1041C9.8512 15.2008 9.79688 15.332 9.79688 15.4688V17.5312C9.79688 17.668 9.8512 17.7992 9.9479 17.8959C10.0446 17.9926 10.1757 18.0469 10.3125 18.0469H22.6875C22.8243 18.0469 22.9554 17.9926 23.0521 17.8959C23.1488 17.7992 23.2031 17.668 23.2031 17.5312V15.4688C23.2031 15.332 23.1488 15.2008 23.0521 15.1041C22.9554 15.0074 22.8243 14.9531 22.6875 14.9531ZM22.1719 17.0156H10.8281V15.9844H22.1719V17.0156Z" fill="white"/>
<path d="M22.6875 19.0781H10.3125C10.1757 19.0781 10.0446 19.1324 9.9479 19.2291C9.8512 19.3258 9.79688 19.457 9.79688 19.5938V23.7188C9.79688 23.8555 9.8512 23.9867 9.9479 24.0834C10.0446 24.1801 10.1757 24.2344 10.3125 24.2344H22.6875C22.8243 24.2344 22.9554 24.1801 23.0521 24.0834C23.1488 23.9867 23.2031 23.8555 23.2031 23.7188V19.5938C23.2031 19.457 23.1488 19.3258 23.0521 19.2291C22.9554 19.1324 22.8243 19.0781 22.6875 19.0781ZM22.1719 23.2031H10.8281V20.1094H22.1719V23.2031Z" fill="white"/>
<path d="M17.5312 25.2656H15.4688C15.0585 25.2656 14.665 25.4286 14.3749 25.7187C14.0848 26.0088 13.9219 26.4022 13.9219 26.8125C13.9219 27.2228 14.0848 27.6162 14.3749 27.9063C14.665 28.1964 15.0585 28.3594 15.4688 28.3594H17.5312C17.9415 28.3594 18.335 28.1964 18.6251 27.9063C18.9152 27.6162 19.0781 27.2228 19.0781 26.8125C19.0781 26.4022 18.9152 26.0088 18.6251 25.7187C18.335 25.4286 17.9415 25.2656 17.5312 25.2656ZM17.5312 27.3281H15.4688C15.332 27.3281 15.2008 27.2738 15.1041 27.1771C15.0074 27.0804 14.9531 26.9493 14.9531 26.8125C14.9531 26.6757 15.0074 26.5446 15.1041 26.4479C15.2008 26.3512 15.332 26.2969 15.4688 26.2969H17.5312C17.668 26.2969 17.7992 26.3512 17.8959 26.4479C17.9926 26.5446 18.0469 26.6757 18.0469 26.8125C18.0469 26.9493 17.9926 27.0804 17.8959 27.1771C17.7992 27.2738 17.668 27.3281 17.5312 27.3281Z" fill="white"/>
</svg>
