<svg width="18" height="18" viewBox="0 0 18 18" fill="none" xmlns="http://www.w3.org/2000/svg">
<path d="M14.9699 0.120349C14.4403 0.269607 14.1319 0.819954 14.2812 1.34956L14.7153 2.8899C14.7101 2.88484 14.705 2.87964 14.6999 2.87459C13.8513 2.04878 12.822 1.42875 11.6835 1.06294C11.3689 0.96183 11.0497 0.881555 10.7279 0.822155C10.6359 0.80517 10.5438 0.789912 10.4514 0.776344C10.4052 0.76955 10.359 0.763192 10.3127 0.757271C9.98887 0.715748 9.66299 0.695101 9.33688 0.695348C8.63804 0.695879 7.93799 0.792418 7.2538 0.985229C7.25366 0.985267 7.25355 0.985305 7.25342 0.985343C6.28097 1.25943 5.38772 1.71207 4.59852 2.33069C4.16546 2.67015 4.08957 3.2964 4.42902 3.72947C4.76847 4.16255 5.39471 4.23843 5.82779 3.89899C6.41152 3.44145 7.07315 3.1064 7.79431 2.90317C8.87561 2.59839 10.0097 2.61809 11.0739 2.96006C11.1064 2.9705 11.1387 2.98121 11.171 2.99219C12.009 3.27794 12.7638 3.75055 13.3823 4.37417C13.4118 4.40389 13.4408 4.43408 13.4697 4.46449L12.4097 4.76319C11.8801 4.91245 11.5718 5.4628 11.721 5.9924C11.8448 6.43167 12.2445 6.71873 12.6795 6.71871C12.7689 6.71871 12.8599 6.70656 12.9503 6.68111L16.5342 5.67107C16.7886 5.5994 17.004 5.42962 17.1332 5.1991C17.2624 4.96859 17.2946 4.6962 17.2229 4.44186L16.1991 0.809061C16.0499 0.279437 15.4995 -0.0289283 14.9699 0.120349Z" fill="#20CAEB"/>
<path d="M16.8092 6.25213C16.264 6.32643 15.8823 6.82865 15.9566 7.37384C16.0567 8.10874 16.0118 8.84897 15.823 9.57409C15.7965 9.67601 15.7673 9.77692 15.7354 9.87664C15.4273 10.841 14.8723 11.7001 14.1178 12.3761C13.4003 13.0188 12.5395 13.4666 11.6094 13.6842L11.8868 12.6185C12.0255 12.086 11.7061 11.542 11.1736 11.4034C10.6411 11.2648 10.0971 11.5841 9.95846 12.1166L9.02042 15.7201C8.95385 15.9758 8.99159 16.2475 9.12535 16.4754C9.2591 16.7033 9.47789 16.8687 9.73361 16.9352L13.3862 17.8861C13.4704 17.908 13.5548 17.9184 13.6379 17.9184C14.0805 17.9184 14.4847 17.6212 14.6014 17.1729C14.74 16.6403 14.4207 16.0963 13.8882 15.9577L12.3395 15.5545C13.4888 15.2404 14.5513 14.6631 15.4474 13.8603C15.6936 13.6397 15.924 13.4048 16.1378 13.157C16.9014 12.2721 17.453 11.2226 17.7514 10.0761C18.006 9.09819 18.0664 8.09849 17.931 7.10479C17.8566 6.55955 17.3545 6.17784 16.8092 6.25213Z" fill="#20CAEB"/>
<path d="M2.50786 7.55944C2.40669 8.0221 2.34839 8.49249 2.33396 8.96518C2.32565 9.2374 2.33182 9.51035 2.35252 9.78298C2.35943 9.87386 2.36793 9.96467 2.37809 10.0554C2.40342 10.2824 2.43889 10.5089 2.48453 10.7342C2.78438 12.215 3.50964 13.5644 4.58192 14.6367C5.29643 15.3512 6.12802 15.9093 7.05357 16.2955C7.17898 16.3478 7.30893 16.3726 7.43682 16.3726C7.82683 16.3726 8.19715 16.1421 8.35672 15.7597C8.5686 15.2519 8.32871 14.6684 7.82091 14.4565C7.13643 14.1709 6.5207 13.7575 5.99091 13.2277C5.19655 12.4333 4.65937 11.4343 4.43752 10.3387C4.39691 10.1382 4.36716 9.93645 4.34818 9.73438C4.34186 9.66703 4.33674 9.59962 4.33281 9.53223C4.323 9.36373 4.32066 9.19517 4.32577 9.02701C4.34034 8.5473 4.41564 8.07085 4.55044 7.60816L5.28219 8.34872C5.66894 8.74013 6.29977 8.74389 6.69118 8.35714C7.08259 7.9704 7.08636 7.33959 6.69962 6.94816L4.23418 4.453C3.84744 4.06159 3.21661 4.05781 2.8252 4.44455L0.296048 6.94362C-0.0953629 7.33037 -0.0991394 7.9612 0.287603 8.35261C0.482521 8.54986 0.739362 8.64866 0.996355 8.64866C1.24933 8.64866 1.50243 8.5529 1.69659 8.36105L2.50786 7.55944Z" fill="#20CAEB"/>
</svg>
