<svg width="13" height="14" viewBox="0 0 13 14" fill="none" xmlns="http://www.w3.org/2000/svg">
<path d="M5.41699 8.75L5.41699 7" stroke="white" stroke-linecap="round"/>
<path d="M7.58301 8.75L7.58301 7" stroke="white" stroke-linecap="round"/>
<path d="M1.625 4.08301H11.375V4.08301C10.4775 4.08301 9.75 4.81055 9.75 5.70801V8.41634C9.75 9.58366 9.75 10.1673 9.51384 10.6091C9.32738 10.958 9.04165 11.2437 8.69279 11.4302C8.25097 11.6663 7.66732 11.6663 6.5 11.6663V11.6663C5.33268 11.6663 4.74903 11.6663 4.30721 11.4302C3.95835 11.2437 3.67262 10.958 3.48616 10.6091C3.25 10.1673 3.25 9.58366 3.25 8.41634V5.70801C3.25 4.81055 2.52246 4.08301 1.625 4.08301V4.08301Z" stroke="white" stroke-linecap="round"/>
<path d="M5.45325 1.96618C5.51498 1.90416 5.65098 1.84936 5.84018 1.81027C6.02938 1.77119 6.2612 1.75 6.49967 1.75C6.73815 1.75 6.96997 1.77119 7.15917 1.81027C7.34836 1.84936 7.48437 1.90416 7.54609 1.96618" stroke="white" stroke-linecap="round"/>
</svg>
