<svg width="18" height="18" viewBox="0 0 18 18" fill="none" xmlns="http://www.w3.org/2000/svg">
<g clip-path="url(#clip0)">
<path d="M0.527302 16.769H1.5819C1.87312 16.769 2.10921 16.5329 2.10921 16.2417V10.4414H0.527302C0.23609 10.4414 0 10.6775 0 10.9687V16.2417C0 16.5329 0.23609 16.769 0.527302 16.769Z" fill="#20CAEB"/>
<path d="M13.779 0.949219C11.4492 0.949219 9.56055 2.83784 9.56055 5.16763C9.56055 7.49735 11.4492 9.38604 13.779 9.38604C16.1088 9.38604 17.9974 7.49735 17.9974 5.16763C17.9974 2.83784 16.1088 0.949219 13.779 0.949219ZM14.6627 7.06542C14.5484 7.12251 14.4287 7.16747 14.3062 7.2015V7.34721C14.3062 7.63842 14.0701 7.87452 13.7789 7.87452C13.4877 7.87452 13.2516 7.63842 13.2516 7.34721V7.21799C13.0321 7.16273 12.8274 7.06982 12.654 6.93979C12.421 6.76507 12.3738 6.43456 12.5485 6.20156C12.7233 5.96864 13.0538 5.92136 13.2867 6.0961C13.4977 6.25429 13.9033 6.26603 14.191 6.12219C14.3066 6.06436 14.369 5.99476 14.369 5.95865C14.369 5.89555 14.369 5.88582 14.2989 5.84838C14.1613 5.77494 13.918 5.7298 13.6827 5.68618C13.3686 5.62789 13.0438 5.56764 12.7624 5.41743C12.3514 5.19807 12.1342 4.83821 12.1342 4.37675C12.1342 3.91476 12.4112 3.51127 12.8943 3.26977C13.0088 3.2125 13.1288 3.16719 13.2516 3.13313V2.98819C13.2516 2.69698 13.4877 2.46089 13.7789 2.46089C14.0701 2.46089 14.3062 2.69698 14.3062 2.98819V3.11731C14.5257 3.1726 14.7304 3.26558 14.9038 3.39562C15.1368 3.57036 15.184 3.90088 15.0093 4.13384C14.8345 4.3668 14.5041 4.41405 14.271 4.2393C14.0598 4.08086 13.6538 4.06912 13.3659 4.213C13.2496 4.27115 13.1888 4.33938 13.1888 4.37671C13.1888 4.43985 13.1888 4.44955 13.2589 4.48702C13.3965 4.56046 13.6398 4.6056 13.8751 4.64922C14.1892 4.70751 14.514 4.76776 14.7954 4.91797C15.2064 5.13733 15.4236 5.49719 15.4236 5.95865C15.4237 6.42018 15.1463 6.8236 14.6627 7.06542Z" fill="#20CAEB"/>
<path d="M9.51984 17.0463H9.63585C11.4076 17.0252 13.1055 16.5226 14.6031 15.6156L17.5454 13.5591C18.041 13.2111 18.1359 12.5573 17.809 12.0932C17.4715 11.6081 16.8177 11.4921 16.3431 11.8296L13.5168 13.8122C12.6098 14.3395 11.5025 14.4555 10.5006 14.118L7.24893 13.0423C6.97473 12.958 6.82705 12.6521 6.922 12.378C7.00633 12.1143 7.28053 11.9667 7.55473 12.0405C7.56527 12.0405 11.2072 13.2217 11.2072 13.2217C11.8205 13.4055 12.3653 13.0585 12.536 12.5467C12.7152 11.9877 12.4094 11.3972 11.861 11.2179L6.90087 9.59382C5.81597 9.19887 4.35397 9.28046 3.16406 9.94585V15.8489L7.30162 16.7862C8.05956 16.9529 8.80327 17.0463 9.51984 17.0463Z" fill="#20CAEB"/>
</g>
<defs>
<clipPath id="clip0">
<rect width="18" height="18" fill="white"/>
</clipPath>
</defs>
</svg>
