<svg width="24" height="24" viewBox="0 0 24 24" fill="none" xmlns="http://www.w3.org/2000/svg">
<path d="M2.79965 2.01109C2.79965 2.23189 2.62063 2.41092 2.39982 2.41092C2.17902 2.41092 2 2.23189 2 2.01109C2 1.79029 2.17902 1.61127 2.39982 1.61127C2.62063 1.61127 2.79965 1.79029 2.79965 2.01109Z" fill="#20CAEB"/>
<path d="M4.3973 2.01109C4.3973 2.23189 4.21828 2.41092 3.99748 2.41092C3.77668 2.41092 3.59766 2.23189 3.59766 2.01109C3.59766 1.79029 3.77668 1.61127 3.99748 1.61127C4.21828 1.61127 4.3973 1.79029 4.3973 2.01109Z" fill="#20CAEB"/>
<path d="M5.99691 2.01109C5.99691 2.23189 5.81789 2.41092 5.59709 2.41092C5.37629 2.41092 5.19727 2.23189 5.19727 2.01109C5.19727 1.79029 5.37629 1.61127 5.59709 1.61127C5.81789 1.61127 5.99691 1.79029 5.99691 2.01109Z" fill="#20CAEB"/>
<path d="M8.39592 1.61127C8.17512 1.61127 7.99609 1.79029 7.99609 2.01109C7.99609 2.23189 8.17512 2.41092 8.39592 2.41092H18.3915C18.6123 2.41092 18.7914 2.23189 18.7914 2.01109C18.7914 1.79029 18.6123 1.61127 18.3915 1.61127H8.39592Z" fill="#20CAEB"/>
<path d="M5.76544 19.6019H0.799649V4.00874H18.3919C18.6127 4.00874 18.7917 3.82972 18.7917 3.60892C18.7917 3.38812 18.6127 3.20909 18.3919 3.20909H0.799649V0.810147H19.5914V5.77593C19.5914 5.99674 19.7704 6.17576 19.9912 6.17576C20.212 6.17576 20.391 5.99674 20.391 5.77593V0.410322C20.391 0.189521 20.212 0.010498 19.9912 0.010498H0.399824C0.179023 0.010498 0 0.189521 0 0.410322V20.0017C0 20.2225 0.179023 20.4015 0.399824 20.4015H5.76544C5.98624 20.4015 6.16526 20.2225 6.16526 20.0017C6.16526 19.7809 5.98624 19.6019 5.76544 19.6019Z" fill="#20CAEB"/>
<path d="M23.8745 22.1837L21.6755 20.0007L22.963 19.1411C23.0956 19.0544 23.1647 18.8976 23.1389 18.7413C23.1122 18.5855 22.9962 18.4601 22.8429 18.4213L17.4734 16.994C17.336 16.9583 17.1902 16.9979 17.0898 17.0982C16.9895 17.1986 16.9498 17.3444 16.9856 17.4819L18.393 22.8514C18.4318 23.0046 18.5571 23.1206 18.7127 23.1473C18.8691 23.1731 19.0261 23.104 19.1126 22.9714L19.9922 21.6839L22.1913 23.8829C22.2666 23.9577 22.3689 23.9995 22.4751 23.9989C22.5813 23.9995 22.6836 23.9577 22.759 23.8829L23.8905 22.7514C23.9641 22.6743 24.004 22.5708 24.0008 22.4642C23.9979 22.3576 23.9524 22.2567 23.8745 22.1837ZM22.4591 23.0353L20.1961 20.7724C20.1217 20.6984 20.0211 20.6568 19.9163 20.6564H19.8763C19.7576 20.6685 19.6506 20.733 19.5844 20.8323L18.9447 21.788L17.9332 17.9416L21.7795 18.9531L20.8239 19.6008C20.7245 19.667 20.6601 19.774 20.648 19.8927C20.6371 20.0112 20.6796 20.1285 20.764 20.2125L23.0269 22.4756L22.4591 23.0353Z" fill="#20CAEB"/>
<path d="M16.6177 21.0059C15.7837 21.3523 14.8965 21.5537 13.9948 21.6018V18.0033C14.5859 18.0172 15.1759 18.0639 15.762 18.1433C15.9828 18.1742 16.187 18.0203 16.2178 17.7995C16.2487 17.5785 16.0948 17.3745 15.874 17.3437C15.2507 17.2621 14.6232 17.2154 13.9948 17.2037V14.0051H17.993C17.9727 14.6322 17.9114 15.2573 17.8091 15.8763C17.7726 16.0972 17.9222 16.3057 18.143 16.3422C18.3638 16.3785 18.5723 16.2291 18.6088 16.0081C18.715 15.3453 18.7765 14.6761 18.7927 14.0051H21.5915C21.5499 14.9057 21.3552 15.7926 21.0157 16.628C20.933 16.831 21.0292 17.0631 21.2316 17.1477C21.2797 17.1682 21.3312 17.1791 21.3835 17.1797C21.5473 17.1799 21.6947 17.0801 21.7554 16.9278C22.1824 15.8724 22.3983 14.7436 22.3911 13.6053C22.3921 11.5413 21.6643 9.54339 20.3359 7.96381C18.6666 5.96664 16.1981 4.81149 13.595 4.80914H13.307C11.3655 4.87279 9.49891 5.5756 7.99743 6.80826C7.82621 6.94844 7.80122 7.20087 7.9414 7.37208C8.08176 7.5431 8.334 7.56828 8.50521 7.42791C9.19983 6.85649 9.98483 6.40512 10.8282 6.09256C10.1613 6.81822 9.63772 7.66336 9.28495 8.58346C8.60321 8.38999 7.93534 8.15103 7.28582 7.86776C7.1273 7.8008 6.94359 7.84258 6.82997 7.97182C6.82997 7.97182 6.80986 7.97182 6.80186 7.99583C5.50828 9.57424 4.80176 11.5525 4.80274 13.5934C4.80293 15.6382 5.51863 17.6184 6.82587 19.1909L6.85398 19.2227C8.51673 21.2316 10.9871 22.3965 13.595 22.4014C14.7347 22.4022 15.8635 22.1794 16.9175 21.7456C17.0585 21.6984 17.1616 21.5768 17.185 21.43C17.2086 21.2832 17.1487 21.1354 17.0296 21.0463C16.9105 20.9573 16.7518 20.9419 16.6177 21.0059ZM13.1951 21.5658C11.9197 21.3618 10.7962 20.1665 10.0725 18.4071C11.0968 18.1662 12.1433 18.0307 13.1951 18.0033V21.5658ZM13.1951 17.2037C12.0488 17.2273 10.9081 17.3733 9.79273 17.6394C9.42434 16.462 9.22364 15.2385 9.1969 14.0051H13.1951V17.2037ZM5.61839 14.0051H8.39725C8.42224 15.3129 8.6323 16.6104 9.021 17.8595C8.42849 18.0324 7.84652 18.2394 7.27782 18.4791C6.27904 17.1932 5.6998 15.6313 5.61839 14.0051ZM17.0934 8.80739C16.0767 9.04517 15.0385 9.1791 13.9948 9.20721V5.64881C15.2583 5.86063 16.3697 7.06011 17.0934 8.80739ZM13.1951 13.2055H9.1969C9.22189 11.9675 9.42395 10.7397 9.79664 9.55901C10.9102 9.82901 12.0496 9.97914 13.1951 10.0069V13.2055ZM13.9948 10.0069C15.1318 9.98246 16.2629 9.8376 17.3693 9.57502C17.7406 10.7505 17.9425 11.973 17.969 13.2055H13.9948V10.0069ZM21.5915 13.2055H18.7927C18.7689 11.8992 18.5602 10.6029 18.173 9.35519C18.7739 9.18261 19.3641 8.9743 19.9402 8.73144C20.9361 10.0184 21.5124 11.5802 21.5915 13.2055ZM19.3924 8.09168C18.9045 8.28789 18.4067 8.45871 17.9011 8.60357C17.5505 7.67683 17.0237 6.82681 16.3498 6.10057C17.4956 6.52597 18.5293 7.20692 19.3725 8.09168H19.3924ZM13.1951 5.64471V9.20721C12.1433 9.18105 11.097 9.04712 10.0725 8.80739C10.7962 7.0441 11.9197 5.84873 13.1951 5.64471ZM8.39725 13.2055H5.59848C5.68106 11.5808 6.25717 10.0201 7.24971 8.73144C7.81977 8.97118 8.4033 9.17812 8.99699 9.35109C8.61571 10.6011 8.41384 11.8988 8.39725 13.2055ZM7.81743 19.1189C8.29768 18.926 8.78751 18.7579 9.28495 18.615C9.63655 19.5304 10.1574 20.3714 10.8202 21.094C9.68184 20.6731 8.65475 19.9974 7.81743 19.1189Z" fill="#20CAEB"/>
<path d="M22.8226 9.75726C22.8839 9.90661 23.0289 10.0044 23.1904 10.0052C23.2429 10.0066 23.2948 9.99563 23.3422 9.97318C23.5447 9.88845 23.6409 9.65652 23.5582 9.45349C23.1466 8.45861 22.5857 7.53246 21.8948 6.70665C21.7482 6.57546 21.5278 6.57058 21.3753 6.69493C21.2231 6.81949 21.1838 7.03658 21.2832 7.20643C21.9222 7.97406 22.4413 8.83423 22.8226 9.75726Z" fill="#20CAEB"/>
<path d="M5.28973 6.70705C3.68008 8.64507 2.79902 11.0848 2.79883 13.604C2.79883 13.8248 2.97785 14.0038 3.19865 14.0038C3.41945 14.0038 3.59848 13.8248 3.59848 13.604C3.59614 11.2676 4.41238 9.00409 5.90547 7.20683C6.04682 7.03679 6.02359 6.78436 5.85354 6.64302C5.6835 6.50168 5.43107 6.5251 5.28973 6.69515V6.70705Z" fill="#20CAEB"/>
</svg>
