<svg width="21" height="21" viewBox="0 0 21 21" fill="none" xmlns="http://www.w3.org/2000/svg">
<path d="M10.4998 20.7813C9.49355 20.7813 8.5748 20.3875 7.8748 19.6875C7.3498 19.1625 6.60605 18.8563 5.8623 18.8563C3.80605 18.8563 2.14355 17.1938 2.14355 15.1375C2.14355 14.3938 1.8373 13.65 1.3123 13.125C-0.131445 11.6813 -0.131445 9.31875 1.3123 7.875C1.8373 7.35 2.14355 6.60625 2.14355 5.8625C2.14355 3.80625 3.80605 2.14375 5.8623 2.14375C6.60605 2.14375 7.3498 1.8375 7.8748 1.3125C8.5748 0.6125 9.49355 0.21875 10.4998 0.21875C11.5061 0.21875 12.4248 0.6125 13.1248 1.3125C13.6498 1.8375 14.3936 2.14375 15.1373 2.14375C17.1936 2.14375 18.8561 3.80625 18.8561 5.8625C18.8561 6.60625 19.1623 7.35 19.6873 7.875C21.1311 9.31875 21.1311 11.6813 19.6873 13.125C19.1623 13.65 18.8561 14.3938 18.8561 15.1375C18.8561 17.1938 17.1936 18.8563 15.1373 18.8563C14.3936 18.8563 13.6498 19.1625 13.1248 19.6875C12.4248 20.3875 11.5061 20.7813 10.4998 20.7813ZM10.4998 1.09375C9.75605 1.09375 9.0123 1.4 8.4873 1.925C7.7873 2.625 6.86855 3.01875 5.8623 3.01875C4.2873 3.01875 3.01855 4.2875 3.01855 5.8625C3.01855 6.86875 2.6248 7.7875 1.9248 8.4875C0.831055 9.58125 0.831055 11.4188 1.9248 12.5125C2.6248 13.2125 3.01855 14.1313 3.01855 15.1375C3.01855 16.7125 4.2873 17.9813 5.8623 17.9813C6.86855 17.9813 7.7873 18.375 8.4873 19.075C9.0123 19.6 9.75605 19.9063 10.4998 19.9063C11.2436 19.9063 11.9873 19.6 12.5123 19.075C13.2123 18.375 14.1311 17.9813 15.1373 17.9813C16.7123 17.9813 17.9811 16.7125 17.9811 15.1375C17.9811 14.1313 18.3748 13.2125 19.0748 12.5125C20.1686 11.4188 20.1686 9.58125 19.0748 8.4875C18.3748 7.7875 17.9811 6.86875 17.9811 5.8625C17.9811 4.2875 16.7123 3.01875 15.1373 3.01875C14.1311 3.01875 13.2123 2.625 12.5123 1.925C11.9873 1.4 11.2436 1.09375 10.4998 1.09375Z" fill="white"/>
<path d="M4.9875 14.7875L3.5 10.8063L4.2875 10.5L6.9125 12.6L5.95 9.93126L6.69375 9.66876L8.1375 13.6938L7.30625 14L4.725 11.9875L5.6875 14.6125L4.9875 14.7875Z" fill="white"/>
<path d="M9.01211 13.3438L7.56836 9.31879L10.5434 8.22504L10.8059 8.88129L8.66211 9.66879L8.96836 10.5438L10.9809 9.80004L11.2434 10.4563L9.18711 11.2875L9.58086 12.3813L11.8121 11.55L12.0746 12.2063L9.01211 13.3438Z" fill="white"/>
<path d="M13.2998 11.7688L10.8936 8.09376L11.7248 7.78751L13.3436 10.325L13.0811 7.30626L14.0436 6.95626L15.7498 9.49376L15.3123 6.47501L16.1436 6.16876L16.6248 10.5438L15.7498 10.85L13.8686 8.13751L14.1748 11.4188L13.2998 11.7688Z" fill="white"/>
</svg>
