<svg width="14" height="14" viewBox="0 0 14 14"  xmlns="http://www.w3.org/2000/svg">
<path d="M12.52 3.05443C12.4756 2.18171 11.7605 1.48596 10.8769 1.48507H8.46767C8.22274 0.87976 7.63199 0.451598 6.93917 0.450684H1.65147C0.740729 0.451893 0.00235967 1.18926 0 2.1V11.9C0.00235967 12.8107 0.740729 13.5481 1.65147 13.5493H12.3486C13.2593 13.5481 13.9976 12.8107 14 11.9V4.69056C14 3.83687 13.3506 3.14236 12.52 3.05443ZM10.8791 2.56203C11.1611 2.56203 11.3848 2.76906 11.4335 3.03694H9.16516C8.88321 3.03667 8.65954 2.82982 8.61037 2.56203H10.8769H10.8791ZM12.9231 11.9C12.9228 12.2172 12.6657 12.4743 12.3485 12.4746H1.65147C1.33427 12.4743 1.07722 12.2172 1.07692 11.9V2.1C1.0784 1.78366 1.3351 1.5279 1.65147 1.52761L6.93917 1.52545C7.25628 1.52575 7.51315 1.78289 7.51315 2.1V2.46401C7.51404 3.37602 8.25315 4.11513 9.16516 4.11601H12.3486C12.6658 4.11631 12.9228 4.37337 12.9231 4.69056V11.9H12.9231Z"/>
<path d="M8.40482 6.99999H7.53791V6.13308C7.53791 5.8357 7.29684 5.5946 6.99947 5.5946C6.70209 5.5946 6.46102 5.83567 6.46102 6.13308V6.99999H5.59411C5.29673 6.99999 5.05566 7.24106 5.05566 7.53844C5.05566 7.83582 5.29673 8.07692 5.59411 8.07692H6.46102V8.94383C6.46102 9.24121 6.70209 9.48228 6.99947 9.48228C7.29684 9.48228 7.53791 9.24121 7.53791 8.94383V8.07692H8.40482C8.7022 8.07692 8.94327 7.83585 8.94327 7.53844C8.94327 7.24104 8.70223 6.99999 8.40482 6.99999Z" />
</svg>
