<svg width="16" height="16" viewBox="0 0 16 16"  xmlns="http://www.w3.org/2000/svg">
<g clip-path="url(#clip0)">
<path d="M13.2206 15H5.77941C4.79782 15 4 14.2367 4 13.2976V3.70238C4 2.76329 4.79782 2 5.77941 2H13.2206C14.2022 2 15 2.76329 15 3.70238V13.2976C15 14.2367 14.2022 15 13.2206 15ZM5.77941 2.92857C5.33359 2.92857 4.97059 3.27586 4.97059 3.70238V13.2976C4.97059 13.7241 5.33359 14.0714 5.77941 14.0714H13.2206C13.6664 14.0714 14.0294 13.7241 14.0294 13.2976V3.70238C14.0294 3.27586 13.6664 2.92857 13.2206 2.92857H5.77941Z" />
<path d="M8.83333 8.16658H6.5C6.224 8.16658 6 7.94258 6 7.66658V5.33325C6 5.05725 6.224 4.83325 6.5 4.83325H8.83333C9.10933 4.83325 9.33333 5.05725 9.33333 5.33325V7.66658C9.33333 7.94258 9.10933 8.16658 8.83333 8.16658ZM7 7.16658H8.33333V5.83325H7V7.16658Z" />
<path d="M13 8H11C10.724 8 10.5 7.776 10.5 7.5C10.5 7.224 10.724 7 11 7H13C13.276 7 13.5 7.224 13.5 7.5C13.5 7.776 13.276 8 13 8Z" />
<path d="M13 6H11C10.724 6 10.5 5.776 10.5 5.5C10.5 5.224 10.724 5 11 5H13C13.276 5 13.5 5.224 13.5 5.5C13.5 5.776 13.276 6 13 6Z" />
<path d="M12.8333 13.3333H6.5C6.224 13.3333 6 13.1093 6 12.8333C6 12.5573 6.224 12.3333 6.5 12.3333H12.8333C13.1093 12.3333 13.3333 12.5573 13.3333 12.8333C13.3333 13.1093 13.1093 13.3333 12.8333 13.3333Z" />
<path d="M12.8333 10.6667H6.5C6.224 10.6667 6 10.4427 6 10.1667C6 9.89075 6.224 9.66675 6.5 9.66675H12.8333C13.1093 9.66675 13.3333 9.89075 13.3333 10.1667C13.3333 10.4427 13.1093 10.6667 12.8333 10.6667Z" />
<path d="M2.49935 14C1.48802 14 0.666016 13.178 0.666016 12.1667V1.83333C0.666016 0.822 1.48802 0 2.49935 0H10.166C10.442 0 10.666 0.224 10.666 0.5C10.666 0.776 10.442 1 10.166 1H2.49935C2.04002 1 1.66602 1.374 1.66602 1.83333V12.1667C1.66602 12.626 2.04002 13 2.49935 13C2.77535 13 2.99935 13.224 2.99935 13.5C2.99935 13.776 2.77535 14 2.49935 14Z" />
</g>
<defs>
<clipPath id="clip0">
<rect width="16" height="16" />
</clipPath>
</defs>
</svg>
