<svg width="14" height="14" viewBox="0 0 14 14" fill="none" xmlns="http://www.w3.org/2000/svg">
<g clip-path="url(#clip0)">
<path d="M12.25 0.710938H1.74996C0.783911 0.712091 0.00115356 1.49498 0 2.46102V11.561C0.00115356 12.527 0.783911 13.3099 1.74996 13.3109H12.25C13.216 13.3099 13.9989 12.527 14 11.561V2.46102C13.9989 1.49498 13.216 0.712091 12.25 0.710938ZM1.74996 1.41102H12.25C12.8297 1.41166 13.2993 1.88129 13.3 2.46102V2.81094H0.699957V2.46102C0.700598 1.88129 1.17036 1.41166 1.74996 1.41102ZM12.25 12.611H1.74996C1.17036 12.6103 0.700598 12.1406 0.699957 11.561V3.51102H13.3V11.561C13.2993 12.1406 12.8297 12.6103 12.25 12.611Z" fill="white"/>
<path d="M2.44965 8.41116H5.24961C5.34241 8.41116 5.43149 8.37438 5.49711 8.30875C5.56287 8.243 5.59965 8.15405 5.59965 8.06112V5.96112C5.59965 5.86832 5.56287 5.77924 5.49711 5.71362C5.43149 5.64799 5.34241 5.61108 5.24961 5.61121H2.44965C2.35673 5.61108 2.26777 5.64799 2.20202 5.71362C2.1364 5.77924 2.09961 5.86832 2.09961 5.96112V8.06112C2.09961 8.15405 2.1364 8.243 2.20202 8.30875C2.26777 8.37438 2.35673 8.41116 2.44965 8.41116ZM2.79957 6.31116H4.89957V7.71121H2.79957V6.31116Z" fill="white"/>
<path d="M11.55 5.61121H7.35004C7.15676 5.61121 7 5.76783 7 5.96112C7 6.15441 7.15676 6.31116 7.35004 6.31116H11.55C11.7433 6.31116 11.9001 6.15441 11.9001 5.96112C11.9001 5.76783 11.7433 5.61121 11.55 5.61121Z" fill="white"/>
<path d="M11.55 7.71118H7.35004C7.15676 7.71118 7 7.86781 7 8.0611C7 8.25438 7.15676 8.41114 7.35004 8.41114H11.55C11.7433 8.41114 11.9001 8.25438 11.9001 8.0611C11.9001 7.86781 11.7433 7.71118 11.55 7.71118Z" fill="white"/>
<path d="M11.5496 9.81055H2.44965C2.25637 9.81055 2.09961 9.96717 2.09961 10.1605C2.09961 10.3537 2.25637 10.5105 2.44965 10.5105H11.5496C11.7429 10.5105 11.8997 10.3537 11.8997 10.1605C11.8997 9.96717 11.7429 9.81055 11.5496 9.81055Z" fill="white"/>
</g>
<defs>
<clipPath id="clip0">
<rect width="14" height="14" fill="white"/>
</clipPath>
</defs>
</svg>
