<svg width="9" height="10" viewBox="0 0 9 10" fill="none" xmlns="http://www.w3.org/2000/svg">
<path d="M5.22266 8.12012H2.93262V10H1.62695V8.12012H0.211914V7.04004H1.62695V6.10352H0.211914V5.03027H1.62695V0.046875H5.29785C6.36426 0.046875 7.20964 0.318034 7.83398 0.860352C8.45833 1.40267 8.77051 2.13639 8.77051 3.06152C8.77051 4.03223 8.46973 4.7819 7.86816 5.31055C7.27116 5.83464 6.42122 6.09896 5.31836 6.10352H2.93262V7.04004H5.22266V8.12012ZM2.93262 5.03027H5.29785C6.00423 5.03027 6.54199 4.86393 6.91113 4.53125C7.28027 4.19857 7.46484 3.71322 7.46484 3.0752C7.46484 2.49642 7.27344 2.0293 6.89062 1.67383C6.50781 1.3138 5.99056 1.13151 5.33887 1.12695H2.93262V5.03027Z" fill="#26304F"/>
</svg>
