<svg width="16" height="16" viewBox="0 0 16 16" fill="none" xmlns="http://www.w3.org/2000/svg">
<path d="M8.83729 13.353C9.19051 13.2985 9.55189 13.359 9.86812 13.5255C10.3796 13.7944 10.9637 13.8926 11.535 13.8059C12.1063 13.7191 12.6348 13.4519 13.0434 13.0433C13.452 12.6347 13.7192 12.1061 13.806 11.5348C13.8927 10.9635 13.7945 10.3795 13.5256 9.868C13.3591 9.55177 13.2986 9.19038 13.3531 8.83716C13.4851 7.99428 13.416 7.13215 13.1517 6.321C12.8873 5.50984 12.435 4.77261 11.8318 4.16934C11.2285 3.56607 10.4913 3.11384 9.68012 2.84946C8.86897 2.58509 8.00684 2.51606 7.16395 2.648C6.81074 2.70251 6.44935 2.64204 6.13312 2.4755C5.62156 2.20641 5.03733 2.10804 4.46586 2.19478C3.89438 2.28152 3.36565 2.54881 2.95698 2.95758C2.54831 3.36635 2.28113 3.89514 2.19452 4.46663C2.10791 5.03812 2.20641 5.62233 2.47562 6.13383C2.64216 6.45006 2.70263 6.81145 2.64812 7.16466C2.51618 8.00755 2.58521 8.86968 2.84959 9.68083C3.11396 10.492 3.5662 11.2292 4.16946 11.8325C4.77273 12.4358 5.50996 12.888 6.32112 13.1524C7.13227 13.4167 7.9944 13.4858 8.83729 13.3538V13.353ZM8.00062 15.0838C6.978 15.084 5.96747 14.8628 5.03847 14.4353C4.10948 14.0079 3.28406 13.3843 2.61894 12.6076C1.95381 11.8308 1.46477 10.9192 1.18541 9.9355C0.906059 8.95178 0.843016 7.91923 1.00062 6.90883C0.56623 6.08259 0.407499 5.13907 0.547627 4.21618C0.687755 3.29328 1.1194 2.4394 1.77946 1.77934C2.43952 1.11927 3.2934 0.687633 4.2163 0.547505C5.13919 0.407377 6.08271 0.566108 6.90895 1.0005C8.01087 0.828372 9.13786 0.918876 10.1982 1.26464C11.2585 1.61041 12.2222 2.20167 13.0108 2.99029C13.7994 3.77891 14.3907 4.74261 14.7365 5.80293C15.0822 6.86326 15.1727 7.99025 15.0006 9.09216C15.435 9.91841 15.5937 10.8619 15.4536 11.7848C15.3135 12.7077 14.8818 13.5616 14.2218 14.2217C13.5617 14.8817 12.7078 15.3134 11.7849 15.4535C10.862 15.5936 9.91853 15.4349 9.09229 15.0005C8.73645 15.0555 8.37145 15.0838 8.00062 15.0838ZM8.04479 12.1672C5.70895 12.1672 4.66729 11.0172 4.66729 10.1555C4.66729 9.71217 4.99229 9.40383 5.44062 9.40383C6.44062 9.40383 6.17979 10.8413 8.04479 10.8413C8.99729 10.8413 9.52479 10.3213 9.52479 9.7905C9.52479 9.4705 9.36812 9.11717 8.73895 8.9605L6.66395 8.44133C4.99229 8.02133 4.68895 7.11466 4.68895 6.26466C4.68895 4.498 6.34895 3.83383 7.90895 3.83383C9.34229 3.83383 11.039 4.6305 11.039 5.6905C11.039 6.14466 10.639 6.40966 10.1956 6.40966C9.34312 6.40966 9.49979 5.228 7.77895 5.228C6.92645 5.228 6.44895 5.613 6.44895 6.16633C6.44895 6.71883 7.11812 6.89633 7.70062 7.02883L9.23062 7.36966C10.909 7.74633 11.334 8.7305 11.334 9.658C11.334 11.0947 10.2298 12.1672 8.01312 12.1672H8.04479Z" fill="#3DC4DE"/>
</svg>
