<svg width="17" height="17" viewBox="0 0 17 17"  xmlns="http://www.w3.org/2000/svg">
<path d="M14.875 13.4583H3.54167V2.12496C3.54167 1.9371 3.46704 1.75693 3.3342 1.62409C3.20136 1.49125 3.0212 1.41663 2.83333 1.41663C2.64547 1.41663 2.4653 1.49125 2.33247 1.62409C2.19963 1.75693 2.125 1.9371 2.125 2.12496V14.1666C2.125 14.3545 2.19963 14.5347 2.33247 14.6675C2.4653 14.8003 2.64547 14.875 2.83333 14.875H14.875C15.0629 14.875 15.243 14.8003 15.3759 14.6675C15.5087 14.5347 15.5833 14.3545 15.5833 14.1666C15.5833 13.9788 15.5087 13.7986 15.3759 13.6658C15.243 13.5329 15.0629 13.4583 14.875 13.4583Z" />
<path d="M4.95801 7.79171V11.3334C4.95801 11.5212 5.03264 11.7014 5.16547 11.8342C5.29831 11.9671 5.47848 12.0417 5.66634 12.0417C5.8542 12.0417 6.03437 11.9671 6.16721 11.8342C6.30005 11.7014 6.37467 11.5212 6.37467 11.3334V7.79171C6.37467 7.60385 6.30005 7.42368 6.16721 7.29084C6.03437 7.158 5.8542 7.08337 5.66634 7.08337C5.47848 7.08337 5.29831 7.158 5.16547 7.29084C5.03264 7.42368 4.95801 7.60385 4.95801 7.79171Z" />
<path d="M7.79199 4.24996V11.3333C7.79199 11.5212 7.86662 11.7013 7.99946 11.8342C8.1323 11.967 8.31246 12.0416 8.50033 12.0416C8.68819 12.0416 8.86836 11.967 9.00119 11.8342C9.13403 11.7013 9.20866 11.5212 9.20866 11.3333V4.24996C9.20866 4.0621 9.13403 3.88193 9.00119 3.74909C8.86836 3.61625 8.68819 3.54163 8.50033 3.54163C8.31246 3.54163 8.1323 3.61625 7.99946 3.74909C7.86662 3.88193 7.79199 4.0621 7.79199 4.24996Z" />
<path d="M10.625 5.66671V11.3334C10.625 11.5212 10.6996 11.7014 10.8325 11.8342C10.9653 11.9671 11.1455 12.0417 11.3333 12.0417C11.5212 12.0417 11.7014 11.9671 11.8342 11.8342C11.967 11.7014 12.0417 11.5212 12.0417 11.3334V5.66671C12.0417 5.47885 11.967 5.29868 11.8342 5.16584C11.7014 5.033 11.5212 4.95837 11.3333 4.95837C11.1455 4.95837 10.9653 5.033 10.8325 5.16584C10.6996 5.29868 10.625 5.47885 10.625 5.66671Z" />
<path d="M13.458 2.12496V11.3333C13.458 11.5212 13.5326 11.7013 13.6655 11.8342C13.7983 11.967 13.9785 12.0416 14.1663 12.0416C14.3542 12.0416 14.5344 11.967 14.6672 11.8342C14.8 11.7013 14.8747 11.5212 14.8747 11.3333V2.12496C14.8747 1.9371 14.8 1.75693 14.6672 1.62409C14.5344 1.49125 14.3542 1.41663 14.1663 1.41663C13.9785 1.41663 13.7983 1.49125 13.6655 1.62409C13.5326 1.75693 13.458 1.9371 13.458 2.12496Z" />
</svg>
