<svg width="15" height="14" viewBox="0 0 15 14"  xmlns="http://www.w3.org/2000/svg">
<path d="M7.2104 8.9021C6.55638 8.90212 5.90257 8.74222 5.30638 8.42246L1.00739 6.11651C0.383996 5.78217 -0.00194026 5.13557 8.55809e-05 4.42909C0.00213843 3.72262 0.391829 3.07829 1.01714 2.74751L5.32697 0.467848C6.50633 -0.155949 7.91448 -0.155949 9.09384 0.467848L13.4037 2.74751C14.029 3.07826 14.4187 3.72259 14.4207 4.42909C14.4227 5.13557 14.0368 5.78217 13.4134 6.11651L9.1144 8.42246C8.51839 8.74222 7.86429 8.90204 7.2104 8.9021ZM7.2104 1.12673C6.74443 1.12673 6.27849 1.23907 5.85374 1.46375L1.54396 3.74344C1.28358 3.88117 1.12759 4.13875 1.12675 4.43239C1.12591 4.72603 1.28036 4.9845 1.53997 5.12374L5.83899 7.42966C6.69781 7.89031 7.72316 7.89031 8.58195 7.42966L12.881 5.12374C13.1406 4.9845 13.2951 4.72606 13.2942 4.43239C13.2934 4.13872 13.1374 3.88117 12.877 3.74344L8.56707 1.46375C8.14232 1.2391 7.67637 1.12673 7.2104 1.12673ZM5.59038 0.965799H5.59065H5.59038ZM9.11442 13.5204L14.1237 10.8336C14.3979 10.6865 14.5009 10.3451 14.3539 10.0709C14.2068 9.79676 13.8654 9.69371 13.5912 9.84076L8.5819 12.5276C7.72316 12.9882 6.69778 12.9882 5.83677 12.5264L0.827493 9.86777C0.552627 9.72191 0.211664 9.82647 0.0658579 10.1013C-0.0800026 10.3761 0.0245307 10.717 0.299343 10.8629L5.30641 13.5204C5.9026 13.8401 6.55641 14 7.21043 14C7.86429 14 8.51839 13.8401 9.11442 13.5204ZM9.11442 10.9855L14.1237 8.29872C14.3979 8.15167 14.5009 7.81019 14.3539 7.53606C14.2068 7.26187 13.8654 7.15887 13.5912 7.3059L8.5819 9.9927C7.72316 10.4534 6.69778 10.4533 5.83677 9.99154L0.827493 7.33291C0.552627 7.18705 0.211664 7.29161 0.0658579 7.56639C-0.0800026 7.8412 0.0245307 8.18217 0.299343 8.32803L5.30641 10.9855C5.9026 11.3053 6.55641 11.4651 7.21043 11.4651C7.86429 11.4651 8.51839 11.3053 9.11442 10.9855Z" />
</svg>
