<svg width="22" height="20" viewBox="0 0 22 20" fill="none" xmlns="http://www.w3.org/2000/svg">
<path d="M20.4175 0.600586H1.17745C0.528185 0.600586 0 1.12877 0 1.77803V18.613C0 19.2623 0.528185 19.7905 1.17745 19.7905H13.6033C13.8108 19.7905 13.9791 19.6222 13.9791 19.4147C13.9791 19.2072 13.8109 19.0389 13.6033 19.0389H1.17745C0.942606 19.0389 0.751544 18.8478 0.751544 18.613V4.55884H15.6075C15.815 4.55884 15.9833 4.3906 15.9833 4.18304C15.9833 3.97548 15.815 3.80725 15.6075 3.80725H0.751544V1.77803C0.751544 1.54319 0.942606 1.35213 1.17745 1.35213H20.4175C20.6523 1.35213 20.8434 1.54319 20.8434 1.77803V3.80725H19.6158C19.4083 3.80725 19.24 3.97548 19.24 4.18304C19.24 4.3906 19.4082 4.55884 19.6158 4.55884H20.8434V10.5964C20.8434 10.8039 21.0116 10.9722 21.2192 10.9722C21.4267 10.9722 21.5949 10.804 21.5949 10.5964V1.77803C21.5949 1.12877 21.0667 0.600586 20.4175 0.600586Z" fill="#20CAEB"/>
</svg>
