<svg width="16" height="17" viewBox="0 0 16 17" fill="none" xmlns="http://www.w3.org/2000/svg">
<g clip-path="url(#clip0)">
<path d="M9.5786 15.1323C9.44719 15.1651 9.31321 15.1941 9.18022 15.2186C8.83257 15.2833 8.60273 15.6176 8.66704 15.9656C8.69879 16.1368 8.79602 16.2793 8.92801 16.3724C9.06405 16.4682 9.23719 16.5114 9.41361 16.4786C9.57199 16.4492 9.7316 16.4146 9.88822 16.3755C10.2315 16.2901 10.4407 15.9423 10.355 15.5992C10.2696 15.2558 9.9221 15.0468 9.5786 15.1323Z" fill="#EFD57A"/>
<path d="M14.3129 6.54503C14.3578 6.68027 14.4434 6.79069 14.5517 6.86698C14.7121 6.97999 14.9221 7.01802 15.1225 6.95177C15.4584 6.84022 15.6404 6.47798 15.5293 6.14222C15.4786 5.98916 15.4225 5.83562 15.3626 5.68612C15.2312 5.35759 14.8585 5.19764 14.5298 5.32905C14.2015 5.4604 14.0415 5.83315 14.173 6.16179C14.2233 6.28744 14.2704 6.41642 14.3129 6.54503Z" fill="#EFD57A"/>
<path d="M11.658 14.2176C11.545 14.2922 11.4284 14.3644 11.3109 14.4321C11.0043 14.6089 10.8993 15.0008 11.0761 15.3072C11.1241 15.3906 11.188 15.4587 11.2616 15.5108C11.4592 15.6498 11.7276 15.6707 11.9511 15.5419C12.0908 15.4613 12.2297 15.3756 12.3643 15.2866C12.6594 15.0917 12.7406 14.6942 12.5456 14.3989C12.3506 14.1036 11.9532 14.0225 11.658 14.2176Z" fill="#EFD57A"/>
<path d="M15.9312 8.33427C15.9173 7.98067 15.6194 7.70544 15.2657 7.71925C14.9125 7.73319 14.637 8.03113 14.6509 8.3846C14.6562 8.51974 14.6576 8.65691 14.6545 8.79192C14.6495 9.01367 14.7579 9.21134 14.9265 9.33014C15.0269 9.40085 15.1488 9.44364 15.2809 9.44665C15.6345 9.4545 15.9275 9.17403 15.9354 8.82025C15.9389 8.65893 15.9376 8.49549 15.9312 8.33427Z" fill="#EFD57A"/>
<path d="M14.2088 12.5322C13.9252 12.3194 13.5241 12.3772 13.3117 12.6602C13.2304 12.7686 13.1448 12.8757 13.0571 12.9788C12.8279 13.248 12.8602 13.6525 13.1295 13.8818C13.1449 13.8949 13.1604 13.9068 13.1765 13.918C13.4442 14.1068 13.8162 14.0634 14.0326 13.8094C14.1374 13.6864 14.2395 13.5585 14.3366 13.4291C14.549 13.1461 14.4916 12.7446 14.2088 12.5322Z" fill="#EFD57A"/>
<path d="M15.1527 10.2162C14.8151 10.1103 14.4555 10.2982 14.3498 10.6358C14.3093 10.7648 14.2644 10.8944 14.2159 11.0213C14.1096 11.3008 14.2115 11.6082 14.4451 11.7729C14.488 11.803 14.5352 11.8286 14.5865 11.848C14.917 11.9741 15.2872 11.8082 15.4132 11.4776C15.4707 11.3267 15.5241 11.1725 15.5723 11.0191C15.678 10.6814 15.4902 10.322 15.1527 10.2162Z" fill="#EFD57A"/>
<path d="M6.78296 15.2243C6.21017 15.1214 5.66071 14.9463 5.13969 14.702C5.13352 14.6988 5.12801 14.6951 5.12153 14.6922C4.99875 14.6344 4.87618 14.5725 4.75737 14.5078C4.75696 14.5073 4.75621 14.507 4.75556 14.5068C4.53758 14.3867 4.32484 14.2539 4.11816 14.1084C1.10445 11.9855 0.379835 7.80646 2.50292 4.79278C2.96457 4.13771 3.52324 3.5912 4.14608 3.15804C4.15376 3.1527 4.16143 3.14739 4.16903 3.14201C6.36382 1.62974 9.34399 1.52783 11.6745 3.08182L11.174 3.80503C11.0348 4.00633 11.1204 4.15302 11.364 4.1311L13.5382 3.93644C13.7822 3.91452 13.928 3.70353 13.8624 3.46797L13.2786 1.36435C13.2132 1.12852 13.0459 1.10029 12.9066 1.30155L12.4049 2.02648C10.6946 0.878405 8.64328 0.440627 6.60725 0.793686C6.40218 0.829177 6.2 0.872615 6.00058 0.92318C5.99904 0.923454 5.99781 0.923625 5.99657 0.923899C5.98887 0.925783 5.98106 0.928284 5.97355 0.930374C4.21785 1.38124 2.68602 2.40523 1.59297 3.86625C1.58375 3.87718 1.57426 3.88787 1.56556 3.89975C1.52921 3.94871 1.49314 3.99879 1.45782 4.04888C1.40006 4.13096 1.34312 4.2151 1.28866 4.29923C1.28184 4.30937 1.27663 4.31968 1.27067 4.32993C0.368667 5.72767 -0.0664042 7.3436 0.00820883 8.98872C0.00838012 8.99413 0.0080718 8.99958 0.00820883 9.00513C0.0154372 9.16583 0.028181 9.32876 0.0454811 9.48916C0.0464061 9.4995 0.0487013 9.5093 0.0504485 9.51965C0.0683309 9.68093 0.0907697 9.84259 0.118895 10.0042C0.404741 11.6533 1.18266 13.1372 2.34835 14.2919C2.35105 14.2946 2.35386 14.2976 2.3566 14.3004C2.35756 14.3014 2.35862 14.302 2.35955 14.303C2.67273 14.6119 3.01339 14.8976 3.38018 15.1559C4.34008 15.8323 5.40895 16.2794 6.55686 16.4854C6.90515 16.548 7.23786 16.3161 7.30035 15.968C7.3628 15.6196 7.13115 15.2866 6.78296 15.2243Z" fill="#EFD57A"/>
<path d="M7.5752 3.46716C7.2887 3.46716 7.05664 3.69943 7.05664 3.98552V9.14975L11.7797 11.5913C11.8558 11.6307 11.9372 11.6492 12.0173 11.6492C12.2048 11.6492 12.386 11.5471 12.4782 11.3688C12.6095 11.1144 12.5101 10.8019 12.2557 10.6705L8.09317 8.51852V3.98552C8.09314 3.69943 7.86135 3.46716 7.5752 3.46716Z" fill="#EFD57A"/>
</g>
<defs>
<clipPath id="clip0">
<rect width="15.9366" height="15.9366" fill="white" transform="translate(0 0.616943)"/>
</clipPath>
</defs>
</svg>
