<svg width="18" height="18" viewBox="0 0 18 18" fill="none" xmlns="http://www.w3.org/2000/svg">
<g clip-path="url(#clip0)">
<path d="M9.00352 9.34695C11.575 9.34695 13.677 7.24492 13.677 4.67348C13.677 2.10203 11.575 0 9.00352 0C6.43207 0 4.33008 2.10203 4.33008 4.67348C4.33008 7.24492 6.43211 9.34695 9.00352 9.34695Z" fill="#20CAEB"/>
<path d="M17.0231 13.084C16.9006 12.7778 16.7374 12.4921 16.5537 12.2268C15.6149 10.839 14.1659 9.92068 12.5333 9.69619C12.3292 9.6758 12.1047 9.71658 11.9415 9.83904C11.0843 10.4717 10.0639 10.7982 9.00267 10.7982C7.94142 10.7982 6.92103 10.4717 6.06388 9.83904C5.9006 9.71658 5.6761 9.65537 5.47204 9.69619C3.83939 9.92068 2.37001 10.839 1.45165 12.2268C1.26798 12.4921 1.1047 12.7983 0.982276 13.084C0.921065 13.2064 0.941456 13.3493 1.00267 13.4717C1.16595 13.7574 1.37001 14.0432 1.55368 14.2881C1.83939 14.6758 2.14552 15.0228 2.49247 15.3493C2.77817 15.635 3.1047 15.9003 3.43126 16.1656C5.04349 17.3697 6.98228 18.0023 8.98228 18.0023C10.9823 18.0023 12.9211 17.3697 14.5333 16.1656C14.8598 15.9207 15.1863 15.635 15.4721 15.3493C15.7986 15.0228 16.1251 14.6758 16.4109 14.2881C16.6149 14.0228 16.7986 13.7574 16.9619 13.4717C17.0639 13.3493 17.0843 13.2064 17.0231 13.084Z" fill="#20CAEB"/>
</g>
<defs>
<clipPath id="clip0">
<rect width="18" height="18" fill="white"/>
</clipPath>
</defs>
</svg>
