<svg width="22" height="22" viewBox="0 0 22 22" fill="none" xmlns="http://www.w3.org/2000/svg">
<g clip-path="url(#clip0)">
<path d="M20.9508 12.8861H20.6216V9.92057C20.6216 9.45109 20.3879 9.03542 20.031 8.78285V8.37907C20.031 7.79336 19.5546 7.31688 18.9689 7.31688H18.723L19.6636 5.93672C19.9788 5.47412 19.859 4.84124 19.3964 4.52593L13.0142 0.176634C12.7901 0.0238797 12.52 -0.0324953 12.2534 0.0180789C11.987 0.0685672 11.7561 0.219774 11.6034 0.443899L6.09473 8.52731H4.56182L4.93165 4.78344C4.93582 4.74125 4.96323 4.70468 5.00148 4.69029C5.47796 4.51063 5.89089 4.17513 6.16417 3.74562C6.1857 3.7118 6.2263 3.69247 6.26833 3.69672L8.67264 3.93425C8.84503 3.95097 8.99839 3.82541 9.0154 3.65311C9.03242 3.4808 8.90656 3.32736 8.73426 3.31034L6.32994 3.07281C6.05086 3.04549 5.78471 3.17409 5.63518 3.40904C5.43426 3.72486 5.13064 3.97151 4.78032 4.10359C4.51662 4.20302 4.33555 4.43986 4.3077 4.72178L3.93181 8.52727H3.53207L4.11697 2.606C4.13802 2.39288 4.32824 2.2363 4.54163 2.25765L9.40027 2.73761C9.57258 2.75424 9.72602 2.62877 9.74304 2.45647C9.76005 2.28416 9.6342 2.13072 9.46189 2.11371L4.60324 1.63375C4.0462 1.57879 3.54806 1.98721 3.49302 2.54434L3.02156 7.31688H2.21869C1.63303 7.31688 1.1565 7.79336 1.1565 8.37907V8.6545C0.677359 8.8751 0.34375 9.35944 0.34375 9.92057V20.6067C0.34375 21.375 0.968774 22 1.7371 22H19.2283C19.9965 22 20.6216 21.375 20.6216 20.6067V17.6412H20.9508C21.3394 17.6412 21.6555 17.3251 21.6555 16.9366V13.5908C21.6556 13.2022 21.3394 12.8861 20.9508 12.8861ZM18.9689 7.94388C19.2089 7.94384 19.4041 8.13909 19.4041 8.37911V8.53883C19.3464 8.53152 19.2879 8.52735 19.2283 8.52735H17.8982L18.2958 7.94388H18.9689ZM12.1214 0.796931C12.1799 0.711208 12.2682 0.653372 12.3701 0.634036C12.3945 0.629438 12.4189 0.627118 12.4432 0.627118C12.5204 0.627118 12.5959 0.650235 12.6611 0.694665L19.0433 5.04396C19.2202 5.16458 19.2661 5.40666 19.1455 5.58361L17.1395 8.52722H16.6581L17.6416 7.08403C17.8011 6.84998 17.8142 6.55212 17.6758 6.30664C17.4918 5.98051 17.4172 5.5965 17.4658 5.22529C17.5019 4.94913 17.3803 4.67954 17.1487 4.52168L13.8401 2.26702C13.6084 2.10911 13.3131 2.09463 13.0692 2.22925C12.7416 2.41015 12.3569 2.48118 11.9861 2.42927C11.7111 2.39068 11.4322 2.51486 11.275 2.74539L7.33485 8.52727H6.85343L12.1214 0.796931ZM12.2595 6.12037C10.8943 6.12037 9.77372 7.18484 9.68241 8.52727H8.09347L11.793 3.09847C11.7931 3.09847 11.7931 3.09847 11.7931 3.09847C11.8141 3.06757 11.8489 3.04918 11.8847 3.04918C11.8895 3.04918 11.8943 3.04952 11.899 3.05017C12.4034 3.12072 12.9265 3.02422 13.3722 2.77813C13.4073 2.75871 13.4523 2.76151 13.487 2.78514L16.7956 5.03984C16.8302 5.06347 16.8493 5.10438 16.8441 5.14408C16.7781 5.64892 16.8795 6.17116 17.1298 6.61468C17.1498 6.65031 17.1474 6.69594 17.1236 6.73096L15.8995 8.52722H14.8367C14.7453 7.18484 13.6247 6.12037 12.2595 6.12037ZM14.208 8.52731H10.311C10.4008 7.53091 11.2402 6.74737 12.2595 6.74737C13.2789 6.74733 14.1183 7.53091 14.208 8.52731ZM1.78346 8.37907C1.78346 8.13904 1.97867 7.94379 2.21869 7.94379H2.95964L2.90202 8.52727H1.78346V8.37907ZM0.970707 9.92057C0.970707 9.49802 1.3145 9.15422 1.7371 9.15422H19.2283C19.6509 9.15422 19.9946 9.49802 19.9946 9.92057V10.7904H0.970707V9.92057ZM19.9946 20.6067C19.9946 21.0292 19.6509 21.373 19.2283 21.373H1.7371C1.3145 21.373 0.970707 21.0292 0.970707 20.6067V19.7368H2.66118C2.83435 19.7368 2.97464 19.5965 2.97464 19.4234C2.97464 19.2502 2.83431 19.1099 2.66118 19.1099H0.970707V11.4174H19.9946V12.8861H17.014H17.014C16.0749 12.8861 15.2614 13.4335 14.8753 14.2259C14.874 14.2285 14.8726 14.2311 14.8712 14.2338C14.868 14.2405 14.8651 14.2475 14.8619 14.2543C14.816 14.352 14.776 14.4531 14.7435 14.5574C14.7434 14.5577 14.7433 14.558 14.7432 14.5583C14.6738 14.7812 14.6364 15.0181 14.6364 15.2637C14.6364 16.5747 15.703 17.6412 17.014 17.6412H17.014H19.9946V19.1099H4.66843C4.49526 19.1099 4.35497 19.2502 4.35497 19.4234C4.35497 19.5965 4.49531 19.7368 4.66843 19.7368H19.9946V20.6067ZM21.0286 16.9365C21.0286 16.9794 20.9937 17.0143 20.9508 17.0143H17.0141C16.3504 17.0143 15.7718 16.6431 15.475 16.0974C15.4615 16.0726 15.4486 16.0474 15.4363 16.022C15.4117 15.971 15.3895 15.9186 15.3698 15.865C15.301 15.6774 15.2634 15.4748 15.2634 15.2637C15.2634 15.0525 15.301 14.8499 15.3698 14.6623C15.3895 14.6088 15.4117 14.5564 15.4363 14.5053C15.4486 14.4799 15.4615 14.4547 15.475 14.4299C15.7718 13.8842 16.3504 13.513 17.0141 13.513H20.9508C20.9937 13.513 21.0286 13.5479 21.0286 13.5908V16.9365Z" fill="#20EB71"/>
<path d="M17.0883 13.9918C16.3869 13.9918 15.8164 14.5624 15.8164 15.2637C15.8164 15.965 16.3869 16.5355 17.0883 16.5355C17.7896 16.5355 18.3602 15.965 18.3602 15.2637C18.3602 14.5624 17.7896 13.9918 17.0883 13.9918ZM17.0883 15.9086C16.7327 15.9086 16.4434 15.6193 16.4434 15.2637C16.4434 14.9081 16.7327 14.6188 17.0883 14.6188C17.4439 14.6188 17.7332 14.9081 17.7332 15.2637C17.7332 15.6193 17.4439 15.9086 17.0883 15.9086Z" fill="#20EB71"/>
</g>
<defs>
<clipPath id="clip0">
<rect width="22" height="22" fill="white"/>
</clipPath>
</defs>
</svg>
