<svg width="22" height="22" viewBox="0 0 22 22" fill="none" xmlns="http://www.w3.org/2000/svg">
<g clip-path="url(#clip0)">
<path d="M20.6223 12.6823H20.2982V9.76375C20.2982 9.30169 20.0683 8.89259 19.7171 8.64401V8.24662C19.7171 7.67017 19.2481 7.20122 18.6717 7.20122H18.4297L19.3554 5.84289C19.6657 5.3876 19.5477 4.76472 19.0924 4.45441L12.8111 0.173879C12.5906 0.0235402 12.3248 -0.0319434 12.0624 0.0178312C11.8002 0.0675212 11.5729 0.216337 11.4226 0.436918L6.00111 8.39251H4.49244L4.85642 4.70784C4.86052 4.66632 4.88751 4.63033 4.92514 4.61616C5.39409 4.43935 5.80049 4.10915 6.06945 3.68643C6.09064 3.65315 6.1306 3.63412 6.17196 3.63831L8.53826 3.87208C8.70792 3.88853 8.85885 3.76496 8.8756 3.59538C8.89235 3.4258 8.76848 3.27479 8.5989 3.25804L6.2326 3.02426C5.95793 2.99737 5.69599 3.12394 5.54883 3.35518C5.35108 3.666 5.05226 3.90875 4.70748 4.03874C4.44795 4.1366 4.26974 4.3697 4.24234 4.64716L3.87239 8.39247H3.47897L4.05462 2.56483C4.07534 2.35508 4.26255 2.20098 4.47256 2.22199L9.25439 2.69437C9.42397 2.71073 9.57498 2.58725 9.59173 2.41767C9.60848 2.24809 9.48461 2.09707 9.31503 2.08032L4.53321 1.60795C3.98497 1.55386 3.49471 1.95582 3.44053 2.50415L2.97654 7.20122H2.18636C1.60996 7.20122 1.14097 7.67017 1.14097 8.24662V8.51769C0.669399 8.7348 0.341064 9.21149 0.341064 9.76375V20.2809C0.341064 21.037 0.956205 21.6522 1.71238 21.6522H18.927C19.6831 21.6522 20.2982 21.037 20.2982 20.2809V17.3623H20.6223C21.0047 17.3623 21.3159 17.0512 21.3159 16.6688V13.3759C21.3159 12.9935 21.0047 12.6823 20.6223 12.6823ZM18.6717 7.81831C18.9079 7.81827 19.1 8.01043 19.1 8.24666V8.40385C19.0433 8.39666 18.9856 8.39256 18.927 8.39256H17.6179L18.0092 7.81831H18.6717ZM11.9325 0.784368C11.99 0.7 12.0769 0.643079 12.1773 0.624049C12.2012 0.619524 12.2253 0.61724 12.2492 0.61724C12.3252 0.61724 12.3994 0.639992 12.4636 0.683719L18.7449 4.96425C18.9191 5.08295 18.9642 5.32121 18.8456 5.49536L16.8712 8.39243H16.3974L17.3654 6.97206C17.5224 6.74171 17.5353 6.44856 17.3991 6.20696C17.218 5.88598 17.1446 5.50804 17.1923 5.14271C17.2279 4.87091 17.1083 4.60559 16.8803 4.45022L13.6241 2.23121C13.396 2.0758 13.1053 2.06155 12.8653 2.19404C12.5429 2.37208 12.1643 2.44198 11.7993 2.3909C11.5287 2.35292 11.2542 2.47514 11.0995 2.70202L7.22162 8.39247H6.74781L11.9325 0.784368ZM12.0684 6.02364C10.7248 6.02364 9.62192 7.07127 9.53206 8.39247H7.96824L11.6093 3.04951C11.6094 3.04951 11.6094 3.04951 11.6094 3.04951C11.63 3.01911 11.6643 3.00101 11.6996 3.00101C11.7042 3.00101 11.7089 3.00134 11.7136 3.00198C12.21 3.07142 12.7249 2.97644 13.1635 2.73424C13.198 2.71513 13.2424 2.71788 13.2765 2.74114L16.5328 4.96019C16.5668 4.98344 16.5856 5.0237 16.5805 5.06278C16.5155 5.55964 16.6154 6.07362 16.8616 6.51013C16.8814 6.54519 16.879 6.5901 16.8556 6.62457L15.6508 8.39243H14.6049C14.5149 7.07127 13.4121 6.02364 12.0684 6.02364ZM13.9861 8.39251H10.1507C10.2391 7.41187 11.0652 6.64072 12.0684 6.64072C13.0717 6.64068 13.8978 7.41187 13.9861 8.39251ZM1.75801 8.24662C1.75801 8.01039 1.95013 7.81822 2.18636 7.81822H2.9156L2.85889 8.39247H1.75801V8.24662ZM0.958108 9.76375C0.958108 9.34787 1.29647 9.00952 1.71238 9.00952H18.927C19.3429 9.00952 19.6812 9.34787 19.6812 9.76375V10.6199H0.958108V9.76375ZM19.6812 20.2809C19.6812 20.6968 19.3429 21.0351 18.927 21.0351H1.71238C1.29647 21.0351 0.958108 20.6968 0.958108 20.2809V19.4248H2.62185C2.79228 19.4248 2.93036 19.2867 2.93036 19.1163C2.93036 18.9459 2.79224 18.8078 2.62185 18.8078H0.958108V11.2369H19.6812V12.6823H16.7478H16.7477C15.8234 12.6823 15.0228 13.2211 14.6428 14.001C14.6416 14.0036 14.6401 14.0061 14.6388 14.0087C14.6356 14.0154 14.6328 14.0223 14.6297 14.029C14.5844 14.1251 14.5451 14.2246 14.5131 14.3273C14.513 14.3276 14.5129 14.3278 14.5129 14.3281C14.4446 14.5476 14.4077 14.7807 14.4077 15.0223C14.4077 16.3126 15.4574 17.3623 16.7477 17.3623H16.7477H19.6812V18.8078H4.59736C4.42693 18.8078 4.28886 18.9459 4.28886 19.1163C4.28886 19.2867 4.42697 19.4248 4.59736 19.4248H19.6812V20.2809ZM20.6989 16.6687C20.6989 16.711 20.6645 16.7453 20.6223 16.7453H16.7478C16.0946 16.7453 15.5252 16.38 15.2331 15.8429C15.2198 15.8185 15.2071 15.7937 15.195 15.7687C15.1707 15.7185 15.1489 15.6669 15.1296 15.6141C15.0618 15.4295 15.0249 15.2301 15.0249 15.0223C15.0249 14.8145 15.0619 14.6152 15.1296 14.4305C15.1489 14.3778 15.1708 14.3263 15.195 14.276C15.2071 14.2509 15.2198 14.2262 15.2331 14.2018C15.5252 13.6647 16.0946 13.2994 16.7478 13.2994H20.6223C20.6645 13.2994 20.6989 13.3337 20.6989 13.3759V16.6687Z" fill="#20EB71"/>
<path d="M16.8189 13.7706C16.1287 13.7706 15.5671 14.3322 15.5671 15.0224C15.5671 15.7126 16.1287 16.2741 16.8189 16.2741C17.5091 16.2741 18.0707 15.7126 18.0707 15.0224C18.0707 14.3322 17.5091 13.7706 16.8189 13.7706ZM16.8189 15.657C16.4689 15.657 16.1842 15.3723 16.1842 15.0224C16.1842 14.6724 16.4689 14.3876 16.8189 14.3876C17.1689 14.3876 17.4536 14.6724 17.4536 15.0224C17.4536 15.3723 17.1689 15.657 16.8189 15.657Z" fill="#20EB71"/>
</g>
<defs>
<clipPath id="clip0">
<rect width="21.6521" height="21.6521" fill="white"/>
</clipPath>
</defs>
</svg>
