<svg width="23" height="14" viewBox="0 0 23 14" fill="none" xmlns="http://www.w3.org/2000/svg">
<path d="M21.2496 13.3332H18.4162C17.9803 13.3342 17.5684 13.132 17.3003 12.7855L14.5378 9.23205C14.4138 9.07232 14.2031 9.00919 14.0127 9.07511C13.8225 9.14085 13.6943 9.32081 13.6936 9.52362V10.9522C13.6936 12.2677 12.4244 13.3332 10.8602 13.3332C10.2487 13.3388 9.64837 13.1674 9.13059 12.8392C5.16366 10.2796 2.47183 7.04755 0.134353 2.03577C-0.0716199 1.59354 -0.0391069 1.07579 0.220478 0.6632C0.480063 0.250608 0.930748 0.000542713 1.41533 1.95513e-05H4.2488C4.8157 -0.00137552 5.32882 0.338149 5.5533 0.863043L5.87203 1.61307C6.35367 2.73976 7.0003 3.78728 7.79064 4.72023C7.81641 4.74813 7.85307 4.76348 7.89094 4.76191C7.92571 4.76522 7.96047 4.75354 7.98624 4.72965C8.01218 4.70593 8.02688 4.6721 8.0267 4.63687V2.77376C7.37852 2.54026 6.99079 1.8708 7.10717 1.18687C7.22356 0.502941 7.8107 0.00228652 8.49901 1.95513e-05H12.2769C13.0593 1.95513e-05 13.6936 0.639658 13.6936 1.42857V4.76191C13.694 4.97448 13.8341 5.16107 14.0369 5.21914C14.2398 5.27721 14.4561 5.19263 14.5673 5.0118L17.2059 0.684474C17.4617 0.257409 17.9214 -0.00259617 18.4162 1.95513e-05H21.2496C21.7731 0.000193968 22.2537 0.291589 22.4996 0.757541C22.7456 1.22349 22.7165 1.78832 22.4242 2.2262L19.4491 6.38681C19.3289 6.5537 19.3289 6.77952 19.4491 6.94641L22.4007 11.0713C22.7106 11.5065 22.753 12.0801 22.5104 12.5568C22.2677 13.0336 21.7809 13.3332 21.2496 13.3332ZM14.1659 8.09507C14.6018 8.0942 15.0135 8.29631 15.2816 8.64281L18.0442 12.1962C18.1334 12.3122 18.2705 12.3804 18.4162 12.3807H21.2496C21.4274 12.3814 21.5905 12.2811 21.6714 12.1216C21.7525 11.9618 21.7377 11.77 21.6332 11.6248L18.6818 7.4999C18.3242 7.00064 18.3242 6.32665 18.6818 5.82739L21.651 1.67863C21.6977 1.60365 21.7223 1.51698 21.7218 1.42857C21.7218 1.1656 21.5104 0.952327 21.2496 0.952327H18.4162C18.2524 0.952502 18.1005 1.03812 18.0148 1.1785L15.376 5.50583C15.0457 6.05304 14.3944 6.31165 13.7827 6.13832C13.171 5.96515 12.7487 5.40242 12.7492 4.76191V1.42857C12.7492 1.1656 12.5377 0.952327 12.2769 0.952327H8.49901C8.23804 0.952327 8.0267 1.1656 8.0267 1.42857C8.0267 1.69154 8.23804 1.90481 8.49901 1.90481H8.97114V4.63687C8.96578 5.0887 8.6844 5.49031 8.26363 5.64638C7.84304 5.80228 7.37056 5.68004 7.07622 5.33929C6.22552 4.33467 5.52891 3.2071 5.01026 1.99409L4.68548 1.24407C4.61163 1.0669 4.43938 0.951804 4.2488 0.952327H1.41533C1.25415 0.953199 1.10455 1.0369 1.01843 1.17432C0.932305 1.31173 0.921755 1.48385 0.99024 1.63103C3.27479 6.52963 5.78348 9.54751 9.64405 12.0415C10.0098 12.2674 10.4313 12.3851 10.8602 12.3807C11.899 12.3807 12.7492 11.7379 12.7492 10.9522V9.52362C12.7492 8.73471 13.3834 8.09507 14.1659 8.09507Z" fill="#3DC4DE"/>
</svg>
