<svg width="29" height="35" viewBox="0 0 29 35" fill="none" xmlns="http://www.w3.org/2000/svg">
<path d="M19.5522 0.202141C19.3917 0.0331118 19.1717 -0.0683594 18.9436 -0.0683594H5.29015C2.77073 -0.0683594 0.691101 2.00299 0.691101 4.52214V30.3409C0.691101 32.8604 2.77073 34.9317 5.29015 34.9317H23.8214C26.3409 34.9317 28.4205 32.8604 28.4205 30.3409V9.83976C28.4205 9.62 28.319 9.40878 28.1754 9.24803L19.5522 0.202141ZM19.7973 2.91596L25.5716 8.97753H21.8179C20.702 8.97753 19.7973 8.08138 19.7973 6.96546V2.91596ZM23.8214 33.2409H5.29015C3.70933 33.2409 2.38193 31.9306 2.38193 30.3409V4.52214C2.38193 2.94133 3.70079 1.62247 5.29015 1.62247H18.1065V6.96546C18.1065 9.01972 19.7637 10.6684 21.8179 10.6684H26.7297V30.3409C26.7297 31.9306 25.4108 33.2409 23.8214 33.2409Z" fill="#20CAEB"/>
<path d="M21.5132 27.4075H7.59779C7.1329 27.4075 6.75238 27.7878 6.75238 28.253C6.75238 28.7179 7.1329 29.0984 7.59779 29.0984H21.5218C21.9867 29.0984 22.3672 28.7179 22.3672 28.253C22.3672 27.7878 21.9867 27.4075 21.5132 27.4075Z" fill="#20CAEB"/>
<path d="M13.9386 24.3726C14.0993 24.5416 14.3191 24.6431 14.5557 24.6431C14.7925 24.6431 15.0123 24.5416 15.1728 24.3726L20.127 19.055C20.4482 18.7166 20.4228 18.1756 20.0848 17.8629C19.7464 17.5417 19.2054 17.5668 18.8927 17.9051L15.4011 21.6502V12.4185C15.4011 11.9533 15.0206 11.5731 14.5557 11.5731C14.0908 11.5731 13.7102 11.9533 13.7102 12.4185V21.6502L10.2271 17.9051C9.90588 17.5671 9.37315 17.5417 9.03509 17.8629C8.69703 18.1842 8.67167 18.7169 8.9929 19.055L13.9386 24.3726Z" fill="#20CAEB"/>
</svg>
