<svg width="147" height="59" viewBox="0 0 147 59" fill="none" xmlns="http://www.w3.org/2000/svg">
<path d="M57.9223 28.9499H59.3474C59.3129 32.8804 58.5084 36.7993 56.9799 40.4079C55.4515 44.0165 53.2104 47.3148 50.4293 50.0615C47.6481 52.7967 44.3268 54.9803 40.7067 56.4513C37.0981 57.9223 33.2021 58.6578 29.3177 58.6348C25.4332 58.6004 21.5603 57.8074 17.9977 56.2904C14.435 54.7849 11.1712 52.5669 8.45895 49.8202C5.74674 47.0735 3.59765 43.7866 2.14961 40.2125C0.701562 36.6499 -0.0224543 32.7999 0.000530507 28.9614C0.0350078 25.123 0.816486 21.296 2.3105 17.7793C3.80451 14.2511 5.98807 11.0332 8.71178 8.35551C11.4355 5.67778 14.6764 3.55169 18.193 2.12663C21.7212 0.690073 25.5137 -0.0224461 29.3062 0.000538759C33.0987 0.035016 36.8797 0.816489 40.3504 2.28752C43.8326 3.75855 47.0045 5.91912 49.6478 8.60835C52.291 11.2976 54.3942 14.4925 55.7962 17.9747C56.9373 20.7857 57.6141 23.769 57.8205 26.7855M57.9223 28.9499V28.927H57.9221M57.9223 28.9499H57.8878C57.8879 28.9423 57.8879 28.9346 57.888 28.927M57.9223 28.9499C57.9222 28.9423 57.9222 28.9346 57.9221 28.927M57.9221 28.927C57.9149 28.2117 57.881 27.4973 57.8205 26.7855M57.9221 28.927H57.888M57.8205 26.7855C57.8693 27.4981 57.8918 28.2125 57.888 28.927M57.8205 26.7855C57.565 23.7771 56.8362 20.8168 55.6583 18.0436C54.1988 14.6074 52.0727 11.47 49.4179 8.86118C46.7632 6.25241 43.6028 4.17228 40.1665 2.7817C36.7303 1.39112 33.0183 0.690078 29.3292 0.713063C25.6286 0.74754 21.951 1.50604 18.5608 2.9426C15.1705 4.37915 12.0676 6.49375 9.49326 9.10253C6.91896 11.7228 4.86182 14.8487 3.49423 18.239C2.11514 21.6293 1.42558 25.2953 1.44857 28.9384C1.48305 32.593 2.23006 36.2246 3.65512 39.5689C5.06869 42.9132 7.1603 45.9817 9.7461 48.5215C14.9062 53.6357 22.1119 56.5432 29.3407 56.4628C36.5579 56.4283 43.6602 53.4058 48.6824 48.2687C53.7276 43.1661 56.6007 36.0637 56.5088 28.927H57.888" fill="#3DC4DE"/>
<path d="M57.9223 28.9499H59.3474C59.3129 32.8804 58.5084 36.7993 56.9799 40.4079C55.4515 44.0165 53.2104 47.3148 50.4293 50.0615C47.6481 52.7967 44.3268 54.9803 40.7067 56.4513C37.0981 57.9223 33.2021 58.6578 29.3177 58.6348C25.4332 58.6004 21.5603 57.8074 17.9977 56.2904C14.435 54.7849 11.1712 52.5669 8.45895 49.8202C5.74674 47.0735 3.59765 43.7866 2.14961 40.2125C0.701562 36.6499 -0.0224543 32.7999 0.000530507 28.9614C0.0350078 25.123 0.816486 21.296 2.3105 17.7793C3.80451 14.2511 5.98807 11.0332 8.71178 8.35551C11.4355 5.67778 14.6764 3.55169 18.193 2.12663C21.7212 0.690073 25.5137 -0.0224461 29.3062 0.000538759C33.0987 0.035016 36.8797 0.816489 40.3504 2.28752C43.8326 3.75855 47.0045 5.91912 49.6478 8.60835C52.291 11.2976 54.3942 14.4925 55.7962 17.9747C56.9373 20.7857 57.6141 23.769 57.8205 26.7855M57.9223 28.9499V28.927H57.9221M57.9223 28.9499H57.8878C57.8879 28.9423 57.8879 28.9346 57.888 28.927M57.9223 28.9499C57.9222 28.9423 57.9222 28.9346 57.9221 28.927M57.9221 28.927C57.9149 28.2117 57.881 27.4973 57.8205 26.7855M57.9221 28.927H57.888M57.8205 26.7855C57.8693 27.4981 57.8918 28.2125 57.888 28.927M57.8205 26.7855C57.565 23.7771 56.8362 20.8168 55.6583 18.0436C54.1988 14.6074 52.0727 11.47 49.4179 8.86118C46.7632 6.25241 43.6028 4.17228 40.1665 2.7817C36.7303 1.39112 33.0183 0.690078 29.3292 0.713063C25.6286 0.74754 21.951 1.50604 18.5608 2.9426C15.1705 4.37915 12.0676 6.49375 9.49326 9.10253C6.91896 11.7228 4.86182 14.8487 3.49423 18.239C2.11514 21.6293 1.42558 25.2953 1.44857 28.9384C1.48305 32.593 2.23006 36.2246 3.65512 39.5689C5.06869 42.9132 7.1603 45.9817 9.7461 48.5215C14.9062 53.6357 22.1119 56.5432 29.3407 56.4628C36.5579 56.4283 43.6602 53.4058 48.6824 48.2687C53.7276 43.1661 56.6007 36.0637 56.5088 28.927H57.888" stroke="#3DC4DE"/>
<path d="M32.0643 40.7293C32.0643 42.775 29.2946 44.3494 29.2946 44.3494C29.2946 44.3494 26.5249 42.7865 26.5249 40.7293C26.5134 38.3389 32.0643 38.3389 32.0643 40.7293Z" fill="white"/>
<path d="M22.974 31.7075C22.9395 31.7535 22.9165 31.7995 22.8936 31.8569C22.6177 32.5005 22.9165 33.2475 23.5716 33.5233C24.2152 33.7991 24.9622 33.5003 25.238 32.8453C25.261 32.7878 25.2725 32.7418 25.284 32.6844L22.974 31.7075Z" fill="white"/>
<path d="M35.5239 31.7075C35.5583 31.7535 35.5813 31.7995 35.6043 31.8569C35.8801 32.5005 35.5813 33.2475 34.9262 33.5233C34.2827 33.7991 33.5357 33.5003 33.2598 32.8453C33.2369 32.7878 33.2254 32.7418 33.2139 32.6844L35.5239 31.7075Z" fill="white"/>
<path d="M41.7179 23.9503L43.0969 22.0541L38.4655 11.4121L31.7424 18.7902L29.3175 18.9626L26.8926 18.7902L20.1696 11.4121L15.5381 22.0541L16.9172 23.9503L11.2629 35.8105L20.2845 40.7867L22.0428 44.3494L29.306 46.51L36.5692 44.3494L38.3276 40.7867L47.3491 35.8105L41.7179 23.9503ZM21.5372 38.9594L13.9062 34.7532L19.1812 23.6745L17.7676 21.7323L20.273 15.9746L25.0539 21.2151L29.0532 43.6598L21.5372 38.9594ZM28.3637 27.467L28.0649 21.9277L30.5472 21.9162L29.4899 25.95L31.7194 25.249L30.4093 29.8919L30.5702 27.2946L28.3637 27.467ZM37.1094 38.9594L29.6048 43.6713L33.6042 21.2266L38.385 15.9861L40.8904 21.7438L39.4768 23.686L44.7519 34.7647L37.1094 38.9594Z" fill="white"/>
<path d="M25.7206 32.1217L23.1693 29.8233L19.6641 27.927L20.0778 26.502L23.4795 28.3522L25.7206 32.1217Z" fill="white"/>
<path d="M33.248 32.1217L35.7994 29.8233L39.2931 27.927L38.8793 26.502L35.4776 28.3522L33.248 32.1217Z" fill="white"/>
<path d="M74.0117 9.63086H81.4128C82.1369 9.63086 82.7574 9.87221 83.2746 10.3434C83.7918 10.8261 84.0561 11.4007 84.0561 12.0788V15.7678C84.0561 16.8481 83.6654 17.733 82.8954 18.4111C83.9642 19.1121 84.4928 20.112 84.4928 21.3991V23.0655C84.4928 24.4331 83.9757 25.5364 82.9298 26.3638C81.953 27.1453 80.7233 27.5361 79.2523 27.5361H74.0117V9.63086ZM77.5629 12.9522V16.9286H79.2063C79.5511 16.9286 79.8499 16.8251 80.1027 16.5953C80.367 16.3654 80.4934 16.0896 80.4934 15.7678V12.9407H77.5629V12.9522ZM77.5629 24.2262H79.2408C80.367 24.2262 80.9187 23.8355 80.9187 23.0655V21.3991C80.9187 21.0773 80.7923 20.8015 80.5394 20.5716C80.2866 20.3533 79.9878 20.2384 79.6545 20.2384H77.5629V24.2262Z" fill="white"/>
<path d="M94.5947 9.63086C95.3072 9.63086 95.9163 9.87221 96.4335 10.3434C96.9506 10.8261 97.215 11.4007 97.215 12.0788V25.0997C97.215 25.7777 96.9506 26.3523 96.4335 26.835C95.9163 27.3062 95.3072 27.5476 94.5947 27.5476H89.3656C88.6531 27.5476 88.044 27.3062 87.5269 26.835C87.0097 26.3523 86.7454 25.7777 86.7454 25.0997V12.0788C86.7454 11.4007 87.0097 10.8261 87.5269 10.3434C88.044 9.87221 88.6531 9.63086 89.3656 9.63086H94.5947ZM90.2965 12.9522V24.2377H93.6638V12.9522H90.2965Z" fill="white"/>
<path d="M103.536 21.1578V27.5361H99.9846V9.63086H107.834C108.546 9.63086 109.156 9.87221 109.673 10.3434C110.19 10.8261 110.454 11.4007 110.454 12.0788V16.6987C110.454 17.8709 109.995 18.8018 109.087 19.5029C109.995 20.2039 110.454 21.1463 110.454 22.33V27.5476H106.903V22.33C106.903 22.0082 106.777 21.7209 106.524 21.491C106.271 21.2727 105.972 21.1578 105.639 21.1578H103.536ZM105.627 17.8479C105.961 17.8479 106.259 17.733 106.512 17.5147C106.765 17.2963 106.892 17.0205 106.892 16.6987V12.9522H103.524V17.8479H105.627Z" fill="white"/>
<path d="M116.453 12.9524H112.328V9.64258H121.085L116.695 24.2379H120.82V27.5478H112.075L116.453 12.9524Z" fill="white"/>
<path d="M77.5629 41.982V49.2797H74.0117V31.3745H77.5629V38.6722H80.9302V31.3745H84.4813V49.2797H80.9302V41.982H77.5629Z" fill="white"/>
<path d="M90.7448 45.9587H94.112V31.3633H97.6632V46.8321C97.6632 47.5101 97.3989 48.0848 96.8817 48.5674C96.3646 49.0386 95.7555 49.28 95.0429 49.28H89.8139C89.1013 49.28 88.4923 49.0386 87.9751 48.5674C87.4579 48.0848 87.1936 47.5101 87.1936 46.8321V31.3633H90.7448V45.9587Z" fill="white"/>
<path d="M104.018 37.7413V49.2797H100.467V31.3745H105.398L108.305 42.9589V31.3745H111.856V49.2797H106.938L104.018 37.7413Z" fill="white"/>
<path d="M117.051 34.6731H113.58V31.3633H124.061V34.6731H120.602V49.2685H117.063V34.6731H117.051Z" fill="white"/>
<path d="M128.773 45.9587H134.703V49.2685H125.222V31.3633H134.703V34.6731H128.773V38.6495H133.703V41.9708H128.773V45.9587Z" fill="white"/>
<path d="M140.081 42.8902V49.2685H136.53V31.3633H144.38C145.092 31.3633 145.701 31.6046 146.218 32.0758C146.736 32.5585 147 33.1331 147 33.8112V38.4311C147 39.6034 146.54 40.5342 145.632 41.2353C146.54 41.9363 147 42.8787 147 44.0624V49.28H143.449V44.0624C143.449 43.7406 143.322 43.4533 143.069 43.2235C142.817 43.0051 142.518 42.8902 142.185 42.8902H140.081ZM142.173 39.5804C142.506 39.5804 142.805 39.4654 143.058 39.2471C143.311 39.0287 143.437 38.7529 143.437 38.4311V34.6846H140.07V39.5804H142.173Z" fill="white"/>
</svg>
