<svg width="19" height="19" viewBox="0 0 19 19"  xmlns="http://www.w3.org/2000/svg">
<path d="M17.3301 2.72974H1.66992C0.749127 2.72974 0 3.47886 0 4.39966V14.6003C0 15.5211 0.749127 16.2702 1.66992 16.2702H17.3301C18.2509 16.2702 19 15.5211 19 14.6003V4.39966C19 3.47883 18.2509 2.72974 17.3301 2.72974ZM17.8867 14.6003C17.8867 14.9073 17.637 15.157 17.3301 15.157H1.66992C1.36299 15.157 1.11328 14.9073 1.11328 14.6003V6.60414H17.8867V14.6003ZM17.8867 5.49086H1.11328V4.39966C1.11328 4.09273 1.36299 3.84302 1.66992 3.84302H17.3301C17.637 3.84302 17.8867 4.09273 17.8867 4.39966V5.49086Z" />
<path d="M6.37349 8.0625C5.38085 8.0625 4.57324 8.87011 4.57324 9.86275V12.292C4.57324 12.5994 4.82247 12.8486 5.12988 12.8486C5.4373 12.8486 5.68652 12.5994 5.68652 12.292V11.2368H7.06042V12.292C7.06042 12.5994 7.30965 12.8486 7.61706 12.8486C7.92448 12.8486 8.1737 12.5994 8.1737 12.292V9.86275C8.17374 8.87011 7.36613 8.0625 6.37349 8.0625ZM7.06046 10.1235H5.68656V9.86279H5.68652C5.68652 9.48397 5.99472 9.17582 6.37349 9.17582C6.75227 9.17582 7.06046 9.48397 7.06046 9.86279V10.1235Z" />
<path d="M10.9567 8.0625H9.5C9.19259 8.0625 8.94336 8.31173 8.94336 8.61914V12.292C8.94336 12.5994 9.19259 12.8486 9.5 12.8486C9.80741 12.8486 10.0566 12.5994 10.0566 12.292V11.2368H10.9567C11.8319 11.2368 12.5439 10.5247 12.5439 9.64959C12.5439 8.77448 11.8319 8.0625 10.9567 8.0625ZM10.9567 10.1235H10.0566V9.17582H10.9567C11.218 9.17582 11.4306 9.38842 11.4306 9.6497C11.4306 9.91103 11.218 10.1235 10.9567 10.1235Z" />
<path d="M13.8701 8.0625C13.5627 8.0625 13.3135 8.31173 13.3135 8.61914V12.292C13.3135 12.5994 13.5627 12.8486 13.8701 12.8486C14.1775 12.8486 14.4268 12.5994 14.4268 12.292V8.61914C14.4268 8.31173 14.1775 8.0625 13.8701 8.0625Z" />
</svg>
