<svg width="14" height="14" viewBox="0 0 14 14" xmlns="http://www.w3.org/2000/svg">
<path className="menu_icon" d="M10.7188 14H3.28125C1.47197 14 0 12.5278 0 10.7183V6.11645C0 5.09936 0.482754 4.12389 1.29134 3.50706L5.01009 0.670313C6.18174 -0.223438 7.81826 -0.223438 8.98991 0.670313L10.1719 1.57115V0.873096C10.2008 0.147397 11.237 0.147944 11.2656 0.873096V2.67561C11.2656 2.88354 11.1477 3.07347 10.9614 3.16576C10.7751 3.25804 10.5526 3.23665 10.3873 3.11066L8.32677 1.54027C7.54551 0.94431 6.45444 0.94431 5.67336 1.54013L1.95461 4.37689C1.41559 4.78806 1.09375 5.43836 1.09375 6.11645V10.7183C1.09375 11.9246 2.07506 12.9061 3.28125 12.9061H10.7188C11.9249 12.9061 12.9062 11.9246 12.9062 10.7183V6.11645C12.9062 5.43005 12.5881 4.77753 12.0551 4.37092C11.8149 4.18772 11.7687 3.84451 11.9519 3.60434C12.1351 3.36415 12.4783 3.31796 12.7184 3.50116C13.5209 4.11331 14 5.09099 14 6.11645V10.7183C14 12.5278 12.528 14 10.7188 14ZM5.90625 6.31529C5.52871 6.31529 5.22266 6.62139 5.22266 6.99898C5.25878 7.90611 6.55405 7.90542 6.58984 6.99898C6.58984 6.62137 6.28379 6.31529 5.90625 6.31529ZM8.77734 6.99896C8.74122 7.90608 7.44595 7.9054 7.41016 6.99896C7.44628 6.09183 8.74155 6.09255 8.77734 6.99896ZM6.58984 9.18677C6.55372 10.0939 5.25845 10.0932 5.22266 9.18677C5.25878 8.27965 6.55405 8.28036 6.58984 9.18677ZM8.77734 9.18677C8.74122 10.0939 7.44595 10.0932 7.41016 9.18677C7.44628 8.27965 8.74155 8.28036 8.77734 9.18677Z" />
</svg>
